G75*
%MOIN*%
%OFA0B0*%
%FSLAX24Y24*%
%IPPOS*%
%LPD*%
%AMOC8*
5,1,8,0,0,1.08239X$1,22.5*
%
%ADD10C,0.0520*%
%ADD11OC8,0.0630*%
%ADD12C,0.0760*%
%ADD13C,0.0520*%
%ADD14C,0.0860*%
%ADD15OC8,0.0520*%
%ADD16C,0.0660*%
%ADD17OC8,0.0574*%
%ADD18C,0.1306*%
%ADD19C,0.0740*%
%ADD20C,0.0945*%
%ADD21C,0.0550*%
%ADD22C,0.0250*%
%ADD23C,0.0400*%
%ADD24C,0.0298*%
D10*
X034400Y016658D03*
X036400Y016658D03*
X034400Y020758D03*
D11*
X034900Y014658D03*
X035900Y014658D03*
X037900Y014658D03*
X032900Y014658D03*
X019900Y014158D03*
X019900Y013158D03*
X019900Y012158D03*
X019900Y011158D03*
X017900Y011158D03*
X017900Y012158D03*
X017900Y013158D03*
X017900Y014158D03*
X017900Y015158D03*
X017900Y016158D03*
X017900Y017158D03*
X019900Y017158D03*
X019900Y016158D03*
X019900Y015158D03*
D12*
X011400Y015158D03*
X011400Y014158D03*
X011400Y013158D03*
X011400Y012158D03*
X011400Y011158D03*
X007400Y011158D03*
X007400Y012158D03*
X007400Y013158D03*
X007400Y014158D03*
X007400Y015158D03*
X007400Y016158D03*
X007400Y017158D03*
X011400Y017158D03*
X011400Y016158D03*
D13*
X010900Y019638D02*
X010900Y020158D01*
X009900Y020158D02*
X009900Y019638D01*
X006900Y019638D02*
X006900Y020158D01*
X005900Y020158D02*
X005900Y019638D01*
X002900Y019638D02*
X002900Y020158D01*
X001900Y020158D02*
X001900Y019638D01*
X001900Y023158D02*
X001900Y023678D01*
X002900Y023678D02*
X002900Y023158D01*
X005900Y023158D02*
X005900Y023678D01*
X006900Y023678D02*
X006900Y023158D01*
X009900Y023158D02*
X009900Y023678D01*
X010900Y023678D02*
X010900Y023158D01*
X013900Y023158D02*
X013900Y023678D01*
X014900Y023678D02*
X014900Y023158D01*
X017900Y023158D02*
X017900Y023678D01*
X018900Y023678D02*
X018900Y023158D01*
X021900Y023158D02*
X021900Y023678D01*
X022900Y023678D02*
X022900Y023158D01*
X025900Y023158D02*
X025900Y023678D01*
X026900Y023678D02*
X026900Y023158D01*
X026900Y020158D02*
X026900Y019638D01*
X025900Y019638D02*
X025900Y020158D01*
X022900Y020158D02*
X022900Y019638D01*
X021900Y019638D02*
X021900Y020158D01*
X018900Y020158D02*
X018900Y019638D01*
X017900Y019638D02*
X017900Y020158D01*
X014900Y020158D02*
X014900Y019638D01*
X013900Y019638D02*
X013900Y020158D01*
X029400Y018908D02*
X029400Y018388D01*
X030400Y018388D02*
X030400Y018908D01*
X031400Y018908D02*
X031400Y018388D01*
X032400Y018388D02*
X032400Y018908D01*
X033400Y018908D02*
X033400Y018388D01*
X034400Y018388D02*
X034400Y018908D01*
X035400Y018908D02*
X035400Y018388D01*
X036400Y018388D02*
X036400Y018908D01*
X037400Y018908D02*
X037400Y018388D01*
X038400Y018388D02*
X038400Y018908D01*
X039400Y018908D02*
X039400Y018388D01*
X040400Y018388D02*
X040400Y018908D01*
X041400Y018908D02*
X041400Y018388D01*
X042400Y018388D02*
X042400Y018908D01*
X043400Y018908D02*
X043400Y018388D01*
X044400Y018388D02*
X044400Y018908D01*
X045400Y018908D02*
X045400Y018388D01*
X046400Y018388D02*
X046400Y018908D01*
X047400Y018908D02*
X047400Y018388D01*
X048400Y018388D02*
X048400Y018908D01*
X047660Y021658D02*
X047140Y021658D01*
X047140Y022658D02*
X047660Y022658D01*
X047660Y023658D02*
X047140Y023658D01*
X047140Y024658D02*
X047660Y024658D01*
X047660Y025658D02*
X047140Y025658D01*
X047140Y026658D02*
X047660Y026658D01*
X047660Y027658D02*
X047140Y027658D01*
X047640Y029658D02*
X048160Y029658D01*
X048160Y030658D02*
X047640Y030658D01*
X047640Y031658D02*
X048160Y031658D01*
X048160Y032658D02*
X047640Y032658D01*
X051640Y032658D02*
X052160Y032658D01*
X052160Y031658D02*
X051640Y031658D01*
X051640Y030658D02*
X052160Y030658D01*
X052160Y029658D02*
X051640Y029658D01*
X050660Y027658D02*
X050140Y027658D01*
X050140Y026658D02*
X050660Y026658D01*
X050660Y025658D02*
X050140Y025658D01*
X050140Y024658D02*
X050660Y024658D01*
X050660Y023658D02*
X050140Y023658D01*
X050140Y022658D02*
X050660Y022658D01*
X050660Y021658D02*
X050140Y021658D01*
X042660Y021658D02*
X042140Y021658D01*
X042140Y022658D02*
X042660Y022658D01*
X042660Y023658D02*
X042140Y023658D01*
X042140Y024658D02*
X042660Y024658D01*
X042660Y025658D02*
X042140Y025658D01*
X042140Y026658D02*
X042660Y026658D01*
X042660Y027658D02*
X042140Y027658D01*
X039660Y027658D02*
X039140Y027658D01*
X039140Y026658D02*
X039660Y026658D01*
X039660Y025658D02*
X039140Y025658D01*
X039140Y024658D02*
X039660Y024658D01*
X039660Y023658D02*
X039140Y023658D01*
X039140Y022658D02*
X039660Y022658D01*
X039660Y021658D02*
X039140Y021658D01*
X039160Y030158D02*
X038640Y030158D01*
X038640Y031158D02*
X039160Y031158D01*
X039160Y032158D02*
X038640Y032158D01*
X042640Y032158D02*
X043160Y032158D01*
X043160Y031158D02*
X042640Y031158D01*
X042640Y030158D02*
X043160Y030158D01*
X043400Y012908D02*
X043400Y012388D01*
X044400Y012388D02*
X044400Y012908D01*
X045400Y012908D02*
X045400Y012388D01*
X046400Y012388D02*
X046400Y012908D01*
X047400Y012908D02*
X047400Y012388D01*
X048400Y012388D02*
X048400Y012908D01*
X042400Y012908D02*
X042400Y012388D01*
X041400Y012388D02*
X041400Y012908D01*
X040400Y012908D02*
X040400Y012388D01*
X039400Y012388D02*
X039400Y012908D01*
X038400Y012908D02*
X038400Y012388D01*
X037400Y012388D02*
X037400Y012908D01*
X036400Y012908D02*
X036400Y012388D01*
X035400Y012388D02*
X035400Y012908D01*
X034400Y012908D02*
X034400Y012388D01*
X033400Y012388D02*
X033400Y012908D01*
X032400Y012908D02*
X032400Y012388D01*
X031400Y012388D02*
X031400Y012908D01*
X030400Y012908D02*
X030400Y012388D01*
X029400Y012388D02*
X029400Y012908D01*
X029900Y009178D02*
X029900Y008658D01*
X030900Y008658D02*
X030900Y009178D01*
X033400Y009178D02*
X033400Y008658D01*
X034400Y008658D02*
X034400Y009178D01*
X036900Y009178D02*
X036900Y008658D01*
X037900Y008658D02*
X037900Y009178D01*
X040400Y009178D02*
X040400Y008658D01*
X041400Y008658D02*
X041400Y009178D01*
X043900Y009178D02*
X043900Y008658D01*
X044900Y008658D02*
X044900Y009178D01*
X047400Y009178D02*
X047400Y008658D01*
X048400Y008658D02*
X048400Y009178D01*
X050900Y009178D02*
X050900Y008658D01*
X051900Y008658D02*
X051900Y009178D01*
X051900Y005658D02*
X051900Y005138D01*
X050900Y005138D02*
X050900Y005658D01*
X048400Y005658D02*
X048400Y005138D01*
X047400Y005138D02*
X047400Y005658D01*
X044900Y005658D02*
X044900Y005138D01*
X043900Y005138D02*
X043900Y005658D01*
X041400Y005658D02*
X041400Y005138D01*
X040400Y005138D02*
X040400Y005658D01*
X037900Y005658D02*
X037900Y005138D01*
X036900Y005138D02*
X036900Y005658D01*
X034400Y005658D02*
X034400Y005138D01*
X033400Y005138D02*
X033400Y005658D01*
X030900Y005658D02*
X030900Y005138D01*
X029900Y005138D02*
X029900Y005658D01*
D14*
X054900Y026008D02*
X054900Y026868D01*
X055651Y028327D02*
X056511Y028327D01*
X057262Y026868D02*
X057262Y026008D01*
D15*
X057900Y023158D03*
X057900Y022158D03*
X057900Y021158D03*
X057400Y019658D03*
X057400Y018658D03*
X057400Y017158D03*
X057400Y016158D03*
X057400Y014658D03*
X057400Y013658D03*
X049900Y014658D03*
X049900Y018658D03*
X053900Y021158D03*
X053900Y022158D03*
X053900Y023158D03*
X034400Y021558D03*
X025400Y026158D03*
X024400Y026158D03*
X022900Y026158D03*
X021900Y026158D03*
X020400Y026158D03*
X019400Y026158D03*
X017900Y026158D03*
X016900Y026158D03*
X015400Y026158D03*
X014400Y026158D03*
X012900Y026158D03*
X011900Y026158D03*
X010400Y026158D03*
X009400Y026158D03*
X009400Y030158D03*
X010400Y030158D03*
X011900Y030158D03*
X012900Y030158D03*
X014400Y030158D03*
X015400Y030158D03*
X016900Y030158D03*
X017900Y030158D03*
X019400Y030158D03*
X020400Y030158D03*
X021900Y030158D03*
X022900Y030158D03*
X024400Y030158D03*
X025400Y030158D03*
X025400Y032158D03*
X024400Y032158D03*
X022900Y032158D03*
X021900Y032158D03*
X020400Y032158D03*
X019400Y032158D03*
X017900Y032158D03*
X016900Y032158D03*
X015400Y032158D03*
X014400Y032158D03*
X012900Y032158D03*
X011900Y032158D03*
X010400Y032158D03*
X009400Y032158D03*
X012400Y017158D03*
X012400Y016158D03*
X012400Y015158D03*
X012400Y014158D03*
X012400Y013158D03*
X012400Y012158D03*
X012400Y011158D03*
X011900Y009658D03*
X012900Y009658D03*
X014400Y009658D03*
X015400Y009658D03*
X016900Y009658D03*
X017900Y009658D03*
X019400Y009658D03*
X020400Y009658D03*
X021900Y009658D03*
X022900Y009658D03*
X024400Y009658D03*
X025400Y009658D03*
X025400Y005658D03*
X024400Y005658D03*
X022900Y005658D03*
X021900Y005658D03*
X020400Y005658D03*
X019400Y005658D03*
X017900Y005658D03*
X016900Y005658D03*
X015400Y005658D03*
X014400Y005658D03*
X012900Y005658D03*
X011900Y005658D03*
X010400Y005658D03*
X009400Y005658D03*
X009400Y003658D03*
X010400Y003658D03*
X011900Y003658D03*
X012900Y003658D03*
X014400Y003658D03*
X015400Y003658D03*
X016900Y003658D03*
X017900Y003658D03*
X019400Y003658D03*
X020400Y003658D03*
X021900Y003658D03*
X022900Y003658D03*
X024400Y003658D03*
X025400Y003658D03*
X016400Y011158D03*
X016400Y012158D03*
X016400Y013158D03*
X016400Y014158D03*
X016400Y015158D03*
X016400Y016158D03*
X016400Y017158D03*
X010400Y009658D03*
X009400Y009658D03*
D16*
X054900Y013658D03*
X054900Y017658D03*
D17*
X055036Y009580D03*
X055823Y009580D03*
X055823Y008596D03*
X055036Y008596D03*
D18*
X056890Y006718D03*
X056890Y011458D03*
D19*
X052770Y013158D02*
X052030Y013158D01*
X052030Y014158D02*
X052770Y014158D01*
X052770Y015158D02*
X052030Y015158D01*
X052030Y016158D02*
X052770Y016158D01*
X052770Y017158D02*
X052030Y017158D01*
X052030Y018158D02*
X052770Y018158D01*
D20*
X035450Y028968D03*
X029350Y028968D03*
X007450Y028968D03*
X001350Y028968D03*
X001350Y006848D03*
X007450Y006848D03*
D21*
X005650Y008148D03*
X004650Y008148D03*
X003650Y008148D03*
X002650Y008148D03*
X003150Y009148D03*
X004150Y009148D03*
X005150Y009148D03*
X006150Y009148D03*
X005650Y026668D03*
X004650Y026668D03*
X003650Y026668D03*
X002650Y026668D03*
X003150Y027668D03*
X004150Y027668D03*
X005150Y027668D03*
X006150Y027668D03*
X030650Y026668D03*
X031650Y026668D03*
X032650Y026668D03*
X033650Y026668D03*
X033150Y027668D03*
X034150Y027668D03*
X032150Y027668D03*
X031150Y027668D03*
D22*
X031150Y027720D01*
X031775Y028345D01*
X034400Y028345D01*
X034650Y028095D01*
X035713Y028095D01*
X038150Y025658D01*
X039400Y025658D01*
X040088Y026158D02*
X040338Y025908D01*
X040338Y025533D01*
X042213Y023658D01*
X042400Y023658D01*
X042400Y024658D02*
X042588Y024658D01*
X045900Y021345D01*
X045900Y021220D01*
X046275Y020845D01*
X047775Y020845D01*
X048713Y021783D01*
X048713Y023158D01*
X050400Y022658D02*
X050400Y021658D01*
X050400Y021595D01*
X051650Y020345D01*
X052213Y020158D02*
X051650Y019595D01*
X051400Y019595D01*
X050588Y018783D01*
X050588Y018408D01*
X047775Y015595D01*
X039400Y015595D01*
X038650Y016095D02*
X037400Y017345D01*
X037400Y018648D01*
X037400Y018845D01*
X034713Y021533D01*
X034400Y021533D01*
X034400Y021558D01*
X034338Y021658D01*
X034338Y022908D01*
X030650Y026595D01*
X030650Y026668D01*
X030650Y026783D01*
X030463Y026970D01*
X030463Y027908D01*
X033713Y031158D01*
X038900Y031158D01*
X038900Y032158D01*
X038963Y032220D01*
X041775Y032220D01*
X042400Y032845D01*
X047713Y032845D01*
X047900Y032658D01*
X045088Y031158D02*
X047150Y029095D01*
X046963Y028345D02*
X050900Y028345D01*
X052588Y026658D01*
X052588Y024658D01*
X053400Y023845D01*
X054150Y023845D01*
X054588Y023408D01*
X054588Y021845D01*
X053900Y021158D01*
X053088Y021345D02*
X053900Y022158D01*
X053088Y021345D02*
X053088Y019533D01*
X053525Y019095D01*
X053525Y014470D01*
X054025Y013970D01*
X054025Y012345D01*
X053338Y011658D01*
X053338Y011533D01*
X053088Y012408D02*
X051713Y012408D01*
X050650Y013470D01*
X050650Y014845D01*
X049900Y014658D02*
X048338Y014658D01*
X048275Y014595D01*
X043275Y014595D01*
X043213Y014533D01*
X041963Y014533D01*
X041588Y014158D01*
X041338Y014158D01*
X040963Y014533D01*
X041338Y014158D02*
X040400Y013220D01*
X040400Y012648D01*
X039400Y012648D02*
X039400Y012845D01*
X038338Y013908D01*
X038400Y013970D01*
X038400Y014158D01*
X038650Y014408D01*
X038650Y016095D01*
X037900Y015158D02*
X036400Y016658D01*
X036400Y018648D01*
X035400Y018648D02*
X035400Y017658D01*
X034400Y016658D01*
X033400Y016720D02*
X034713Y015408D01*
X036150Y015408D01*
X036900Y014658D01*
X036650Y013908D02*
X035900Y014658D01*
X034900Y014658D01*
X034650Y013908D02*
X032400Y016158D01*
X032213Y016720D02*
X033400Y016720D01*
X032213Y016720D02*
X031400Y015908D01*
X031400Y012648D01*
X032400Y012648D02*
X032400Y012470D01*
X033150Y011720D01*
X041588Y011720D01*
X042463Y010845D01*
X044650Y010845D01*
X043338Y011408D02*
X044400Y012470D01*
X044400Y012648D01*
X045400Y012648D02*
X045400Y012595D01*
X045588Y012408D01*
X045588Y008408D01*
X043900Y006720D01*
X043900Y005658D01*
X044900Y005658D02*
X045213Y005345D01*
X045213Y004970D01*
X044275Y004033D01*
X041025Y004033D01*
X040775Y004283D01*
X040400Y005658D02*
X040400Y007158D01*
X041338Y006845D02*
X041838Y007345D01*
X042775Y007345D01*
X043275Y007845D01*
X044088Y007845D01*
X044900Y008658D01*
X043900Y008658D02*
X042338Y008658D01*
X041650Y007970D01*
X041088Y007970D01*
X040400Y008658D01*
X039213Y009845D01*
X037650Y009845D01*
X036900Y009095D01*
X036900Y008658D01*
X039338Y008658D02*
X036900Y006220D01*
X036900Y005658D01*
X033400Y005658D02*
X033400Y006595D01*
X037275Y010470D01*
X039275Y011220D02*
X026525Y011220D01*
X026213Y011533D01*
X021275Y011533D01*
X020713Y011345D02*
X020713Y011970D01*
X019900Y012158D02*
X019900Y013158D01*
X019963Y013283D01*
X027088Y013283D01*
X028650Y014470D02*
X028650Y014720D01*
X026588Y016783D01*
X023088Y016783D01*
X023025Y016720D01*
X022650Y016720D01*
X022150Y017220D01*
X022150Y017595D01*
X020838Y018908D01*
X017588Y018908D01*
X017088Y019408D01*
X017088Y021533D01*
X015838Y022783D01*
X013900Y023158D02*
X013213Y022470D01*
X012213Y022470D01*
X012213Y020033D01*
X008713Y016533D01*
X008713Y009408D01*
X010338Y007783D01*
X010338Y005720D01*
X010400Y005658D01*
X010400Y003658D01*
X009400Y003658D02*
X009400Y005658D01*
X011900Y005658D02*
X011900Y003658D01*
X012900Y003658D02*
X012900Y005658D01*
X013588Y006345D01*
X014713Y006345D01*
X014775Y006283D01*
X014838Y006345D01*
X017213Y006345D01*
X017275Y006283D01*
X017338Y006345D01*
X019713Y006345D01*
X019775Y006283D01*
X019838Y006345D01*
X022213Y006345D01*
X022900Y005658D01*
X022900Y003658D01*
X023650Y003470D02*
X023650Y006408D01*
X022213Y007845D01*
X020275Y007845D01*
X018588Y009533D01*
X018588Y010470D01*
X017900Y011158D01*
X016400Y011158D01*
X015463Y012845D02*
X015088Y012845D01*
X012775Y010533D01*
X012650Y010533D01*
X012588Y010470D01*
X012213Y010470D01*
X012150Y010533D01*
X011900Y010533D01*
X011775Y010408D01*
X011713Y010408D01*
X011275Y009970D01*
X011275Y009908D01*
X011213Y009845D01*
X011213Y009470D01*
X011275Y009408D01*
X011275Y009345D01*
X011775Y008845D01*
X013088Y008845D01*
X014650Y007283D01*
X018963Y007283D01*
X019025Y007345D01*
X021963Y007345D01*
X022213Y007095D01*
X022275Y008345D02*
X023900Y008345D01*
X027213Y005033D01*
X027213Y003533D01*
X026838Y003158D01*
X026213Y003158D01*
X026088Y003283D01*
X026650Y003720D02*
X026650Y004845D01*
X026275Y005220D01*
X025400Y005658D02*
X025400Y003658D01*
X024400Y003658D02*
X024400Y005658D01*
X021900Y005658D02*
X021900Y003658D01*
X020400Y003658D02*
X020400Y005658D01*
X019775Y006283D01*
X019400Y005658D02*
X019400Y003658D01*
X017900Y003658D02*
X017900Y005658D01*
X017275Y006283D01*
X016900Y005658D02*
X016900Y003658D01*
X015400Y003658D02*
X015400Y005658D01*
X014775Y006283D01*
X014400Y005658D02*
X014400Y003658D01*
X014775Y008345D02*
X018775Y008345D01*
X019400Y009658D02*
X020400Y009658D01*
X020463Y009595D01*
X021025Y009595D01*
X022275Y008345D01*
X021900Y009658D02*
X022900Y009658D01*
X024400Y009658D02*
X025400Y009658D01*
X025463Y009595D01*
X025463Y007908D01*
X030838Y002533D01*
X047775Y002533D01*
X050900Y005658D01*
X050900Y007720D01*
X049713Y008908D01*
X049713Y010158D01*
X047400Y012470D01*
X047400Y012648D01*
X048775Y013595D02*
X051213Y011158D01*
X053088Y012408D02*
X053213Y012533D01*
X054900Y013658D02*
X056838Y011720D01*
X056838Y011533D01*
X056890Y011458D01*
X056838Y011408D01*
X055838Y010408D01*
X055838Y009595D01*
X055823Y009580D01*
X055900Y009533D01*
X056838Y008595D01*
X056838Y006720D01*
X056890Y006718D01*
X055775Y008095D02*
X055775Y008595D01*
X055823Y008596D01*
X055036Y008596D02*
X055025Y008658D01*
X054713Y008658D01*
X049213Y014158D01*
X048588Y014158D01*
X048275Y013845D01*
X044275Y013845D01*
X043400Y016095D02*
X041400Y018095D01*
X041400Y018648D01*
X043150Y019658D02*
X038338Y019658D01*
X032650Y025345D01*
X032650Y026668D01*
X034150Y027658D02*
X034150Y027668D01*
X034150Y027658D02*
X034338Y027470D01*
X034338Y025533D01*
X038900Y020970D01*
X042588Y020970D01*
X043463Y020095D01*
X046650Y020095D01*
X047900Y020345D02*
X046400Y018845D01*
X046400Y018648D01*
X047400Y018648D02*
X047400Y018845D01*
X050213Y021658D01*
X050400Y021658D01*
X049463Y021783D02*
X049463Y025908D01*
X049650Y026095D01*
X049588Y026158D01*
X048088Y026158D01*
X047400Y026658D02*
X047338Y026595D01*
X046775Y026595D01*
X046463Y026283D01*
X046463Y021408D01*
X047900Y020345D02*
X048025Y020345D01*
X049463Y021783D01*
X052213Y020158D02*
X052213Y024033D01*
X050588Y025658D01*
X050400Y025658D01*
X049650Y026095D02*
X050213Y026658D01*
X050400Y026658D01*
X050400Y027658D01*
X051900Y029220D02*
X053150Y027970D01*
X053150Y024845D01*
X055275Y024408D02*
X057213Y026345D01*
X057262Y026438D01*
X057213Y026470D01*
X057213Y027158D01*
X056088Y028283D01*
X056081Y028327D01*
X051900Y029220D02*
X051900Y029658D01*
X047400Y027658D02*
X047400Y026658D01*
X046900Y028283D02*
X046963Y028345D01*
X046900Y028283D02*
X043775Y028283D01*
X043025Y029033D01*
X038650Y029033D01*
X038338Y028720D01*
X038088Y028720D01*
X038900Y028533D02*
X037588Y027220D01*
X036588Y026220D02*
X035463Y027345D01*
X038900Y028533D02*
X042713Y028533D01*
X043713Y027533D01*
X044713Y027533D02*
X042838Y025658D01*
X042400Y025658D01*
X040650Y024220D02*
X042213Y022658D01*
X042400Y022658D01*
X037900Y023470D02*
X037900Y025158D01*
X039400Y026658D02*
X039400Y027658D01*
X039775Y028033D01*
X041150Y028033D01*
X041463Y027720D01*
X042900Y029908D02*
X043963Y028845D01*
X044088Y028845D01*
X042900Y029908D02*
X042900Y030158D01*
X042900Y031158D02*
X045088Y031158D01*
X038900Y031158D02*
X038900Y030158D01*
X029713Y027408D02*
X029713Y025908D01*
X028900Y025595D02*
X028900Y028158D01*
X026588Y030470D01*
X026588Y031908D01*
X025650Y032845D01*
X021650Y032845D01*
X021088Y032283D01*
X021088Y029908D01*
X018525Y027345D01*
X011588Y027345D01*
X010400Y026158D01*
X009400Y026158D01*
X008338Y025533D02*
X006838Y027033D01*
X006838Y027908D01*
X006400Y028345D01*
X004775Y028345D01*
X004150Y027720D01*
X004150Y027668D01*
X002650Y027220D02*
X002463Y027408D01*
X002463Y027908D01*
X007400Y032845D01*
X018150Y032845D01*
X018650Y032345D01*
X018650Y031908D01*
X019400Y032158D02*
X019400Y030158D01*
X016900Y030158D02*
X016900Y032158D01*
X014400Y032158D02*
X014400Y030158D01*
X011900Y030158D02*
X011900Y032158D01*
X009400Y032158D02*
X009400Y030158D01*
X007588Y027908D02*
X007588Y027033D01*
X009713Y024908D01*
X014588Y024908D01*
X017900Y021595D01*
X017900Y020158D01*
X018900Y020158D02*
X019588Y020845D01*
X022213Y020845D01*
X022900Y020158D01*
X021400Y021720D02*
X021400Y021970D01*
X019588Y023783D01*
X019588Y023908D01*
X018025Y025470D01*
X016650Y025470D01*
X016088Y026033D01*
X016088Y026408D01*
X015650Y026845D01*
X013588Y026845D01*
X012900Y026158D01*
X011900Y026158D01*
X014400Y026158D02*
X015400Y026158D01*
X015463Y026095D01*
X015463Y025658D01*
X016775Y024345D01*
X017025Y024345D01*
X016900Y026158D02*
X017900Y026158D01*
X018588Y026845D01*
X020650Y026845D01*
X021088Y026408D01*
X021088Y026033D01*
X021650Y025470D01*
X022775Y025470D01*
X024088Y024158D01*
X024088Y024033D01*
X027588Y020533D01*
X027588Y018533D01*
X030400Y015720D01*
X030400Y012648D01*
X029400Y012648D02*
X029400Y014720D01*
X020400Y023720D01*
X020400Y026158D01*
X019400Y026158D01*
X021900Y026158D02*
X022900Y026158D01*
X023588Y026033D02*
X023588Y029470D01*
X022900Y030158D01*
X021900Y030158D02*
X021900Y032158D01*
X024400Y032158D02*
X024400Y030158D01*
X025150Y030845D02*
X025650Y030845D01*
X026088Y030408D01*
X026088Y027408D01*
X030463Y023033D01*
X030463Y022158D01*
X030400Y021158D02*
X025400Y026158D01*
X024400Y026158D01*
X024150Y025470D02*
X023588Y026033D01*
X024150Y025470D02*
X025025Y025470D01*
X026900Y023595D01*
X026900Y023158D01*
X028275Y022283D02*
X028275Y018595D01*
X029900Y016970D01*
X030150Y016970D01*
X030400Y018648D02*
X030400Y021158D01*
X031400Y018845D02*
X033275Y020720D01*
X034400Y020720D01*
X034400Y020758D01*
X031400Y018845D02*
X031400Y018648D01*
X026900Y020158D02*
X023588Y023470D01*
X023588Y023908D01*
X022775Y024720D01*
X022150Y024720D01*
X014713Y021345D02*
X014150Y021345D01*
X012713Y019908D01*
X012713Y019595D01*
X009838Y016720D01*
X009838Y016658D01*
X011400Y016158D02*
X012400Y016158D01*
X012400Y017158D02*
X011400Y017158D01*
X011400Y015158D02*
X012400Y015158D01*
X012400Y014158D02*
X011400Y014158D01*
X011400Y013158D02*
X012400Y013158D01*
X012400Y012158D02*
X011400Y012158D01*
X011400Y011158D02*
X012400Y011158D01*
X012900Y009658D02*
X011900Y009658D01*
X012900Y009658D02*
X012963Y009595D01*
X013525Y009595D01*
X014775Y008345D01*
X014400Y009658D02*
X015400Y009658D01*
X016900Y009658D02*
X017900Y009658D01*
X018650Y011408D02*
X019650Y010408D01*
X025588Y010408D01*
X025775Y010220D01*
X029775Y010220D01*
X030900Y009095D01*
X030900Y008658D01*
X030588Y007970D02*
X032713Y007970D01*
X033400Y008658D01*
X034400Y008658D02*
X034400Y009095D01*
X032775Y010720D01*
X026025Y010720D01*
X025775Y010970D01*
X021088Y010970D01*
X020713Y011345D01*
X019900Y011158D02*
X019900Y012158D01*
X018650Y011408D02*
X018650Y014408D01*
X017900Y015158D01*
X016400Y015158D01*
X016400Y014158D02*
X017900Y014158D01*
X017900Y013158D02*
X016400Y013158D01*
X016338Y013095D01*
X015713Y013095D01*
X015463Y012845D01*
X019900Y013158D02*
X019900Y014158D01*
X019900Y015158D01*
X019900Y016158D01*
X019900Y017158D01*
X019088Y017970D01*
X016713Y017970D01*
X016400Y017158D02*
X017900Y017158D01*
X017900Y016158D02*
X016400Y016158D01*
X021588Y016033D02*
X023588Y016033D01*
X028150Y009470D02*
X034088Y003533D01*
X044525Y003533D01*
X045713Y004720D01*
X045713Y004908D01*
X048400Y007595D01*
X048400Y008658D01*
X049213Y009283D02*
X049213Y005095D01*
X047400Y005658D02*
X044775Y003033D01*
X031088Y003033D01*
X026213Y007908D01*
X026213Y009095D01*
X029900Y008658D02*
X030588Y007970D01*
X030900Y005658D02*
X031088Y005658D01*
X032213Y004533D01*
X032213Y004283D01*
X039275Y011220D02*
X041400Y009095D01*
X041400Y008658D01*
X042650Y011408D02*
X043338Y011408D01*
X047025Y010845D02*
X047650Y010845D01*
X049213Y009283D01*
X051713Y009845D02*
X052150Y009845D01*
X054275Y007720D01*
X055775Y008095D02*
X052150Y004470D01*
X051650Y004470D01*
X051463Y004658D01*
X051338Y004658D01*
X052338Y003908D02*
X050150Y003908D01*
X052338Y003908D02*
X054025Y005595D01*
X054275Y005595D01*
X052650Y005845D02*
X051900Y006595D01*
X051900Y008658D01*
X057213Y010283D02*
X058088Y011158D01*
X058088Y011720D01*
X057150Y012658D01*
X056650Y012658D01*
X055900Y013408D01*
X055900Y013658D01*
X054900Y013658D02*
X055900Y014658D01*
X056713Y014658D01*
X056713Y016470D01*
X056775Y016533D01*
X056713Y016595D01*
X056713Y018970D01*
X055713Y019970D01*
X055650Y019970D01*
X055275Y020345D01*
X055275Y024408D01*
X055838Y022658D02*
X055838Y020533D01*
X057400Y019658D02*
X056713Y018970D01*
X057400Y018658D02*
X058088Y019345D01*
X058088Y020970D01*
X057900Y021158D01*
X058588Y021470D02*
X057900Y022158D01*
X058588Y021470D02*
X058588Y017345D01*
X057400Y016158D01*
X056775Y016533D02*
X057400Y017158D01*
X057400Y014658D02*
X056713Y014658D01*
X052400Y017158D02*
X051713Y017158D01*
X049900Y015345D01*
X049900Y014658D01*
X048275Y016845D02*
X047525Y016095D01*
X043400Y016095D01*
X040088Y017408D02*
X038213Y017408D01*
X038150Y017345D01*
X037900Y015158D02*
X037900Y014658D01*
X038338Y013908D02*
X036650Y013908D01*
X036400Y012845D02*
X035338Y013908D01*
X034650Y013908D01*
X036400Y012845D02*
X036400Y012648D01*
X048275Y016845D02*
X048275Y017095D01*
X049775Y016845D02*
X049775Y016595D01*
X049775Y016845D02*
X051213Y018283D01*
X051213Y018658D01*
X051650Y019095D01*
X052525Y019095D01*
X049900Y018658D02*
X048400Y018658D01*
X048400Y018648D01*
X055838Y022658D02*
X059088Y025908D01*
X059088Y030970D01*
X056775Y033283D01*
X052525Y033283D01*
X051900Y032658D01*
X012213Y022470D02*
X010588Y022470D01*
X009900Y023158D01*
X009838Y022470D02*
X009650Y022470D01*
X006275Y025845D01*
X005463Y025845D01*
X004650Y026658D01*
X004650Y026668D01*
X003650Y026668D02*
X003650Y024470D01*
X005900Y022220D01*
X005900Y020158D01*
X007150Y018970D02*
X007588Y019408D01*
X007588Y023533D01*
X008338Y022783D02*
X009900Y021220D01*
X009900Y020158D01*
X011650Y020658D02*
X009838Y022470D01*
X008338Y025283D02*
X008338Y025533D01*
X002650Y026668D02*
X002650Y027220D01*
X001213Y024908D02*
X001213Y019408D01*
X001900Y018720D01*
X002650Y018970D02*
X007150Y018970D01*
X007275Y017158D02*
X007400Y017158D01*
X007275Y017158D02*
X002463Y012345D01*
X002463Y008908D01*
X002650Y008720D01*
X002650Y008148D01*
X003150Y009148D02*
X003150Y012033D01*
X007275Y016158D01*
X007400Y016158D01*
X007400Y014158D02*
X007275Y014158D01*
X004150Y011033D01*
X004150Y009148D01*
X005150Y009148D02*
X005150Y010033D01*
X007275Y012158D01*
X007400Y012158D01*
X008213Y012470D02*
X007525Y013158D01*
X007400Y013158D01*
X008213Y012470D02*
X008213Y009533D01*
X006150Y007470D01*
X005400Y007470D01*
X004775Y008095D01*
X004650Y008095D01*
X004650Y008148D01*
X005650Y008158D02*
X005650Y008148D01*
X005650Y008158D02*
X006088Y008158D01*
X007400Y009470D01*
X007400Y011158D01*
X009400Y009658D02*
X010400Y009658D01*
X002650Y018970D02*
X001900Y019720D01*
X001900Y020158D01*
D23*
X000800Y006306D02*
X000800Y002558D01*
X029999Y002558D01*
X027787Y004770D01*
X027787Y003419D01*
X027700Y003207D01*
X027325Y002832D01*
X027163Y002671D01*
X026952Y002583D01*
X026098Y002583D01*
X025887Y002671D01*
X025806Y002751D01*
X025748Y002775D01*
X025580Y002944D01*
X025516Y003098D01*
X025400Y003098D01*
X025400Y003658D01*
X025400Y003658D01*
X025400Y004218D01*
X025632Y004218D01*
X025960Y003890D01*
X025960Y003878D01*
X025968Y003882D01*
X026069Y003882D01*
X026075Y003897D01*
X026075Y004607D01*
X025993Y004689D01*
X025936Y004713D01*
X025767Y004881D01*
X025676Y005101D01*
X025676Y005142D01*
X025632Y005098D01*
X025400Y005098D01*
X025400Y005658D01*
X025400Y005658D01*
X025400Y005098D01*
X025168Y005098D01*
X025006Y005260D01*
X024975Y005229D01*
X024975Y004087D01*
X025006Y004056D01*
X025168Y004218D01*
X025400Y004218D01*
X025400Y003658D01*
X025400Y003658D01*
X025400Y003098D01*
X025168Y003098D01*
X025006Y003260D01*
X024694Y002948D01*
X024106Y002948D01*
X024040Y003014D01*
X023989Y002963D01*
X023769Y002872D01*
X023531Y002872D01*
X023311Y002963D01*
X023154Y003120D01*
X023132Y003098D01*
X022900Y003098D01*
X022900Y003658D01*
X022900Y003658D01*
X022900Y004218D01*
X023075Y004218D01*
X023075Y005098D01*
X022900Y005098D01*
X022900Y005658D01*
X022900Y005658D01*
X022900Y006218D01*
X023027Y006218D01*
X022604Y006640D01*
X022552Y006588D01*
X022332Y006497D01*
X022093Y006497D01*
X021873Y006588D01*
X021705Y006756D01*
X021699Y006770D01*
X019228Y006770D01*
X019077Y006708D01*
X014536Y006708D01*
X014324Y006796D01*
X012849Y008270D01*
X011661Y008270D01*
X011449Y008358D01*
X010949Y008858D01*
X010788Y009020D01*
X010781Y009035D01*
X010694Y008948D01*
X010106Y008948D01*
X009971Y009083D01*
X009829Y009083D01*
X009694Y008948D01*
X009106Y008948D01*
X008743Y009311D01*
X008700Y009207D01*
X008538Y009046D01*
X006476Y006983D01*
X006264Y006895D01*
X005286Y006895D01*
X005074Y006983D01*
X004913Y007145D01*
X004634Y007423D01*
X004506Y007423D01*
X004239Y007533D01*
X004150Y007623D01*
X004061Y007533D01*
X003794Y007423D01*
X003506Y007423D01*
X003239Y007533D01*
X003150Y007623D01*
X003061Y007533D01*
X002794Y007423D01*
X002506Y007423D01*
X002239Y007533D01*
X002035Y007737D01*
X001925Y008004D01*
X001925Y008292D01*
X002025Y008533D01*
X001975Y008582D01*
X001888Y008794D01*
X001888Y012460D01*
X001975Y012671D01*
X006570Y017266D01*
X006570Y017323D01*
X006696Y017628D01*
X006930Y017862D01*
X007235Y017988D01*
X007565Y017988D01*
X007870Y017862D01*
X008104Y017628D01*
X008230Y017323D01*
X008230Y016993D01*
X008104Y016688D01*
X008074Y016658D01*
X008104Y016628D01*
X008230Y016323D01*
X008230Y015993D01*
X008104Y015688D01*
X008074Y015658D01*
X008104Y015628D01*
X008230Y015323D01*
X008230Y014993D01*
X008104Y014688D01*
X008074Y014658D01*
X008104Y014628D01*
X008230Y014323D01*
X008230Y013993D01*
X008104Y013688D01*
X008074Y013658D01*
X008104Y013628D01*
X008230Y013323D01*
X008230Y013266D01*
X008700Y012796D01*
X008787Y012585D01*
X008787Y010050D01*
X009106Y010368D01*
X009694Y010368D01*
X009829Y010233D01*
X009971Y010233D01*
X010106Y010368D01*
X010694Y010368D01*
X010781Y010281D01*
X010788Y010296D01*
X010941Y010450D01*
X010930Y010454D01*
X010696Y010688D01*
X010570Y010993D01*
X010570Y011323D01*
X010696Y011628D01*
X010726Y011658D01*
X010696Y011688D01*
X010570Y011993D01*
X010570Y012323D01*
X010696Y012628D01*
X010726Y012658D01*
X010696Y012688D01*
X010570Y012993D01*
X010570Y013323D01*
X010696Y013628D01*
X010726Y013658D01*
X010696Y013688D01*
X010570Y013993D01*
X010570Y014323D01*
X010696Y014628D01*
X010726Y014658D01*
X010696Y014688D01*
X010570Y014993D01*
X010570Y015323D01*
X010696Y015628D01*
X010726Y015658D01*
X010696Y015688D01*
X010570Y015993D01*
X010570Y016323D01*
X010696Y016628D01*
X010726Y016658D01*
X010696Y016688D01*
X010673Y016743D01*
X010413Y016483D01*
X010345Y016319D01*
X010177Y016150D01*
X009957Y016059D01*
X009718Y016059D01*
X009498Y016150D01*
X009330Y016319D01*
X009239Y016539D01*
X009239Y016777D01*
X009263Y016835D01*
X009263Y016835D01*
X009350Y017046D01*
X009512Y017208D01*
X009512Y017208D01*
X012138Y019834D01*
X012138Y020022D01*
X012225Y020234D01*
X013824Y021833D01*
X014036Y021920D01*
X014536Y021920D01*
X014593Y021944D01*
X014832Y021944D01*
X015052Y021853D01*
X015220Y021685D01*
X015311Y021465D01*
X015311Y021226D01*
X015220Y021006D01*
X015070Y020856D01*
X015302Y020760D01*
X015502Y020560D01*
X015610Y020299D01*
X015610Y019497D01*
X015502Y019236D01*
X015302Y019036D01*
X015041Y018928D01*
X014759Y018928D01*
X014498Y019036D01*
X014400Y019134D01*
X014302Y019036D01*
X014041Y018928D01*
X013759Y018928D01*
X013498Y019036D01*
X013298Y019236D01*
X013242Y019371D01*
X013200Y019270D01*
X011815Y017885D01*
X011870Y017862D01*
X011985Y017747D01*
X012106Y017868D01*
X012694Y017868D01*
X013110Y017452D01*
X013110Y016864D01*
X012904Y016658D01*
X013110Y016452D01*
X013110Y015864D01*
X012904Y015658D01*
X013110Y015452D01*
X013110Y014864D01*
X012904Y014658D01*
X013110Y014452D01*
X013110Y013864D01*
X012904Y013658D01*
X013110Y013452D01*
X013110Y012864D01*
X012904Y012658D01*
X013110Y012452D01*
X013110Y011864D01*
X012904Y011658D01*
X012995Y011567D01*
X014600Y013171D01*
X014762Y013333D01*
X014973Y013420D01*
X015224Y013420D01*
X015225Y013421D01*
X015387Y013583D01*
X015598Y013670D01*
X015883Y013670D01*
X015690Y013864D01*
X015690Y014452D01*
X015896Y014658D01*
X015690Y014864D01*
X015690Y015452D01*
X015896Y015658D01*
X015690Y015864D01*
X015690Y016452D01*
X015896Y016658D01*
X015690Y016864D01*
X015690Y017452D01*
X016106Y017868D01*
X016114Y017868D01*
X016114Y018090D01*
X016205Y018310D01*
X016373Y018478D01*
X016593Y018569D01*
X016832Y018569D01*
X016889Y018545D01*
X017137Y018545D01*
X016762Y018921D01*
X016600Y019082D01*
X016513Y019294D01*
X016513Y021295D01*
X015556Y022251D01*
X015498Y022275D01*
X015330Y022444D01*
X015286Y022549D01*
X015041Y022448D01*
X014759Y022448D01*
X014498Y022556D01*
X014298Y022756D01*
X014296Y022762D01*
X014265Y022731D01*
X014194Y022679D01*
X014115Y022639D01*
X014031Y022612D01*
X013944Y022598D01*
X013900Y022598D01*
X013900Y023158D01*
X013900Y023158D01*
X013900Y024238D01*
X013944Y024238D01*
X014031Y024224D01*
X014115Y024197D01*
X014194Y024157D01*
X014265Y024105D01*
X014296Y024074D01*
X014298Y024080D01*
X014450Y024232D01*
X014349Y024333D01*
X011174Y024333D01*
X011302Y024280D01*
X011502Y024080D01*
X011610Y023819D01*
X011610Y023017D01*
X011502Y022756D01*
X011302Y022556D01*
X011041Y022448D01*
X010759Y022448D01*
X010613Y022509D01*
X011932Y021190D01*
X011989Y021166D01*
X012158Y020997D01*
X012249Y020777D01*
X012249Y020539D01*
X012158Y020319D01*
X011989Y020150D01*
X011769Y020059D01*
X011610Y020059D01*
X011610Y019497D01*
X011502Y019236D01*
X011302Y019036D01*
X011041Y018928D01*
X010759Y018928D01*
X010498Y019036D01*
X010400Y019134D01*
X010302Y019036D01*
X010041Y018928D01*
X009759Y018928D01*
X009498Y019036D01*
X009298Y019236D01*
X009190Y019497D01*
X009190Y020299D01*
X009298Y020560D01*
X009325Y020587D01*
X009325Y020982D01*
X008162Y022145D01*
X008162Y019294D01*
X008075Y019082D01*
X007913Y018921D01*
X007476Y018483D01*
X007264Y018395D01*
X002536Y018395D01*
X002431Y018439D01*
X002408Y018381D01*
X002239Y018213D01*
X002019Y018122D01*
X001781Y018122D01*
X001561Y018213D01*
X001392Y018381D01*
X001368Y018439D01*
X000887Y018921D01*
X000800Y019007D01*
X000800Y007390D01*
X000840Y007430D01*
X000920Y007492D01*
X001008Y007542D01*
X001101Y007581D01*
X001199Y007607D01*
X001299Y007620D01*
X001350Y007620D01*
X001350Y006848D01*
X001350Y006848D01*
X002122Y006848D01*
X001350Y006848D01*
X001350Y006848D01*
X001350Y007620D01*
X001401Y007620D01*
X001501Y007607D01*
X001599Y007581D01*
X001692Y007542D01*
X001780Y007492D01*
X001860Y007430D01*
X001932Y007358D01*
X001994Y007278D01*
X002044Y007190D01*
X002083Y007097D01*
X002109Y006999D01*
X002122Y006899D01*
X002122Y006848D01*
X002122Y006797D01*
X002109Y006697D01*
X002107Y006688D01*
X002287Y006688D01*
X002551Y006617D01*
X002789Y006480D01*
X002982Y006287D01*
X003119Y006049D01*
X003190Y005785D01*
X003190Y005511D01*
X003119Y005247D01*
X002982Y005009D01*
X002789Y004816D01*
X002551Y004679D01*
X002287Y004608D01*
X002013Y004608D01*
X001749Y004679D01*
X001511Y004816D01*
X001318Y005009D01*
X001181Y005247D01*
X001110Y005511D01*
X001110Y005785D01*
X001181Y006049D01*
X001203Y006088D01*
X001199Y006089D01*
X001101Y006115D01*
X001008Y006154D01*
X000920Y006204D01*
X000840Y006266D01*
X000800Y006306D01*
X000800Y006143D02*
X001033Y006143D01*
X001110Y005745D02*
X000800Y005745D01*
X000800Y005346D02*
X001154Y005346D01*
X001380Y004948D02*
X000800Y004948D01*
X000800Y004549D02*
X008825Y004549D01*
X008825Y004151D02*
X000800Y004151D01*
X000800Y003752D02*
X008690Y003752D01*
X008690Y003952D02*
X008690Y003364D01*
X009106Y002948D01*
X009694Y002948D01*
X010006Y003260D01*
X010168Y003098D01*
X010400Y003098D01*
X010632Y003098D01*
X010960Y003426D01*
X010960Y003658D01*
X010960Y003890D01*
X010632Y004218D01*
X010400Y004218D01*
X010400Y003658D01*
X010400Y003658D01*
X010960Y003658D01*
X010400Y003658D01*
X010400Y003658D01*
X010400Y004218D01*
X010168Y004218D01*
X010006Y004056D01*
X009975Y004087D01*
X009975Y005229D01*
X010006Y005260D01*
X010168Y005098D01*
X010400Y005098D01*
X010632Y005098D01*
X010960Y005426D01*
X010960Y005658D01*
X010960Y005890D01*
X010632Y006218D01*
X010400Y006218D01*
X010400Y005658D01*
X010400Y005658D01*
X010960Y005658D01*
X010400Y005658D01*
X010400Y005658D01*
X010400Y006218D01*
X010168Y006218D01*
X010006Y006056D01*
X009694Y006368D01*
X009106Y006368D01*
X008690Y005952D01*
X008690Y005364D01*
X008825Y005229D01*
X008825Y004087D01*
X008690Y003952D01*
X008700Y003354D02*
X000800Y003354D01*
X000800Y002955D02*
X009099Y002955D01*
X009701Y002955D02*
X011599Y002955D01*
X011606Y002948D02*
X012194Y002948D01*
X012506Y003260D01*
X012668Y003098D01*
X012900Y003098D01*
X013132Y003098D01*
X013460Y003426D01*
X013460Y003658D01*
X013460Y003890D01*
X013132Y004218D01*
X012900Y004218D01*
X012900Y003658D01*
X012900Y003658D01*
X013460Y003658D01*
X012900Y003658D01*
X012900Y003658D01*
X012900Y004218D01*
X012668Y004218D01*
X012506Y004056D01*
X012475Y004087D01*
X012475Y005229D01*
X012506Y005260D01*
X012668Y005098D01*
X012900Y005098D01*
X013132Y005098D01*
X013460Y005426D01*
X013460Y005658D01*
X013460Y005890D01*
X013132Y006218D01*
X012900Y006218D01*
X012900Y005658D01*
X012900Y005658D01*
X013460Y005658D01*
X012900Y005658D01*
X012900Y005658D01*
X012900Y006218D01*
X012668Y006218D01*
X012506Y006056D01*
X012194Y006368D01*
X011606Y006368D01*
X011190Y005952D01*
X011190Y005364D01*
X011325Y005229D01*
X011325Y004087D01*
X011190Y003952D01*
X011190Y003364D01*
X011606Y002948D01*
X011200Y003354D02*
X010887Y003354D01*
X010960Y003752D02*
X011190Y003752D01*
X011325Y004151D02*
X010699Y004151D01*
X010400Y004151D02*
X010400Y004151D01*
X010101Y004151D02*
X009975Y004151D01*
X009975Y004549D02*
X011325Y004549D01*
X011325Y004948D02*
X009975Y004948D01*
X010400Y005098D02*
X010400Y005658D01*
X010400Y005098D01*
X010400Y005346D02*
X010400Y005346D01*
X010400Y005658D02*
X010400Y005658D01*
X010400Y005745D02*
X010400Y005745D01*
X010400Y006143D02*
X010400Y006143D01*
X010707Y006143D02*
X011381Y006143D01*
X011190Y005745D02*
X010960Y005745D01*
X010093Y006143D02*
X009919Y006143D01*
X008881Y006143D02*
X007767Y006143D01*
X007792Y006154D02*
X007880Y006204D01*
X007960Y006266D01*
X008032Y006338D01*
X008094Y006418D01*
X008144Y006506D01*
X008183Y006599D01*
X008209Y006697D01*
X008222Y006797D01*
X008222Y006848D01*
X007450Y006848D01*
X008222Y006848D01*
X008222Y006899D01*
X008209Y006999D01*
X008183Y007097D01*
X008144Y007190D01*
X008094Y007278D01*
X008032Y007358D01*
X007960Y007430D01*
X007880Y007492D01*
X007792Y007542D01*
X007699Y007581D01*
X007601Y007607D01*
X007501Y007620D01*
X007450Y007620D01*
X007450Y006848D01*
X007450Y006848D01*
X007450Y006848D01*
X007450Y006848D01*
X006678Y006848D01*
X006678Y006797D01*
X006691Y006697D01*
X006693Y006688D01*
X006513Y006688D01*
X006249Y006617D01*
X006011Y006480D01*
X005818Y006287D01*
X005681Y006049D01*
X005610Y005785D01*
X005610Y005511D01*
X005681Y005247D01*
X005818Y005009D01*
X006011Y004816D01*
X006249Y004679D01*
X006513Y004608D01*
X006787Y004608D01*
X007051Y004679D01*
X007289Y004816D01*
X007482Y005009D01*
X007619Y005247D01*
X007690Y005511D01*
X007690Y005785D01*
X007619Y006049D01*
X007597Y006088D01*
X007601Y006089D01*
X007699Y006115D01*
X007792Y006154D01*
X007690Y005745D02*
X008690Y005745D01*
X008708Y005346D02*
X007646Y005346D01*
X007420Y004948D02*
X008825Y004948D01*
X010400Y003752D02*
X010400Y003752D01*
X010400Y003658D02*
X010400Y003098D01*
X010400Y003658D01*
X010400Y003658D01*
X010400Y003354D02*
X010400Y003354D01*
X012201Y002955D02*
X014099Y002955D01*
X014106Y002948D02*
X014694Y002948D01*
X015006Y003260D01*
X015168Y003098D01*
X015400Y003098D01*
X015632Y003098D01*
X015960Y003426D01*
X015960Y003658D01*
X015960Y003890D01*
X015632Y004218D01*
X015400Y004218D01*
X015400Y003658D01*
X015960Y003658D01*
X015400Y003658D01*
X015400Y003658D01*
X015400Y003658D01*
X015400Y003098D01*
X015400Y003658D01*
X015400Y003658D01*
X015400Y004218D01*
X015168Y004218D01*
X015006Y004056D01*
X014975Y004087D01*
X014975Y005229D01*
X015006Y005260D01*
X015168Y005098D01*
X015400Y005098D01*
X015632Y005098D01*
X015960Y005426D01*
X015960Y005658D01*
X015960Y005890D01*
X015632Y006218D01*
X015400Y006218D01*
X015400Y005658D01*
X015400Y005658D01*
X015960Y005658D01*
X015400Y005658D01*
X015400Y005658D01*
X015400Y006218D01*
X015168Y006218D01*
X015006Y006056D01*
X014694Y006368D01*
X014106Y006368D01*
X013690Y005952D01*
X013690Y005364D01*
X013825Y005229D01*
X013825Y004087D01*
X013690Y003952D01*
X013690Y003364D01*
X014106Y002948D01*
X013700Y003354D02*
X013387Y003354D01*
X013460Y003752D02*
X013690Y003752D01*
X013825Y004151D02*
X013199Y004151D01*
X012900Y004151D02*
X012900Y004151D01*
X012601Y004151D02*
X012475Y004151D01*
X012475Y004549D02*
X013825Y004549D01*
X013825Y004948D02*
X012475Y004948D01*
X012900Y005098D02*
X012900Y005658D01*
X012900Y005098D01*
X012900Y005346D02*
X012900Y005346D01*
X012900Y005658D02*
X012900Y005658D01*
X012900Y005745D02*
X012900Y005745D01*
X012900Y006143D02*
X012900Y006143D01*
X013207Y006143D02*
X013881Y006143D01*
X013690Y005745D02*
X013460Y005745D01*
X013380Y005346D02*
X013708Y005346D01*
X014975Y004948D02*
X016325Y004948D01*
X016325Y005229D02*
X016325Y004087D01*
X016190Y003952D01*
X016190Y003364D01*
X016606Y002948D01*
X017194Y002948D01*
X017506Y003260D01*
X017668Y003098D01*
X017900Y003098D01*
X018132Y003098D01*
X018460Y003426D01*
X018460Y003658D01*
X018460Y003890D01*
X018132Y004218D01*
X017900Y004218D01*
X017900Y003658D01*
X017900Y003658D01*
X018460Y003658D01*
X017900Y003658D01*
X017900Y003658D01*
X017900Y004218D01*
X017668Y004218D01*
X017506Y004056D01*
X017475Y004087D01*
X017475Y005229D01*
X017506Y005260D01*
X017668Y005098D01*
X017900Y005098D01*
X018132Y005098D01*
X018460Y005426D01*
X018460Y005658D01*
X018460Y005890D01*
X018132Y006218D01*
X017900Y006218D01*
X017900Y005658D01*
X017900Y005658D01*
X018460Y005658D01*
X017900Y005658D01*
X017900Y005658D01*
X017900Y006218D01*
X017668Y006218D01*
X017506Y006056D01*
X017194Y006368D01*
X016606Y006368D01*
X016190Y005952D01*
X016190Y005364D01*
X016325Y005229D01*
X016208Y005346D02*
X015880Y005346D01*
X015400Y005346D02*
X015400Y005346D01*
X015400Y005098D02*
X015400Y005658D01*
X015400Y005658D01*
X015400Y005098D01*
X015400Y005745D02*
X015400Y005745D01*
X015400Y006143D02*
X015400Y006143D01*
X015707Y006143D02*
X016381Y006143D01*
X016190Y005745D02*
X015960Y005745D01*
X015093Y006143D02*
X014919Y006143D01*
X014180Y006940D02*
X008217Y006940D01*
X008159Y006542D02*
X021985Y006542D01*
X022194Y006368D02*
X021606Y006368D01*
X021190Y005952D01*
X021190Y005364D01*
X021325Y005229D01*
X021325Y004087D01*
X021190Y003952D01*
X021190Y003364D01*
X021606Y002948D01*
X022194Y002948D01*
X022506Y003260D01*
X022668Y003098D01*
X022900Y003098D01*
X022900Y003658D01*
X022900Y004218D01*
X022668Y004218D01*
X022506Y004056D01*
X022475Y004087D01*
X022475Y005229D01*
X022506Y005260D01*
X022668Y005098D01*
X022900Y005098D01*
X022900Y005658D01*
X022900Y005658D01*
X022900Y006218D01*
X022668Y006218D01*
X022506Y006056D01*
X022194Y006368D01*
X022440Y006542D02*
X022703Y006542D01*
X022593Y006143D02*
X022419Y006143D01*
X022900Y006143D02*
X022900Y006143D01*
X022900Y005745D02*
X022900Y005745D01*
X022900Y005346D02*
X022900Y005346D01*
X023075Y004948D02*
X022475Y004948D01*
X022475Y004549D02*
X023075Y004549D01*
X022900Y004151D02*
X022900Y004151D01*
X022601Y004151D02*
X022475Y004151D01*
X022900Y003752D02*
X022900Y003752D01*
X022900Y003658D02*
X022900Y003658D01*
X022900Y003354D02*
X022900Y003354D01*
X023330Y002955D02*
X022201Y002955D01*
X021599Y002955D02*
X019701Y002955D01*
X019694Y002948D02*
X020006Y003260D01*
X020168Y003098D01*
X020400Y003098D01*
X020632Y003098D01*
X020960Y003426D01*
X020960Y003658D01*
X020960Y003890D01*
X020632Y004218D01*
X020400Y004218D01*
X020400Y003658D01*
X020400Y003658D01*
X020960Y003658D01*
X020400Y003658D01*
X020400Y003658D01*
X020400Y004218D01*
X020168Y004218D01*
X020006Y004056D01*
X019975Y004087D01*
X019975Y005229D01*
X020006Y005260D01*
X020168Y005098D01*
X020400Y005098D01*
X020632Y005098D01*
X020960Y005426D01*
X020960Y005658D01*
X020960Y005890D01*
X020632Y006218D01*
X020400Y006218D01*
X020400Y005658D01*
X020400Y005658D01*
X020960Y005658D01*
X020400Y005658D01*
X020400Y005658D01*
X020400Y006218D01*
X020168Y006218D01*
X020006Y006056D01*
X019694Y006368D01*
X019106Y006368D01*
X018690Y005952D01*
X018690Y005364D01*
X018825Y005229D01*
X018825Y004087D01*
X018690Y003952D01*
X018690Y003364D01*
X019106Y002948D01*
X019694Y002948D01*
X019099Y002955D02*
X017201Y002955D01*
X016599Y002955D02*
X014701Y002955D01*
X015400Y003354D02*
X015400Y003354D01*
X015400Y003752D02*
X015400Y003752D01*
X015400Y004151D02*
X015400Y004151D01*
X015699Y004151D02*
X016325Y004151D01*
X016325Y004549D02*
X014975Y004549D01*
X014975Y004151D02*
X015101Y004151D01*
X015960Y003752D02*
X016190Y003752D01*
X016200Y003354D02*
X015887Y003354D01*
X017475Y004151D02*
X017601Y004151D01*
X017900Y004151D02*
X017900Y004151D01*
X018199Y004151D02*
X018825Y004151D01*
X018825Y004549D02*
X017475Y004549D01*
X017475Y004948D02*
X018825Y004948D01*
X018708Y005346D02*
X018380Y005346D01*
X017900Y005346D02*
X017900Y005346D01*
X017900Y005098D02*
X017900Y005658D01*
X017900Y005658D01*
X017900Y005098D01*
X017900Y005745D02*
X017900Y005745D01*
X017900Y006143D02*
X017900Y006143D01*
X018207Y006143D02*
X018881Y006143D01*
X018690Y005745D02*
X018460Y005745D01*
X017593Y006143D02*
X017419Y006143D01*
X019919Y006143D02*
X020093Y006143D01*
X020400Y006143D02*
X020400Y006143D01*
X020707Y006143D02*
X021381Y006143D01*
X021190Y005745D02*
X020960Y005745D01*
X020400Y005745D02*
X020400Y005745D01*
X020400Y005658D02*
X020400Y005098D01*
X020400Y005658D01*
X020400Y005658D01*
X020400Y005346D02*
X020400Y005346D01*
X020880Y005346D02*
X021208Y005346D01*
X021325Y004948D02*
X019975Y004948D01*
X019975Y004549D02*
X021325Y004549D01*
X021325Y004151D02*
X020699Y004151D01*
X020400Y004151D02*
X020400Y004151D01*
X020101Y004151D02*
X019975Y004151D01*
X020400Y003752D02*
X020400Y003752D01*
X020400Y003658D02*
X020400Y003098D01*
X020400Y003658D01*
X020400Y003658D01*
X020400Y003354D02*
X020400Y003354D01*
X020887Y003354D02*
X021200Y003354D01*
X021190Y003752D02*
X020960Y003752D01*
X018690Y003752D02*
X018460Y003752D01*
X018387Y003354D02*
X018700Y003354D01*
X017900Y003354D02*
X017900Y003354D01*
X017900Y003098D02*
X017900Y003658D01*
X017900Y003658D01*
X017900Y003098D01*
X017900Y003752D02*
X017900Y003752D01*
X012900Y003752D02*
X012900Y003752D01*
X012900Y003658D02*
X012900Y003098D01*
X012900Y003658D01*
X012900Y003658D01*
X012900Y003354D02*
X012900Y003354D01*
X011208Y005346D02*
X010880Y005346D01*
X012419Y006143D02*
X012593Y006143D01*
X013781Y007339D02*
X008047Y007339D01*
X007450Y007339D02*
X007450Y007339D01*
X007450Y007620D02*
X007450Y006848D01*
X006678Y006848D01*
X006678Y006899D01*
X006691Y006999D01*
X006717Y007097D01*
X006756Y007190D01*
X006806Y007278D01*
X006868Y007358D01*
X006940Y007430D01*
X007020Y007492D01*
X007108Y007542D01*
X007201Y007581D01*
X007299Y007607D01*
X007399Y007620D01*
X007450Y007620D01*
X007230Y007737D02*
X013383Y007737D01*
X012984Y008136D02*
X007628Y008136D01*
X008027Y008534D02*
X011273Y008534D01*
X010875Y008933D02*
X008425Y008933D01*
X008787Y010128D02*
X008866Y010128D01*
X008787Y010527D02*
X010858Y010527D01*
X010598Y010925D02*
X008787Y010925D01*
X008787Y011324D02*
X010570Y011324D01*
X010682Y011722D02*
X008787Y011722D01*
X008787Y012121D02*
X010570Y012121D01*
X010651Y012519D02*
X008787Y012519D01*
X008579Y012918D02*
X010601Y012918D01*
X010570Y013316D02*
X008230Y013316D01*
X008115Y013715D02*
X010685Y013715D01*
X010570Y014113D02*
X008230Y014113D01*
X008152Y014512D02*
X010648Y014512D01*
X010604Y014910D02*
X008196Y014910D01*
X008230Y015309D02*
X010570Y015309D01*
X010688Y015707D02*
X008112Y015707D01*
X008230Y016106D02*
X009606Y016106D01*
X010069Y016106D02*
X010570Y016106D01*
X010645Y016504D02*
X010434Y016504D01*
X009605Y017301D02*
X008230Y017301D01*
X008193Y016903D02*
X009291Y016903D01*
X009253Y016504D02*
X008155Y016504D01*
X008032Y017700D02*
X010003Y017700D01*
X010402Y018098D02*
X000800Y018098D01*
X000800Y017700D02*
X002003Y017700D01*
X002152Y017795D02*
X001721Y017518D01*
X001386Y017131D01*
X001173Y016665D01*
X001100Y016158D01*
X001100Y016158D01*
X001173Y015651D01*
X001173Y015651D01*
X001386Y015185D01*
X001386Y015185D01*
X001721Y014798D01*
X002152Y014521D01*
X002644Y014376D01*
X003156Y014376D01*
X003648Y014521D01*
X004079Y014798D01*
X004414Y015185D01*
X004627Y015651D01*
X004700Y016158D01*
X004627Y016665D01*
X004414Y017131D01*
X004414Y017131D01*
X004079Y017518D01*
X004079Y017518D01*
X003648Y017795D01*
X003156Y017940D01*
X002644Y017940D01*
X002152Y017795D01*
X002152Y017795D01*
X001721Y017518D02*
X001721Y017518D01*
X001721Y017518D01*
X001533Y017301D02*
X000800Y017301D01*
X000800Y016903D02*
X001281Y016903D01*
X001386Y017131D02*
X001386Y017131D01*
X001173Y016665D02*
X001173Y016665D01*
X001150Y016504D02*
X000800Y016504D01*
X000800Y016106D02*
X001108Y016106D01*
X001165Y015707D02*
X000800Y015707D01*
X000800Y015309D02*
X001329Y015309D01*
X001624Y014910D02*
X000800Y014910D01*
X000800Y014512D02*
X002183Y014512D01*
X002152Y014521D02*
X002152Y014521D01*
X001721Y014798D02*
X001721Y014798D01*
X000800Y014113D02*
X003417Y014113D01*
X003617Y014512D02*
X003815Y014512D01*
X003648Y014521D02*
X003648Y014521D01*
X004079Y014798D02*
X004079Y014798D01*
X004079Y014798D01*
X004176Y014910D02*
X004214Y014910D01*
X004414Y015185D02*
X004414Y015185D01*
X004471Y015309D02*
X004612Y015309D01*
X004627Y015651D02*
X004627Y015651D01*
X004635Y015707D02*
X005011Y015707D01*
X004692Y016106D02*
X005409Y016106D01*
X005808Y016504D02*
X004650Y016504D01*
X004627Y016665D02*
X004627Y016665D01*
X004519Y016903D02*
X006206Y016903D01*
X006570Y017301D02*
X004267Y017301D01*
X003797Y017700D02*
X006768Y017700D01*
X007489Y018497D02*
X010800Y018497D01*
X011199Y018895D02*
X007888Y018895D01*
X008162Y019294D02*
X009274Y019294D01*
X009190Y019692D02*
X008162Y019692D01*
X008162Y020091D02*
X009190Y020091D01*
X009269Y020489D02*
X008162Y020489D01*
X008162Y020888D02*
X009325Y020888D01*
X009021Y021286D02*
X008162Y021286D01*
X008162Y021685D02*
X008623Y021685D01*
X008224Y022083D02*
X008162Y022083D01*
X009900Y023158D02*
X009900Y024238D01*
X009900Y023158D01*
X009900Y023158D01*
X009900Y023279D02*
X009900Y023279D01*
X009340Y023594D02*
X008250Y024684D01*
X008457Y024684D01*
X008677Y024775D01*
X008845Y024944D01*
X008851Y024957D01*
X009387Y024421D01*
X009598Y024333D01*
X010626Y024333D01*
X010498Y024280D01*
X010298Y024080D01*
X010296Y024074D01*
X010265Y024105D01*
X010194Y024157D01*
X010115Y024197D01*
X010031Y024224D01*
X009944Y024238D01*
X009900Y024238D01*
X009856Y024238D01*
X009769Y024224D01*
X009685Y024197D01*
X009606Y024157D01*
X009535Y024105D01*
X009473Y024043D01*
X009421Y023972D01*
X009381Y023893D01*
X009354Y023809D01*
X009340Y023722D01*
X009340Y023594D01*
X009340Y023677D02*
X009257Y023677D01*
X009506Y024076D02*
X008858Y024076D01*
X008460Y024474D02*
X009333Y024474D01*
X008935Y024873D02*
X008774Y024873D01*
X009900Y024076D02*
X009900Y024076D01*
X010294Y024076D02*
X010296Y024076D01*
X009900Y023677D02*
X009900Y023677D01*
X011504Y024076D02*
X013506Y024076D01*
X013535Y024105D02*
X013473Y024043D01*
X013421Y023972D01*
X013381Y023893D01*
X013354Y023809D01*
X013340Y023722D01*
X013340Y023158D01*
X013900Y023158D01*
X013900Y023158D01*
X013900Y023158D01*
X013900Y024238D01*
X013856Y024238D01*
X013769Y024224D01*
X013685Y024197D01*
X013606Y024157D01*
X013535Y024105D01*
X013900Y024076D02*
X013900Y024076D01*
X014294Y024076D02*
X014296Y024076D01*
X013900Y023677D02*
X013900Y023677D01*
X013340Y023677D02*
X011610Y023677D01*
X011610Y023279D02*
X013340Y023279D01*
X013340Y023158D02*
X013340Y023114D01*
X013354Y023027D01*
X013381Y022943D01*
X013421Y022864D01*
X013473Y022793D01*
X013535Y022731D01*
X013606Y022679D01*
X013685Y022639D01*
X013769Y022612D01*
X013856Y022598D01*
X013900Y022598D01*
X013900Y023158D01*
X013340Y023158D01*
X013413Y022880D02*
X011553Y022880D01*
X011122Y022482D02*
X014678Y022482D01*
X015122Y022482D02*
X015314Y022482D01*
X015724Y022083D02*
X011038Y022083D01*
X010678Y022482D02*
X010640Y022482D01*
X011437Y021685D02*
X013676Y021685D01*
X013277Y021286D02*
X011835Y021286D01*
X012203Y020888D02*
X012879Y020888D01*
X012480Y020489D02*
X012228Y020489D01*
X012166Y020091D02*
X011845Y020091D01*
X011996Y019692D02*
X011610Y019692D01*
X011597Y019294D02*
X011526Y019294D01*
X012427Y018497D02*
X016417Y018497D01*
X016117Y018098D02*
X012028Y018098D01*
X012863Y017700D02*
X015937Y017700D01*
X015690Y017301D02*
X013110Y017301D01*
X013110Y016903D02*
X015690Y016903D01*
X015742Y016504D02*
X013058Y016504D01*
X013110Y016106D02*
X015690Y016106D01*
X015847Y015707D02*
X012953Y015707D01*
X013110Y015309D02*
X015690Y015309D01*
X015690Y014910D02*
X013110Y014910D01*
X013051Y014512D02*
X015749Y014512D01*
X015690Y014113D02*
X013110Y014113D01*
X012961Y013715D02*
X015839Y013715D01*
X014745Y013316D02*
X013110Y013316D01*
X013110Y012918D02*
X014346Y012918D01*
X013948Y012519D02*
X013043Y012519D01*
X013110Y012121D02*
X013549Y012121D01*
X013151Y011722D02*
X012968Y011722D01*
X006853Y007339D02*
X006831Y007339D01*
X006683Y006940D02*
X006372Y006940D01*
X006118Y006542D02*
X002682Y006542D01*
X003065Y006143D02*
X005735Y006143D01*
X005610Y005745D02*
X003190Y005745D01*
X003146Y005346D02*
X005654Y005346D01*
X005880Y004948D02*
X002920Y004948D01*
X002117Y006940D02*
X005178Y006940D01*
X004719Y007339D02*
X001947Y007339D01*
X002036Y007737D02*
X000800Y007737D01*
X000800Y008136D02*
X001925Y008136D01*
X002023Y008534D02*
X000800Y008534D01*
X000800Y008933D02*
X001888Y008933D01*
X001888Y009331D02*
X000800Y009331D01*
X000800Y009730D02*
X001888Y009730D01*
X001888Y010128D02*
X000800Y010128D01*
X000800Y010527D02*
X001888Y010527D01*
X001888Y010925D02*
X000800Y010925D01*
X000800Y011324D02*
X001888Y011324D01*
X001888Y011722D02*
X000800Y011722D01*
X000800Y012121D02*
X001888Y012121D01*
X001912Y012519D02*
X000800Y012519D01*
X000800Y012918D02*
X002221Y012918D01*
X002620Y013316D02*
X000800Y013316D01*
X000800Y013715D02*
X003018Y013715D01*
X003648Y017795D02*
X003648Y017795D01*
X001311Y018497D02*
X000800Y018497D01*
X000800Y018895D02*
X000912Y018895D01*
X003610Y019545D02*
X003610Y020299D01*
X003502Y020560D01*
X003302Y020760D01*
X003041Y020868D01*
X002759Y020868D01*
X002498Y020760D01*
X002400Y020662D01*
X002302Y020760D01*
X002041Y020868D01*
X001787Y020868D01*
X001787Y022609D01*
X001856Y022598D01*
X001900Y022598D01*
X001944Y022598D01*
X002031Y022612D01*
X002115Y022639D01*
X002194Y022679D01*
X002265Y022731D01*
X002296Y022762D01*
X002298Y022756D01*
X002498Y022556D01*
X002759Y022448D01*
X003041Y022448D01*
X003302Y022556D01*
X003502Y022756D01*
X003610Y023017D01*
X003610Y023697D01*
X005325Y021982D01*
X005325Y020587D01*
X005298Y020560D01*
X005190Y020299D01*
X005190Y019545D01*
X003610Y019545D01*
X003610Y019692D02*
X005190Y019692D01*
X005190Y020091D02*
X003610Y020091D01*
X003531Y020489D02*
X005269Y020489D01*
X005325Y020888D02*
X001787Y020888D01*
X001787Y021286D02*
X005325Y021286D01*
X005325Y021685D02*
X001787Y021685D01*
X001787Y022083D02*
X005224Y022083D01*
X004826Y022482D02*
X003122Y022482D01*
X002678Y022482D02*
X001787Y022482D01*
X001900Y022598D02*
X001900Y023158D01*
X001900Y023158D01*
X001900Y024238D01*
X001944Y024238D01*
X002031Y024224D01*
X002115Y024197D01*
X002194Y024157D01*
X002265Y024105D01*
X002296Y024074D01*
X002298Y024080D01*
X002498Y024280D01*
X002759Y024388D01*
X003041Y024388D01*
X003075Y024374D01*
X003075Y026068D01*
X003061Y026053D01*
X002794Y025943D01*
X002506Y025943D01*
X002239Y026053D01*
X002035Y026257D01*
X001925Y026524D01*
X001925Y026812D01*
X002019Y027039D01*
X001975Y027082D01*
X001888Y027294D01*
X001888Y028022D01*
X001975Y028234D01*
X006913Y033171D01*
X006995Y033254D01*
X000800Y033254D01*
X000800Y029510D01*
X000840Y029550D01*
X000920Y029612D01*
X001008Y029662D01*
X001101Y029701D01*
X001199Y029727D01*
X001203Y029728D01*
X001181Y029767D01*
X001110Y030031D01*
X001110Y030305D01*
X001181Y030569D01*
X001318Y030807D01*
X001511Y031000D01*
X001749Y031137D01*
X002013Y031208D01*
X002287Y031208D01*
X002551Y031137D01*
X002789Y031000D01*
X002982Y030807D01*
X003119Y030569D01*
X003190Y030305D01*
X003190Y030031D01*
X003119Y029767D01*
X002982Y029529D01*
X002789Y029336D01*
X002551Y029199D01*
X002287Y029128D01*
X002107Y029128D01*
X002109Y029119D01*
X002122Y029019D01*
X002122Y028968D01*
X001350Y028968D01*
X002122Y028968D01*
X002122Y028917D01*
X002109Y028817D01*
X002083Y028719D01*
X002044Y028626D01*
X001994Y028538D01*
X001932Y028458D01*
X001860Y028386D01*
X001780Y028324D01*
X001692Y028274D01*
X001599Y028235D01*
X001501Y028209D01*
X001401Y028195D01*
X001350Y028195D01*
X001350Y028968D01*
X001350Y028968D01*
X001350Y028968D01*
X001350Y028195D01*
X001299Y028195D01*
X001199Y028209D01*
X001101Y028235D01*
X001008Y028274D01*
X000920Y028324D01*
X000840Y028386D01*
X000800Y028426D01*
X000800Y025342D01*
X000873Y025416D01*
X001093Y025507D01*
X001332Y025507D01*
X001552Y025416D01*
X001720Y025247D01*
X001811Y025027D01*
X001811Y024789D01*
X001787Y024731D01*
X001787Y024227D01*
X001856Y024238D01*
X001900Y024238D01*
X001900Y023158D01*
X001900Y022598D01*
X001900Y022880D02*
X001900Y022880D01*
X001900Y023158D02*
X001900Y023158D01*
X001900Y023279D02*
X001900Y023279D01*
X001900Y023677D02*
X001900Y023677D01*
X001900Y024076D02*
X001900Y024076D01*
X002294Y024076D02*
X002296Y024076D01*
X001787Y024474D02*
X003075Y024474D01*
X003075Y024873D02*
X001811Y024873D01*
X001696Y025271D02*
X003075Y025271D01*
X003075Y025670D02*
X000800Y025670D01*
X000800Y026068D02*
X002225Y026068D01*
X001949Y026467D02*
X000800Y026467D01*
X000800Y026865D02*
X001947Y026865D01*
X001900Y027264D02*
X000800Y027264D01*
X000800Y027662D02*
X001888Y027662D01*
X001903Y028061D02*
X000800Y028061D01*
X001350Y028459D02*
X001350Y028459D01*
X001350Y028858D02*
X001350Y028858D01*
X001933Y028459D02*
X002200Y028459D01*
X002115Y028858D02*
X002599Y028858D01*
X002650Y029256D02*
X002997Y029256D01*
X003054Y029655D02*
X003396Y029655D01*
X003190Y030053D02*
X003794Y030053D01*
X004193Y030452D02*
X003151Y030452D01*
X002939Y030850D02*
X004591Y030850D01*
X004990Y031249D02*
X000800Y031249D01*
X000800Y031647D02*
X005388Y031647D01*
X005787Y032046D02*
X000800Y032046D01*
X000800Y032444D02*
X006185Y032444D01*
X006584Y032843D02*
X000800Y032843D01*
X000800Y033241D02*
X006982Y033241D01*
X007638Y032270D02*
X008690Y032270D01*
X008690Y031864D01*
X008825Y031729D01*
X008825Y030587D01*
X008690Y030452D01*
X008690Y029864D01*
X009106Y029448D01*
X009694Y029448D01*
X009900Y029654D01*
X010106Y029448D01*
X010694Y029448D01*
X011110Y029864D01*
X011110Y030452D01*
X010694Y030868D01*
X010106Y030868D01*
X009975Y030737D01*
X009975Y031729D01*
X010006Y031760D01*
X010168Y031598D01*
X010400Y031598D01*
X010632Y031598D01*
X010960Y031926D01*
X010960Y032158D01*
X010960Y032270D01*
X011190Y032270D01*
X011190Y031864D01*
X011325Y031729D01*
X011325Y030587D01*
X011190Y030452D01*
X011190Y029864D01*
X011606Y029448D01*
X012194Y029448D01*
X012400Y029654D01*
X012606Y029448D01*
X013194Y029448D01*
X013610Y029864D01*
X013610Y030452D01*
X013194Y030868D01*
X012606Y030868D01*
X012475Y030737D01*
X012475Y031729D01*
X012506Y031760D01*
X012668Y031598D01*
X012900Y031598D01*
X013132Y031598D01*
X013460Y031926D01*
X013460Y032158D01*
X013460Y032270D01*
X013690Y032270D01*
X013690Y031864D01*
X013825Y031729D01*
X013825Y030587D01*
X013690Y030452D01*
X013690Y029864D01*
X014106Y029448D01*
X014694Y029448D01*
X014900Y029654D01*
X015106Y029448D01*
X015694Y029448D01*
X016110Y029864D01*
X016110Y030452D01*
X015694Y030868D01*
X015106Y030868D01*
X014975Y030737D01*
X014975Y031729D01*
X015006Y031760D01*
X015168Y031598D01*
X015400Y031598D01*
X015632Y031598D01*
X015960Y031926D01*
X015960Y032158D01*
X015960Y032270D01*
X016190Y032270D01*
X016190Y031864D01*
X016325Y031729D01*
X016325Y030587D01*
X016190Y030452D01*
X016190Y029864D01*
X016606Y029448D01*
X017194Y029448D01*
X017400Y029654D01*
X017606Y029448D01*
X018194Y029448D01*
X018610Y029864D01*
X018610Y030452D01*
X018194Y030868D01*
X017606Y030868D01*
X017475Y030737D01*
X017475Y031729D01*
X017506Y031760D01*
X017668Y031598D01*
X017900Y031598D01*
X018130Y031598D01*
X018142Y031569D01*
X018311Y031400D01*
X018531Y031309D01*
X018769Y031309D01*
X018825Y031332D01*
X018825Y030587D01*
X018690Y030452D01*
X018690Y029864D01*
X019106Y029448D01*
X019694Y029448D01*
X019900Y029654D01*
X019960Y029594D01*
X018287Y027920D01*
X011473Y027920D01*
X011262Y027833D01*
X010297Y026868D01*
X010106Y026868D01*
X009971Y026733D01*
X009829Y026733D01*
X009694Y026868D01*
X009106Y026868D01*
X008836Y026598D01*
X008162Y027271D01*
X008162Y027731D01*
X008186Y027789D01*
X008186Y028027D01*
X008095Y028247D01*
X007958Y028384D01*
X007960Y028386D01*
X008032Y028458D01*
X008094Y028538D01*
X008144Y028626D01*
X008183Y028719D01*
X008209Y028817D01*
X008222Y028917D01*
X008222Y028968D01*
X007450Y028968D01*
X008222Y028968D01*
X008222Y029019D01*
X008209Y029119D01*
X008183Y029217D01*
X008144Y029310D01*
X008094Y029398D01*
X008032Y029478D01*
X007960Y029550D01*
X007880Y029612D01*
X007792Y029662D01*
X007699Y029701D01*
X007601Y029727D01*
X007597Y029728D01*
X007619Y029767D01*
X007690Y030031D01*
X007690Y030305D01*
X007619Y030569D01*
X007482Y030807D01*
X007289Y031000D01*
X007051Y031137D01*
X006787Y031208D01*
X006576Y031208D01*
X007638Y032270D01*
X007413Y032046D02*
X008690Y032046D01*
X008825Y031647D02*
X007015Y031647D01*
X006616Y031249D02*
X008825Y031249D01*
X008825Y030850D02*
X007439Y030850D01*
X007651Y030452D02*
X008690Y030452D01*
X008690Y030053D02*
X007690Y030053D01*
X007806Y029655D02*
X008899Y029655D01*
X008167Y029256D02*
X019622Y029256D01*
X019224Y028858D02*
X008215Y028858D01*
X008033Y028459D02*
X018825Y028459D01*
X018427Y028061D02*
X008173Y028061D01*
X008162Y027662D02*
X011091Y027662D01*
X010692Y027264D02*
X008170Y027264D01*
X008569Y026865D02*
X009103Y026865D01*
X009697Y026865D02*
X010103Y026865D01*
X007450Y028968D02*
X007450Y028968D01*
X007450Y028968D01*
X006678Y028968D01*
X006678Y028917D01*
X006686Y028849D01*
X006514Y028920D01*
X004661Y028920D01*
X004449Y028833D01*
X004009Y028393D01*
X004006Y028393D01*
X003739Y028283D01*
X003650Y028193D01*
X003605Y028238D01*
X005610Y030242D01*
X005610Y030031D01*
X005681Y029767D01*
X005818Y029529D01*
X006011Y029336D01*
X006249Y029199D01*
X006513Y029128D01*
X006693Y029128D01*
X006691Y029119D01*
X006678Y029019D01*
X006678Y028968D01*
X007450Y028968D01*
X006685Y028858D02*
X006666Y028858D01*
X006150Y029256D02*
X004624Y029256D01*
X004509Y028858D02*
X004225Y028858D01*
X004075Y028459D02*
X003827Y028459D01*
X005022Y029655D02*
X005746Y029655D01*
X005610Y030053D02*
X005421Y030053D01*
X001361Y030850D02*
X000800Y030850D01*
X000800Y030452D02*
X001149Y030452D01*
X001110Y030053D02*
X000800Y030053D01*
X000800Y029655D02*
X000994Y029655D01*
X004225Y026068D02*
X004239Y026053D01*
X004506Y025943D01*
X004552Y025943D01*
X005137Y025358D01*
X005348Y025270D01*
X006037Y025270D01*
X006919Y024388D01*
X006759Y024388D01*
X006498Y024280D01*
X006298Y024080D01*
X006296Y024074D01*
X006265Y024105D01*
X006194Y024157D01*
X006115Y024197D01*
X006031Y024224D01*
X005944Y024238D01*
X005900Y024238D01*
X005900Y023158D01*
X005900Y023158D01*
X005900Y024238D01*
X005856Y024238D01*
X005769Y024224D01*
X005685Y024197D01*
X005606Y024157D01*
X005535Y024105D01*
X005473Y024043D01*
X005421Y023972D01*
X005381Y023893D01*
X005354Y023809D01*
X005340Y023722D01*
X005340Y023594D01*
X004225Y024709D01*
X004225Y026068D01*
X004225Y025670D02*
X004825Y025670D01*
X005347Y025271D02*
X004225Y025271D01*
X004225Y024873D02*
X006435Y024873D01*
X006833Y024474D02*
X004460Y024474D01*
X004858Y024076D02*
X005506Y024076D01*
X005900Y024076D02*
X005900Y024076D01*
X006294Y024076D02*
X006296Y024076D01*
X005900Y023677D02*
X005900Y023677D01*
X005340Y023677D02*
X005257Y023677D01*
X005900Y023279D02*
X005900Y023279D01*
X004427Y022880D02*
X003553Y022880D01*
X003610Y023279D02*
X004029Y023279D01*
X003630Y023677D02*
X003610Y023677D01*
X010901Y029655D02*
X011399Y029655D01*
X011190Y030053D02*
X011110Y030053D01*
X011110Y030452D02*
X011190Y030452D01*
X011325Y030850D02*
X010712Y030850D01*
X010088Y030850D02*
X009975Y030850D01*
X009975Y031249D02*
X011325Y031249D01*
X011325Y031647D02*
X010681Y031647D01*
X010400Y031647D02*
X010400Y031647D01*
X010400Y031598D02*
X010400Y032158D01*
X010960Y032158D01*
X010400Y032158D01*
X010400Y032158D01*
X010400Y032158D01*
X010400Y031598D01*
X010119Y031647D02*
X009975Y031647D01*
X010400Y032046D02*
X010400Y032046D01*
X010960Y032046D02*
X011190Y032046D01*
X012475Y031647D02*
X012619Y031647D01*
X012900Y031647D02*
X012900Y031647D01*
X012900Y031598D02*
X012900Y032158D01*
X013460Y032158D01*
X012900Y032158D01*
X012900Y032158D01*
X012900Y032158D01*
X012900Y031598D01*
X013181Y031647D02*
X013825Y031647D01*
X013825Y031249D02*
X012475Y031249D01*
X012475Y030850D02*
X012588Y030850D01*
X013212Y030850D02*
X013825Y030850D01*
X013690Y030452D02*
X013610Y030452D01*
X013610Y030053D02*
X013690Y030053D01*
X013899Y029655D02*
X013401Y029655D01*
X014975Y030850D02*
X015088Y030850D01*
X014975Y031249D02*
X016325Y031249D01*
X016325Y031647D02*
X015681Y031647D01*
X015400Y031647D02*
X015400Y031647D01*
X015400Y031598D02*
X015400Y032158D01*
X015960Y032158D01*
X015400Y032158D01*
X015400Y032158D01*
X015400Y032158D01*
X015400Y031598D01*
X015119Y031647D02*
X014975Y031647D01*
X015400Y032046D02*
X015400Y032046D01*
X015960Y032046D02*
X016190Y032046D01*
X017475Y031647D02*
X017619Y031647D01*
X017900Y031647D02*
X017900Y031647D01*
X017900Y031598D02*
X017900Y032158D01*
X017900Y032158D01*
X017900Y031598D01*
X017900Y032046D02*
X017900Y032046D01*
X017475Y031249D02*
X018825Y031249D01*
X018825Y030850D02*
X018212Y030850D01*
X018610Y030452D02*
X018690Y030452D01*
X018690Y030053D02*
X018610Y030053D01*
X018401Y029655D02*
X018899Y029655D01*
X019975Y030737D02*
X019975Y031729D01*
X020006Y031760D01*
X020168Y031598D01*
X020400Y031598D01*
X020513Y031598D01*
X020513Y030868D01*
X020106Y030868D01*
X019975Y030737D01*
X019975Y030850D02*
X020088Y030850D01*
X019975Y031249D02*
X020513Y031249D01*
X020400Y031598D02*
X020400Y032158D01*
X020400Y032158D01*
X020400Y032718D01*
X020632Y032718D01*
X020671Y032679D01*
X020762Y032770D01*
X021245Y033254D01*
X018555Y033254D01*
X018976Y032833D01*
X019023Y032785D01*
X019106Y032868D01*
X019694Y032868D01*
X020006Y032556D01*
X020168Y032718D01*
X020400Y032718D01*
X020400Y032158D01*
X020400Y032158D01*
X020400Y031598D01*
X020400Y031647D02*
X020400Y031647D01*
X020119Y031647D02*
X019975Y031647D01*
X020400Y032046D02*
X020400Y032046D01*
X020400Y032444D02*
X020400Y032444D01*
X020834Y032843D02*
X019720Y032843D01*
X019080Y032843D02*
X018966Y032843D01*
X018568Y033241D02*
X021232Y033241D01*
X022900Y032158D02*
X022900Y032158D01*
X023460Y032158D01*
X023460Y032270D01*
X023690Y032270D01*
X023690Y031864D01*
X023825Y031729D01*
X023825Y030587D01*
X023690Y030452D01*
X023690Y030181D01*
X023610Y030261D01*
X023610Y030452D01*
X023194Y030868D01*
X022606Y030868D01*
X022475Y030737D01*
X022475Y031729D01*
X022506Y031760D01*
X022668Y031598D01*
X022900Y031598D01*
X023132Y031598D01*
X023460Y031926D01*
X023460Y032158D01*
X022900Y032158D01*
X022900Y032158D01*
X022900Y031598D01*
X022900Y032158D01*
X022900Y032046D02*
X022900Y032046D01*
X022900Y031647D02*
X022900Y031647D01*
X023181Y031647D02*
X023825Y031647D01*
X023825Y031249D02*
X022475Y031249D01*
X022475Y031647D02*
X022619Y031647D01*
X023460Y032046D02*
X023690Y032046D01*
X024975Y031729D02*
X024975Y031421D01*
X025031Y031444D01*
X025269Y031444D01*
X025327Y031420D01*
X025764Y031420D01*
X025976Y031333D01*
X026013Y031296D01*
X026013Y031670D01*
X025858Y031824D01*
X025632Y031598D01*
X025400Y031598D01*
X025400Y032158D01*
X025400Y032158D01*
X025400Y031598D01*
X025168Y031598D01*
X025006Y031760D01*
X024975Y031729D01*
X024975Y031647D02*
X025119Y031647D01*
X025400Y031647D02*
X025400Y031647D01*
X025681Y031647D02*
X026013Y031647D01*
X025400Y032046D02*
X025400Y032046D01*
X026466Y032843D02*
X042437Y032843D01*
X042499Y032868D02*
X042238Y032760D01*
X042038Y032560D01*
X041930Y032299D01*
X041930Y032017D01*
X042038Y031756D01*
X042136Y031658D01*
X042038Y031560D01*
X041930Y031299D01*
X041930Y031017D01*
X042038Y030756D01*
X042136Y030658D01*
X042038Y030560D01*
X041930Y030299D01*
X041930Y030017D01*
X042038Y029756D01*
X042186Y029608D01*
X039267Y029608D01*
X039291Y029612D01*
X039375Y029639D01*
X039454Y029679D01*
X039525Y029731D01*
X039587Y029793D01*
X039639Y029864D01*
X039679Y029943D01*
X039706Y030027D01*
X039720Y030114D01*
X039720Y030158D01*
X039720Y030202D01*
X039706Y030289D01*
X039679Y030373D01*
X039639Y030452D01*
X041993Y030452D01*
X041999Y030850D02*
X039628Y030850D01*
X039639Y030864D02*
X039679Y030943D01*
X039706Y031027D01*
X039720Y031114D01*
X039720Y031158D01*
X039720Y031202D01*
X039706Y031289D01*
X039679Y031373D01*
X039639Y031452D01*
X039587Y031523D01*
X039525Y031585D01*
X039454Y031637D01*
X039412Y031658D01*
X039454Y031679D01*
X039525Y031731D01*
X039587Y031793D01*
X039639Y031864D01*
X039679Y031943D01*
X039706Y032027D01*
X039720Y032114D01*
X039720Y032158D01*
X039720Y032202D01*
X039706Y032289D01*
X039679Y032373D01*
X039639Y032452D01*
X039587Y032523D01*
X039525Y032585D01*
X039454Y032637D01*
X039375Y032677D01*
X039291Y032704D01*
X039204Y032718D01*
X038900Y032718D01*
X038900Y032158D01*
X038900Y032158D01*
X039720Y032158D01*
X038900Y032158D01*
X038900Y032158D01*
X038900Y031718D01*
X038900Y031158D01*
X038900Y031158D01*
X039720Y031158D01*
X038900Y031158D01*
X038900Y031158D01*
X038900Y030158D01*
X038900Y030158D01*
X039720Y030158D01*
X038900Y030158D01*
X038900Y030158D01*
X038900Y030598D01*
X038900Y031158D01*
X038900Y031158D01*
X038900Y032158D01*
X038900Y032158D01*
X038900Y032158D01*
X038080Y032158D01*
X038080Y032202D01*
X038094Y032289D01*
X038121Y032373D01*
X038161Y032452D01*
X038213Y032523D01*
X038275Y032585D01*
X038346Y032637D01*
X038425Y032677D01*
X038509Y032704D01*
X038596Y032718D01*
X038900Y032718D01*
X038900Y032158D01*
X038080Y032158D01*
X038080Y032114D01*
X038094Y032027D01*
X038121Y031943D01*
X038161Y031864D01*
X038213Y031793D01*
X038275Y031731D01*
X038346Y031679D01*
X038388Y031658D01*
X038346Y031637D01*
X038275Y031585D01*
X038213Y031523D01*
X038161Y031452D01*
X038121Y031373D01*
X038094Y031289D01*
X038080Y031202D01*
X038080Y031158D01*
X038900Y031158D01*
X038900Y031158D01*
X038080Y031158D01*
X038080Y031114D01*
X038094Y031027D01*
X038121Y030943D01*
X038161Y030864D01*
X038213Y030793D01*
X038275Y030731D01*
X038346Y030679D01*
X038388Y030658D01*
X038346Y030637D01*
X038275Y030585D01*
X038213Y030523D01*
X038161Y030452D01*
X035651Y030452D01*
X035619Y030569D02*
X035482Y030807D01*
X035289Y031000D01*
X035051Y031137D01*
X034787Y031208D01*
X034513Y031208D01*
X034249Y031137D01*
X034011Y031000D01*
X033818Y030807D01*
X033681Y030569D01*
X033610Y030305D01*
X033610Y030031D01*
X033681Y029767D01*
X033818Y029529D01*
X034011Y029336D01*
X034249Y029199D01*
X034513Y029128D01*
X034693Y029128D01*
X034691Y029119D01*
X034678Y029019D01*
X034678Y028968D01*
X034678Y028917D01*
X034686Y028849D01*
X034514Y028920D01*
X031661Y028920D01*
X031449Y028833D01*
X031009Y028393D01*
X031006Y028393D01*
X030739Y028283D01*
X030535Y028079D01*
X030425Y027812D01*
X030425Y027524D01*
X030535Y027257D01*
X030557Y027235D01*
X030515Y027229D01*
X030429Y027201D01*
X030349Y027160D01*
X030287Y027115D01*
X030287Y027231D01*
X030311Y027289D01*
X030311Y027527D01*
X030220Y027747D01*
X030052Y027916D01*
X029832Y028007D01*
X029593Y028007D01*
X029475Y027958D01*
X029475Y028205D01*
X029501Y028209D01*
X029599Y028235D01*
X029692Y028274D01*
X029780Y028324D01*
X029860Y028386D01*
X029932Y028458D01*
X029994Y028538D01*
X030044Y028626D01*
X030083Y028719D01*
X030109Y028817D01*
X030122Y028917D01*
X030122Y028968D01*
X029350Y028968D01*
X030122Y028968D01*
X030122Y029019D01*
X030109Y029119D01*
X030107Y029128D01*
X030287Y029128D01*
X030551Y029199D01*
X030789Y029336D01*
X030982Y029529D01*
X031119Y029767D01*
X031190Y030031D01*
X031190Y030305D01*
X031119Y030569D01*
X030982Y030807D01*
X030789Y031000D01*
X030551Y031137D01*
X030287Y031208D01*
X030013Y031208D01*
X029749Y031137D01*
X029511Y031000D01*
X029318Y030807D01*
X029181Y030569D01*
X029110Y030305D01*
X029110Y030031D01*
X029181Y029767D01*
X029203Y029728D01*
X029199Y029727D01*
X029101Y029701D01*
X029008Y029662D01*
X028920Y029612D01*
X028840Y029550D01*
X028768Y029478D01*
X028706Y029398D01*
X028656Y029310D01*
X028628Y029243D01*
X027162Y030709D01*
X027162Y032022D01*
X027075Y032234D01*
X026137Y033171D01*
X026055Y033254D01*
X051232Y033254D01*
X051038Y033060D01*
X050930Y032799D01*
X050930Y032517D01*
X051038Y032256D01*
X051136Y032158D01*
X051038Y032060D01*
X050930Y031799D01*
X050930Y031517D01*
X051038Y031256D01*
X051136Y031158D01*
X051038Y031060D01*
X050930Y030799D01*
X050930Y030517D01*
X051038Y030256D01*
X051136Y030158D01*
X051038Y030060D01*
X050930Y029799D01*
X050930Y029517D01*
X051038Y029256D01*
X048550Y029256D01*
X048525Y029231D02*
X048587Y029293D01*
X048639Y029364D01*
X048679Y029443D01*
X048706Y029527D01*
X048720Y029614D01*
X048720Y029658D01*
X048720Y029702D01*
X048706Y029789D01*
X048679Y029873D01*
X048639Y029952D01*
X048587Y030023D01*
X048525Y030085D01*
X048454Y030137D01*
X048412Y030158D01*
X048454Y030179D01*
X048525Y030231D01*
X048587Y030293D01*
X048639Y030364D01*
X048679Y030443D01*
X048706Y030527D01*
X048720Y030614D01*
X048720Y030658D01*
X048720Y030702D01*
X048706Y030789D01*
X048679Y030873D01*
X048639Y030952D01*
X048587Y031023D01*
X048525Y031085D01*
X048454Y031137D01*
X048412Y031158D01*
X048454Y031179D01*
X048525Y031231D01*
X048587Y031293D01*
X048639Y031364D01*
X048679Y031443D01*
X048706Y031527D01*
X048720Y031614D01*
X048720Y031658D01*
X048720Y031702D01*
X048706Y031789D01*
X048679Y031873D01*
X048639Y031952D01*
X048587Y032023D01*
X048525Y032085D01*
X048454Y032137D01*
X048412Y032158D01*
X048454Y032179D01*
X048525Y032231D01*
X048587Y032293D01*
X048639Y032364D01*
X048679Y032443D01*
X048706Y032527D01*
X048720Y032614D01*
X048720Y032658D01*
X048720Y032702D01*
X048706Y032789D01*
X048679Y032873D01*
X048639Y032952D01*
X048587Y033023D01*
X048525Y033085D01*
X048454Y033137D01*
X048375Y033177D01*
X048291Y033204D01*
X048204Y033218D01*
X047900Y033218D01*
X047900Y032658D01*
X047900Y032658D01*
X048720Y032658D01*
X047900Y032658D01*
X047900Y032658D01*
X047900Y031658D01*
X047900Y031658D01*
X048720Y031658D01*
X047900Y031658D01*
X047900Y031658D01*
X047900Y031218D01*
X047900Y030658D01*
X047900Y030658D01*
X048720Y030658D01*
X047900Y030658D01*
X047900Y030658D01*
X047900Y029658D01*
X047900Y029658D01*
X048720Y029658D01*
X047900Y029658D01*
X047900Y029658D01*
X047900Y030098D01*
X047900Y030658D01*
X047900Y030658D01*
X047900Y031658D01*
X047900Y031658D01*
X047900Y032098D01*
X047900Y032658D01*
X047900Y032658D01*
X047900Y032658D01*
X047080Y032658D01*
X047080Y032702D01*
X047094Y032789D01*
X047121Y032873D01*
X047161Y032952D01*
X047213Y033023D01*
X047275Y033085D01*
X047346Y033137D01*
X047425Y033177D01*
X047509Y033204D01*
X047596Y033218D01*
X047900Y033218D01*
X047900Y032658D01*
X047080Y032658D01*
X047080Y032614D01*
X047094Y032527D01*
X047121Y032443D01*
X047161Y032364D01*
X047213Y032293D01*
X047275Y032231D01*
X047346Y032179D01*
X047388Y032158D01*
X047346Y032137D01*
X047275Y032085D01*
X047213Y032023D01*
X047161Y031952D01*
X047121Y031873D01*
X047094Y031789D01*
X047080Y031702D01*
X047080Y031658D01*
X047900Y031658D01*
X047900Y031658D01*
X047080Y031658D01*
X047080Y031614D01*
X047094Y031527D01*
X047121Y031443D01*
X047161Y031364D01*
X047213Y031293D01*
X047275Y031231D01*
X047346Y031179D01*
X047388Y031158D01*
X047346Y031137D01*
X047275Y031085D01*
X047213Y031023D01*
X047161Y030952D01*
X047121Y030873D01*
X047094Y030789D01*
X047080Y030702D01*
X047080Y030658D01*
X047900Y030658D01*
X047900Y030658D01*
X047080Y030658D01*
X047080Y030614D01*
X047094Y030527D01*
X047121Y030443D01*
X047161Y030364D01*
X047213Y030293D01*
X047275Y030231D01*
X047346Y030179D01*
X047388Y030158D01*
X047346Y030137D01*
X047275Y030085D01*
X047213Y030023D01*
X047161Y029952D01*
X047143Y029916D01*
X045413Y031645D01*
X045202Y031733D01*
X043739Y031733D01*
X043762Y031756D01*
X043870Y032017D01*
X043870Y032299D01*
X043762Y032560D01*
X043562Y032760D01*
X043301Y032868D01*
X042499Y032868D01*
X041990Y032444D02*
X039643Y032444D01*
X039709Y032046D02*
X041930Y032046D01*
X042125Y031647D02*
X039434Y031647D01*
X039713Y031249D02*
X041930Y031249D01*
X043870Y032046D02*
X047236Y032046D01*
X047121Y032444D02*
X043810Y032444D01*
X043363Y032843D02*
X047111Y032843D01*
X047900Y032843D02*
X047900Y032843D01*
X047900Y032444D02*
X047900Y032444D01*
X047900Y032046D02*
X047900Y032046D01*
X047900Y031647D02*
X047900Y031647D01*
X047900Y031249D02*
X047900Y031249D01*
X047900Y030850D02*
X047900Y030850D01*
X047900Y030452D02*
X047900Y030452D01*
X048682Y030452D02*
X050957Y030452D01*
X050951Y030850D02*
X048686Y030850D01*
X048542Y031249D02*
X051045Y031249D01*
X050930Y031647D02*
X048720Y031647D01*
X048564Y032046D02*
X051032Y032046D01*
X050960Y032444D02*
X048679Y032444D01*
X048689Y032843D02*
X050948Y032843D01*
X051219Y033241D02*
X026068Y033241D01*
X026865Y032444D02*
X038157Y032444D01*
X038091Y032046D02*
X027153Y032046D01*
X027162Y031647D02*
X038366Y031647D01*
X038087Y031249D02*
X027162Y031249D01*
X027162Y030850D02*
X029361Y030850D01*
X029149Y030452D02*
X027420Y030452D01*
X027818Y030053D02*
X029110Y030053D01*
X028994Y029655D02*
X028217Y029655D01*
X028615Y029256D02*
X028633Y029256D01*
X029350Y028968D02*
X029350Y028968D01*
X030115Y028858D02*
X031509Y028858D01*
X031075Y028459D02*
X029933Y028459D01*
X029475Y028061D02*
X030528Y028061D01*
X030425Y027662D02*
X030256Y027662D01*
X030301Y027264D02*
X030533Y027264D01*
X030650Y027143D02*
X030650Y027143D01*
X030650Y026668D01*
X030650Y027143D01*
X030650Y026865D02*
X030650Y026865D01*
X030650Y026668D02*
X030650Y026668D01*
X030650Y026093D01*
X030695Y026093D01*
X030785Y026107D01*
X030871Y026135D01*
X030951Y026176D01*
X031025Y026229D01*
X031044Y026249D01*
X031239Y026053D01*
X031506Y025943D01*
X031794Y025943D01*
X032061Y026053D01*
X032075Y026068D01*
X032075Y025231D01*
X032163Y025020D01*
X032324Y024858D01*
X037835Y019347D01*
X037798Y019310D01*
X037796Y019304D01*
X037765Y019335D01*
X037694Y019387D01*
X037615Y019427D01*
X037531Y019454D01*
X037444Y019468D01*
X037400Y019468D01*
X037400Y018648D01*
X037400Y018648D01*
X037400Y017828D01*
X037444Y017828D01*
X037531Y017842D01*
X037615Y017869D01*
X037694Y017909D01*
X037765Y017961D01*
X037796Y017992D01*
X037798Y017986D01*
X037888Y017896D01*
X037887Y017895D01*
X037868Y017877D01*
X037811Y017853D01*
X037642Y017685D01*
X037551Y017465D01*
X037551Y017226D01*
X037642Y017006D01*
X037811Y016838D01*
X038031Y016747D01*
X038269Y016747D01*
X038478Y016833D01*
X039911Y016833D01*
X039968Y016809D01*
X040207Y016809D01*
X040427Y016900D01*
X040595Y017069D01*
X040686Y017289D01*
X040686Y017527D01*
X040612Y017707D01*
X040802Y017786D01*
X040875Y017859D01*
X040913Y017770D01*
X041074Y017608D01*
X042512Y016170D01*
X039577Y016170D01*
X039519Y016194D01*
X039281Y016194D01*
X039061Y016103D01*
X038892Y015935D01*
X038801Y015715D01*
X038801Y015476D01*
X038892Y015256D01*
X039061Y015088D01*
X039281Y014997D01*
X039519Y014997D01*
X039577Y015020D01*
X040603Y015020D01*
X040455Y014872D01*
X040364Y014652D01*
X040364Y014414D01*
X040455Y014194D01*
X040507Y014141D01*
X039913Y013546D01*
X039827Y013339D01*
X039798Y013310D01*
X039796Y013304D01*
X039765Y013335D01*
X039694Y013387D01*
X039615Y013427D01*
X039531Y013454D01*
X039444Y013468D01*
X039400Y013468D01*
X039400Y012648D01*
X039400Y012648D01*
X039400Y013468D01*
X039356Y013468D01*
X039269Y013454D01*
X039185Y013427D01*
X039106Y013387D01*
X039035Y013335D01*
X039004Y013304D01*
X039002Y013310D01*
X038802Y013510D01*
X038541Y013618D01*
X038259Y013618D01*
X037998Y013510D01*
X037900Y013412D01*
X037802Y013510D01*
X037541Y013618D01*
X037259Y013618D01*
X036998Y013510D01*
X036900Y013412D01*
X036802Y013510D01*
X036541Y013618D01*
X036441Y013618D01*
X036016Y014043D01*
X036155Y014043D01*
X036411Y014300D01*
X036561Y014150D01*
X036781Y014059D01*
X037019Y014059D01*
X037239Y014150D01*
X037283Y014194D01*
X037583Y013893D01*
X038217Y013893D01*
X038665Y014341D01*
X038665Y014975D01*
X038475Y015165D01*
X038475Y015272D01*
X038387Y015484D01*
X038226Y015645D01*
X038226Y015645D01*
X037110Y016761D01*
X037110Y016799D01*
X037002Y017060D01*
X036975Y017087D01*
X036975Y017959D01*
X037002Y017986D01*
X037004Y017992D01*
X037035Y017961D01*
X037106Y017909D01*
X037185Y017869D01*
X037269Y017842D01*
X037356Y017828D01*
X037400Y017828D01*
X037400Y018648D01*
X037400Y018648D01*
X037400Y019468D01*
X037356Y019468D01*
X037269Y019454D01*
X037185Y019427D01*
X037106Y019387D01*
X037035Y019335D01*
X037004Y019304D01*
X037002Y019310D01*
X036802Y019510D01*
X036541Y019618D01*
X036259Y019618D01*
X035998Y019510D01*
X035900Y019412D01*
X035802Y019510D01*
X035541Y019618D01*
X035259Y019618D01*
X034998Y019510D01*
X034900Y019412D01*
X034802Y019510D01*
X034541Y019618D01*
X034259Y019618D01*
X033998Y019510D01*
X033900Y019412D01*
X033802Y019510D01*
X033541Y019618D01*
X033259Y019618D01*
X032998Y019510D01*
X032900Y019412D01*
X032840Y019472D01*
X033513Y020145D01*
X034023Y020145D01*
X034259Y020048D01*
X034541Y020048D01*
X034802Y020156D01*
X035002Y020356D01*
X035110Y020617D01*
X035110Y020899D01*
X035002Y021160D01*
X034898Y021264D01*
X034960Y021326D01*
X034960Y021558D01*
X034960Y021790D01*
X034632Y022118D01*
X034400Y022118D01*
X034400Y021558D01*
X034400Y021558D01*
X034960Y021558D01*
X034400Y021558D01*
X034400Y021558D01*
X034400Y021558D01*
X033840Y021558D01*
X033840Y021790D01*
X034168Y022118D01*
X034400Y022118D01*
X034400Y021558D01*
X034400Y021468D01*
X034400Y021468D01*
X034400Y021558D01*
X034400Y021558D01*
X033840Y021558D01*
X033840Y021326D01*
X033871Y021295D01*
X033161Y021295D01*
X032949Y021208D01*
X032788Y021046D01*
X031359Y019618D01*
X031259Y019618D01*
X030998Y019510D01*
X030975Y019487D01*
X030975Y021272D01*
X030887Y021484D01*
X030745Y021627D01*
X030802Y021650D01*
X030970Y021819D01*
X031061Y022039D01*
X031061Y022277D01*
X031037Y022335D01*
X031037Y023147D01*
X030950Y023359D01*
X029226Y025082D01*
X029239Y025088D01*
X029408Y025256D01*
X029454Y025367D01*
X029593Y025309D01*
X029832Y025309D01*
X030052Y025400D01*
X030220Y025569D01*
X030311Y025789D01*
X030311Y026027D01*
X030287Y026085D01*
X030287Y026221D01*
X030349Y026176D01*
X030429Y026135D01*
X030515Y026107D01*
X030605Y026093D01*
X030650Y026093D01*
X030650Y026668D01*
X030650Y026668D01*
X030650Y026467D02*
X030650Y026467D01*
X030294Y026068D02*
X031225Y026068D01*
X032075Y025670D02*
X030262Y025670D01*
X029414Y025271D02*
X032075Y025271D01*
X032310Y024873D02*
X029436Y024873D01*
X029835Y024474D02*
X032708Y024474D01*
X033107Y024076D02*
X030233Y024076D01*
X030632Y023677D02*
X033505Y023677D01*
X033904Y023279D02*
X030983Y023279D01*
X031037Y022880D02*
X034302Y022880D01*
X034701Y022482D02*
X031037Y022482D01*
X031061Y022083D02*
X034133Y022083D01*
X034400Y022083D02*
X034400Y022083D01*
X034667Y022083D02*
X035099Y022083D01*
X034960Y021685D02*
X035498Y021685D01*
X035896Y021286D02*
X034920Y021286D01*
X035110Y020888D02*
X036295Y020888D01*
X036693Y020489D02*
X035057Y020489D01*
X034644Y020091D02*
X037092Y020091D01*
X037490Y019692D02*
X033060Y019692D01*
X033458Y020091D02*
X034156Y020091D01*
X032629Y020888D02*
X030975Y020888D01*
X030969Y021286D02*
X033138Y021286D01*
X033840Y021685D02*
X030836Y021685D01*
X030975Y020489D02*
X032230Y020489D01*
X031832Y020091D02*
X030975Y020091D01*
X030975Y019692D02*
X031433Y019692D01*
X034400Y021685D02*
X034400Y021685D01*
X037400Y019294D02*
X037400Y019294D01*
X037400Y018895D02*
X037400Y018895D01*
X037400Y018497D02*
X037400Y018497D01*
X037400Y018098D02*
X037400Y018098D01*
X037657Y017700D02*
X036975Y017700D01*
X036975Y017301D02*
X037551Y017301D01*
X037746Y016903D02*
X037067Y016903D01*
X037367Y016504D02*
X042178Y016504D01*
X041780Y016903D02*
X040429Y016903D01*
X040686Y017301D02*
X041381Y017301D01*
X040983Y017700D02*
X040615Y017700D01*
X039066Y016106D02*
X037766Y016106D01*
X038164Y015707D02*
X038801Y015707D01*
X038871Y015309D02*
X038460Y015309D01*
X038665Y014910D02*
X040493Y014910D01*
X040364Y014512D02*
X038665Y014512D01*
X038437Y014113D02*
X040479Y014113D01*
X040081Y013715D02*
X036344Y013715D01*
X036225Y014113D02*
X036651Y014113D01*
X037149Y014113D02*
X037363Y014113D01*
X038996Y013316D02*
X039016Y013316D01*
X039400Y013316D02*
X039400Y013316D01*
X039784Y013316D02*
X039804Y013316D01*
X039400Y012918D02*
X039400Y012918D01*
X035900Y014658D02*
X035285Y014658D01*
X034900Y014658D01*
X035900Y014658D01*
X035900Y014658D01*
X034900Y014658D02*
X034900Y014658D01*
X020876Y021420D02*
X019473Y021420D01*
X019262Y021333D01*
X018797Y020868D01*
X018759Y020868D01*
X018498Y020760D01*
X018475Y020737D01*
X018475Y021710D01*
X018387Y021921D01*
X017654Y022655D01*
X017685Y022639D01*
X017769Y022612D01*
X017856Y022598D01*
X017900Y022598D01*
X017944Y022598D01*
X018031Y022612D01*
X018115Y022639D01*
X018194Y022679D01*
X018265Y022731D01*
X018296Y022762D01*
X018298Y022756D01*
X018498Y022556D01*
X018759Y022448D01*
X019041Y022448D01*
X019302Y022556D01*
X019502Y022756D01*
X019590Y022968D01*
X020801Y021756D01*
X020801Y021601D01*
X020876Y021420D01*
X020801Y021685D02*
X018475Y021685D01*
X018475Y021286D02*
X019215Y021286D01*
X018816Y020888D02*
X018475Y020888D01*
X018226Y022083D02*
X020474Y022083D01*
X020076Y022482D02*
X019122Y022482D01*
X018678Y022482D02*
X017827Y022482D01*
X017900Y022598D02*
X017900Y023158D01*
X017900Y023158D01*
X017900Y024238D01*
X017944Y024238D01*
X018031Y024224D01*
X018115Y024197D01*
X018194Y024157D01*
X018265Y024105D01*
X018296Y024074D01*
X018298Y024080D01*
X018450Y024232D01*
X017787Y024895D01*
X017262Y024895D01*
X017364Y024853D01*
X017533Y024685D01*
X017624Y024465D01*
X017624Y024226D01*
X017590Y024145D01*
X017606Y024157D01*
X017685Y024197D01*
X017769Y024224D01*
X017856Y024238D01*
X017900Y024238D01*
X017900Y023158D01*
X017900Y022598D01*
X017900Y022880D02*
X017900Y022880D01*
X017900Y023158D02*
X017900Y023158D01*
X017900Y023158D01*
X017340Y023158D01*
X017340Y023722D01*
X017354Y023809D01*
X017363Y023837D01*
X017144Y023747D01*
X016906Y023747D01*
X016848Y023770D01*
X016661Y023770D01*
X016452Y023857D01*
X017397Y022912D01*
X017381Y022943D01*
X017354Y023027D01*
X017340Y023114D01*
X017340Y023158D01*
X017900Y023158D01*
X017900Y023279D02*
X017900Y023279D01*
X017340Y023279D02*
X017030Y023279D01*
X017340Y023677D02*
X016632Y023677D01*
X017900Y023677D02*
X017900Y023677D01*
X017900Y024076D02*
X017900Y024076D01*
X018294Y024076D02*
X018296Y024076D01*
X018208Y024474D02*
X017620Y024474D01*
X017810Y024873D02*
X017318Y024873D01*
X019553Y022880D02*
X019677Y022880D01*
X016513Y021286D02*
X015311Y021286D01*
X015220Y021685D02*
X016123Y021685D01*
X016513Y020888D02*
X015101Y020888D01*
X015531Y020489D02*
X016513Y020489D01*
X016513Y020091D02*
X015610Y020091D01*
X015610Y019692D02*
X016513Y019692D01*
X016513Y019294D02*
X015526Y019294D01*
X016787Y018895D02*
X012825Y018895D01*
X013210Y019294D02*
X013274Y019294D01*
X013900Y022880D02*
X013900Y022880D01*
X013900Y023279D02*
X013900Y023279D01*
X015901Y029655D02*
X016399Y029655D01*
X016190Y030053D02*
X016110Y030053D01*
X016110Y030452D02*
X016190Y030452D01*
X016325Y030850D02*
X015712Y030850D01*
X017475Y030850D02*
X017588Y030850D01*
X013690Y032046D02*
X013460Y032046D01*
X012900Y032046D02*
X012900Y032046D01*
X022475Y030850D02*
X022588Y030850D01*
X023212Y030850D02*
X023825Y030850D01*
X023690Y030452D02*
X023610Y030452D01*
X030650Y029256D02*
X034150Y029256D01*
X033746Y029655D02*
X031054Y029655D01*
X031190Y030053D02*
X033610Y030053D01*
X033649Y030452D02*
X031151Y030452D01*
X030939Y030850D02*
X033861Y030850D01*
X035439Y030850D02*
X038172Y030850D01*
X038161Y030452D02*
X038121Y030373D01*
X038094Y030289D01*
X038080Y030202D01*
X038080Y030158D01*
X038900Y030158D01*
X038900Y030158D01*
X038080Y030158D01*
X038080Y030114D01*
X038094Y030027D01*
X038121Y029943D01*
X038161Y029864D01*
X038213Y029793D01*
X038275Y029731D01*
X038346Y029679D01*
X038425Y029639D01*
X038509Y029612D01*
X038535Y029608D01*
X038324Y029520D01*
X038123Y029319D01*
X037968Y029319D01*
X037748Y029228D01*
X037580Y029060D01*
X037489Y028840D01*
X037489Y028601D01*
X037580Y028381D01*
X037748Y028213D01*
X037761Y028207D01*
X037306Y027752D01*
X037248Y027728D01*
X037080Y027560D01*
X037074Y027547D01*
X036200Y028421D01*
X036089Y028532D01*
X036094Y028538D01*
X036144Y028626D01*
X036183Y028719D01*
X036209Y028817D01*
X036222Y028917D01*
X036222Y028968D01*
X035450Y028968D01*
X036222Y028968D01*
X036222Y029019D01*
X036209Y029119D01*
X036183Y029217D01*
X036144Y029310D01*
X036094Y029398D01*
X036032Y029478D01*
X035960Y029550D01*
X035880Y029612D01*
X035792Y029662D01*
X035699Y029701D01*
X035601Y029727D01*
X035597Y029728D01*
X035619Y029767D01*
X035690Y030031D01*
X035690Y030305D01*
X035619Y030569D01*
X035690Y030053D02*
X038090Y030053D01*
X038395Y029655D02*
X035806Y029655D01*
X036167Y029256D02*
X037815Y029256D01*
X037496Y028858D02*
X036215Y028858D01*
X036162Y028459D02*
X037548Y028459D01*
X037614Y028061D02*
X036561Y028061D01*
X036959Y027662D02*
X037182Y027662D01*
X035450Y028968D02*
X035450Y028968D01*
X035450Y028968D01*
X034678Y028968D01*
X035450Y028968D01*
X034685Y028858D02*
X034666Y028858D01*
X038900Y030452D02*
X038900Y030452D01*
X038900Y030850D02*
X038900Y030850D01*
X038900Y031249D02*
X038900Y031249D01*
X038900Y031647D02*
X038900Y031647D01*
X038900Y032046D02*
X038900Y032046D01*
X038900Y032444D02*
X038900Y032444D01*
X039639Y030864D02*
X039587Y030793D01*
X039525Y030731D01*
X039454Y030679D01*
X039412Y030658D01*
X039454Y030637D01*
X039525Y030585D01*
X039587Y030523D01*
X039639Y030452D01*
X039710Y030053D02*
X041930Y030053D01*
X042139Y029655D02*
X039405Y029655D01*
X045409Y031647D02*
X047080Y031647D01*
X047258Y031249D02*
X045810Y031249D01*
X046209Y030850D02*
X047114Y030850D01*
X047118Y030452D02*
X046607Y030452D01*
X047006Y030053D02*
X047243Y030053D01*
X047900Y030053D02*
X047900Y030053D01*
X047900Y029658D02*
X047900Y029098D01*
X048204Y029098D01*
X048291Y029112D01*
X048375Y029139D01*
X048454Y029179D01*
X048525Y029231D01*
X048720Y029655D02*
X050930Y029655D01*
X051035Y030053D02*
X048557Y030053D01*
X047900Y029658D02*
X047900Y029658D01*
X047900Y029098D01*
X047749Y029098D01*
X047749Y028976D01*
X047726Y028920D01*
X051014Y028920D01*
X051226Y028833D01*
X052575Y027484D01*
X052575Y027732D01*
X051413Y028895D01*
X051368Y029002D01*
X051238Y029056D01*
X051038Y029256D01*
X051166Y028858D02*
X051450Y028858D01*
X051600Y028459D02*
X051848Y028459D01*
X051998Y028061D02*
X052247Y028061D01*
X052397Y027662D02*
X052575Y027662D01*
X053725Y027662D02*
X054519Y027662D01*
X054402Y027614D02*
X054154Y027366D01*
X054020Y027043D01*
X054020Y025832D01*
X054154Y025509D01*
X054402Y025261D01*
X054725Y025128D01*
X055075Y025128D01*
X055398Y025261D01*
X055646Y025509D01*
X055780Y025832D01*
X055780Y027043D01*
X055646Y027366D01*
X055398Y027614D01*
X055075Y027748D01*
X054725Y027748D01*
X054402Y027614D01*
X054112Y027264D02*
X053725Y027264D01*
X053725Y026865D02*
X054020Y026865D01*
X054020Y026467D02*
X053725Y026467D01*
X053725Y026068D02*
X054020Y026068D01*
X054088Y025670D02*
X053725Y025670D01*
X053725Y025271D02*
X054392Y025271D01*
X053725Y025022D02*
X053725Y028085D01*
X053637Y028296D01*
X053476Y028458D01*
X052720Y029214D01*
X052762Y029256D01*
X058513Y029256D01*
X058513Y028858D02*
X057013Y028858D01*
X056993Y028877D02*
X056918Y028936D01*
X056835Y028983D01*
X056746Y029020D01*
X056654Y029045D01*
X056559Y029057D01*
X056081Y029057D01*
X055603Y029057D01*
X055508Y029045D01*
X055416Y029020D01*
X055328Y028983D01*
X055245Y028936D01*
X055169Y028877D01*
X055101Y028810D01*
X055043Y028734D01*
X054995Y028651D01*
X054958Y028562D01*
X054934Y028470D01*
X054921Y028375D01*
X054921Y028327D01*
X054921Y028279D01*
X054934Y028185D01*
X054958Y028092D01*
X054995Y028004D01*
X055043Y027921D01*
X055101Y027845D01*
X055169Y027777D01*
X055245Y027719D01*
X055328Y027671D01*
X055416Y027635D01*
X055508Y027610D01*
X055603Y027597D01*
X056081Y027597D01*
X056081Y028327D01*
X056081Y028327D01*
X056081Y027597D01*
X056559Y027597D01*
X056654Y027610D01*
X056746Y027635D01*
X056835Y027671D01*
X056918Y027719D01*
X056993Y027777D01*
X057061Y027845D01*
X057119Y027921D01*
X057167Y028004D01*
X057204Y028092D01*
X057229Y028185D01*
X057241Y028279D01*
X057241Y028327D01*
X056081Y028327D01*
X054921Y028327D01*
X056081Y028327D01*
X056081Y028327D01*
X056081Y028327D01*
X056081Y029057D01*
X056081Y028327D01*
X056081Y028327D01*
X057241Y028327D01*
X057241Y028375D01*
X057229Y028470D01*
X057204Y028562D01*
X057167Y028651D01*
X057119Y028734D01*
X057061Y028810D01*
X056993Y028877D01*
X057230Y028459D02*
X058513Y028459D01*
X058513Y028061D02*
X057191Y028061D01*
X057214Y027598D02*
X057119Y027585D01*
X057027Y027560D01*
X056939Y027524D01*
X056856Y027476D01*
X056780Y027418D01*
X056712Y027350D01*
X056654Y027274D01*
X056606Y027191D01*
X056569Y027103D01*
X056545Y027010D01*
X056532Y026915D01*
X056532Y026438D01*
X057262Y026438D01*
X057262Y027598D01*
X057214Y027598D01*
X057262Y027598D02*
X057262Y026438D01*
X057262Y026438D01*
X057262Y026438D01*
X057992Y026438D01*
X057992Y026915D01*
X057980Y027010D01*
X057955Y027103D01*
X057918Y027191D01*
X057870Y027274D01*
X057812Y027350D01*
X057745Y027418D01*
X057669Y027476D01*
X057586Y027524D01*
X057497Y027560D01*
X057405Y027585D01*
X057310Y027598D01*
X057262Y027598D01*
X057262Y027264D02*
X057262Y027264D01*
X057262Y026865D02*
X057262Y026865D01*
X056532Y026865D02*
X055780Y026865D01*
X055688Y027264D02*
X056648Y027264D01*
X056813Y027662D02*
X058513Y027662D01*
X058513Y027264D02*
X057877Y027264D01*
X057992Y026865D02*
X058513Y026865D01*
X058513Y026467D02*
X057992Y026467D01*
X057992Y026438D02*
X057262Y026438D01*
X057262Y026438D01*
X056532Y026438D01*
X056532Y025960D01*
X056545Y025865D01*
X056569Y025772D01*
X056606Y025684D01*
X056654Y025601D01*
X056712Y025525D01*
X056780Y025458D01*
X056856Y025399D01*
X056939Y025351D01*
X057027Y025315D01*
X057119Y025290D01*
X057214Y025278D01*
X057262Y025278D01*
X057262Y026438D01*
X057262Y026438D01*
X057262Y025278D01*
X057310Y025278D01*
X057405Y025290D01*
X057497Y025315D01*
X057586Y025351D01*
X057669Y025399D01*
X057745Y025458D01*
X057812Y025525D01*
X057870Y025601D01*
X057918Y025684D01*
X057955Y025772D01*
X057980Y025865D01*
X057992Y025960D01*
X057992Y026438D01*
X057992Y026068D02*
X058434Y026068D01*
X058513Y026146D02*
X055512Y023145D01*
X055350Y022984D01*
X055263Y022772D01*
X055263Y020710D01*
X055239Y020652D01*
X055239Y020414D01*
X055330Y020194D01*
X055498Y020025D01*
X055718Y019934D01*
X055957Y019934D01*
X056177Y020025D01*
X056345Y020194D01*
X056436Y020414D01*
X056436Y020652D01*
X056412Y020710D01*
X056412Y022420D01*
X057190Y023197D01*
X057190Y022864D01*
X057396Y022658D01*
X057190Y022452D01*
X057190Y021864D01*
X057396Y021658D01*
X057190Y021452D01*
X057190Y020864D01*
X057513Y020541D01*
X057513Y020218D01*
X057400Y020218D01*
X057400Y019658D01*
X057400Y019658D01*
X057400Y019658D01*
X056840Y019658D01*
X056840Y019890D01*
X057168Y020218D01*
X057400Y020218D01*
X057400Y019658D01*
X056840Y019658D01*
X056840Y019426D01*
X057002Y019264D01*
X056690Y018952D01*
X056690Y018364D01*
X057106Y017948D01*
X057694Y017948D01*
X058013Y018266D01*
X058013Y017584D01*
X057889Y017461D01*
X057632Y017718D01*
X057400Y017718D01*
X057400Y017158D01*
X057400Y017158D01*
X057400Y017158D01*
X056840Y017158D01*
X056840Y017390D01*
X057168Y017718D01*
X057400Y017718D01*
X057400Y017158D01*
X056840Y017158D01*
X056840Y016926D01*
X057002Y016764D01*
X056690Y016452D01*
X056690Y015864D01*
X057106Y015448D01*
X057694Y015448D01*
X058110Y015864D01*
X058110Y016055D01*
X058913Y016858D01*
X059055Y017000D01*
X059055Y002558D01*
X057706Y002558D01*
X058079Y002798D01*
X058414Y003185D01*
X058627Y003651D01*
X058700Y004158D01*
X058627Y004665D01*
X058414Y005131D01*
X058414Y005131D01*
X058079Y005518D01*
X058079Y005518D01*
X057648Y005795D01*
X057351Y005882D01*
X057352Y005883D01*
X057442Y005940D01*
X057526Y006006D01*
X057602Y006082D01*
X057668Y006166D01*
X057725Y006256D01*
X057772Y006353D01*
X057807Y006454D01*
X057831Y006558D01*
X057843Y006664D01*
X057843Y006691D01*
X056916Y006691D01*
X056916Y006744D01*
X056864Y006744D01*
X056864Y007671D01*
X056836Y007671D01*
X056730Y007659D01*
X056626Y007635D01*
X056525Y007599D01*
X056428Y007553D01*
X056338Y007496D01*
X056254Y007429D01*
X056178Y007354D01*
X056112Y007270D01*
X056055Y007179D01*
X056008Y007083D01*
X055973Y006982D01*
X055949Y006878D01*
X055937Y006771D01*
X055937Y006744D01*
X056864Y006744D01*
X056864Y006691D01*
X055937Y006691D01*
X055937Y006664D01*
X055949Y006558D01*
X055973Y006454D01*
X056008Y006353D01*
X056055Y006256D01*
X056112Y006166D01*
X056178Y006082D01*
X056254Y006006D01*
X056338Y005940D01*
X056428Y005883D01*
X056436Y005879D01*
X056152Y005795D01*
X055721Y005518D01*
X055386Y005131D01*
X055173Y004665D01*
X055173Y004665D01*
X055100Y004158D01*
X055100Y004158D01*
X055173Y003651D01*
X055173Y003651D01*
X055386Y003185D01*
X055386Y003185D01*
X055721Y002798D01*
X056094Y002558D01*
X048613Y002558D01*
X049637Y003582D01*
X049642Y003569D01*
X049811Y003400D01*
X050031Y003309D01*
X050269Y003309D01*
X050327Y003333D01*
X052452Y003333D01*
X052663Y003421D01*
X052825Y003582D01*
X054239Y004997D01*
X054394Y004997D01*
X054614Y005088D01*
X054783Y005256D01*
X054874Y005476D01*
X054874Y005715D01*
X054783Y005935D01*
X054614Y006103D01*
X054601Y006109D01*
X056101Y007608D01*
X056262Y007770D01*
X056350Y007981D01*
X056350Y008080D01*
X056560Y008291D01*
X056560Y008901D01*
X056267Y009194D01*
X056410Y009337D01*
X056410Y009580D01*
X055823Y009580D01*
X055823Y010167D01*
X055580Y010167D01*
X055535Y010123D01*
X055341Y010317D01*
X054730Y010317D01*
X054299Y009885D01*
X053250Y010934D01*
X053457Y010934D01*
X053677Y011025D01*
X053845Y011194D01*
X053936Y011414D01*
X053936Y011444D01*
X054512Y012020D01*
X054600Y012231D01*
X054600Y013104D01*
X054658Y013074D01*
X054752Y013044D01*
X054850Y013028D01*
X054900Y013028D01*
X054950Y013028D01*
X055048Y013044D01*
X055142Y013074D01*
X055230Y013119D01*
X055310Y013177D01*
X055355Y013222D01*
X055413Y013082D01*
X056163Y012332D01*
X056294Y012201D01*
X056254Y012170D01*
X056178Y012094D01*
X056112Y012010D01*
X056055Y011920D01*
X056008Y011823D01*
X055973Y011722D01*
X054215Y011722D01*
X053899Y011324D02*
X055946Y011324D01*
X055949Y011298D02*
X055973Y011194D01*
X056008Y011093D01*
X056055Y010996D01*
X056112Y010906D01*
X056178Y010822D01*
X056254Y010746D01*
X056338Y010680D01*
X056428Y010623D01*
X056525Y010576D01*
X056626Y010541D01*
X056667Y010532D01*
X056614Y010402D01*
X056614Y010164D01*
X056705Y009944D01*
X056873Y009775D01*
X057093Y009684D01*
X057332Y009684D01*
X057552Y009775D01*
X057720Y009944D01*
X057744Y010001D01*
X058575Y010832D01*
X058662Y011044D01*
X058662Y011835D01*
X058575Y012046D01*
X058413Y012208D01*
X057673Y012948D01*
X057694Y012948D01*
X058110Y013364D01*
X058110Y013952D01*
X057798Y014264D01*
X057960Y014426D01*
X057960Y014658D01*
X057960Y014890D01*
X057632Y015218D01*
X057400Y015218D01*
X057400Y014658D01*
X057400Y014658D01*
X057960Y014658D01*
X057400Y014658D01*
X057400Y014658D01*
X057400Y014658D01*
X056840Y014658D01*
X056840Y014890D01*
X057168Y015218D01*
X057400Y015218D01*
X057400Y014658D01*
X056840Y014658D01*
X056840Y014426D01*
X057002Y014264D01*
X056690Y013952D01*
X056690Y013431D01*
X056499Y013622D01*
X056499Y013777D01*
X056408Y013997D01*
X056239Y014166D01*
X056019Y014257D01*
X055781Y014257D01*
X055561Y014166D01*
X055415Y014020D01*
X055381Y014068D01*
X055310Y014139D01*
X055230Y014197D01*
X055142Y014242D01*
X055048Y014272D01*
X054950Y014288D01*
X054900Y014288D01*
X054900Y013658D01*
X054900Y013658D01*
X054900Y014288D01*
X054850Y014288D01*
X054752Y014272D01*
X054658Y014242D01*
X054570Y014197D01*
X054557Y014188D01*
X054512Y014296D01*
X054351Y014458D01*
X054100Y014709D01*
X054100Y019210D01*
X054012Y019421D01*
X053851Y019583D01*
X053662Y019771D01*
X053662Y020448D01*
X054194Y020448D01*
X054610Y020864D01*
X054610Y021055D01*
X055075Y021520D01*
X055162Y021731D01*
X055162Y023522D01*
X055075Y023734D01*
X054913Y023895D01*
X054476Y024333D01*
X054264Y024420D01*
X053638Y024420D01*
X053605Y024454D01*
X053658Y024506D01*
X053749Y024726D01*
X053749Y024965D01*
X053725Y025022D01*
X053749Y024873D02*
X057239Y024873D01*
X057637Y025271D02*
X055408Y025271D01*
X055712Y025670D02*
X056614Y025670D01*
X056532Y026068D02*
X055780Y026068D01*
X055780Y026467D02*
X056532Y026467D01*
X057262Y026467D02*
X057262Y026467D01*
X057262Y026068D02*
X057262Y026068D01*
X057262Y025670D02*
X057262Y025670D01*
X057910Y025670D02*
X058036Y025670D01*
X058513Y026146D02*
X058513Y030732D01*
X058186Y031059D01*
X058127Y030651D01*
X057914Y030185D01*
X057579Y029798D01*
X057579Y029798D01*
X057579Y029798D01*
X057148Y029521D01*
X057148Y029521D01*
X056656Y029376D01*
X056144Y029376D01*
X055652Y029521D01*
X055652Y029521D01*
X055221Y029798D01*
X055221Y029798D01*
X054886Y030185D01*
X054886Y030185D01*
X054673Y030651D01*
X054673Y030651D01*
X054600Y031158D01*
X054600Y031158D01*
X054673Y031665D01*
X054673Y031665D01*
X054886Y032131D01*
X054886Y032131D01*
X055221Y032518D01*
X055221Y032518D01*
X055221Y032518D01*
X055516Y032708D01*
X052870Y032708D01*
X052870Y032517D01*
X052762Y032256D01*
X052664Y032158D01*
X052762Y032060D01*
X052870Y031799D01*
X052870Y031517D01*
X052762Y031256D01*
X052664Y031158D01*
X052762Y031060D01*
X052870Y030799D01*
X052870Y030517D01*
X052762Y030256D01*
X052664Y030158D01*
X052762Y030060D01*
X052870Y029799D01*
X052870Y029517D01*
X052762Y029256D01*
X052870Y029655D02*
X055444Y029655D01*
X055000Y030053D02*
X052765Y030053D01*
X052843Y030452D02*
X054764Y030452D01*
X054644Y030850D02*
X052849Y030850D01*
X052755Y031249D02*
X054613Y031249D01*
X054670Y031647D02*
X052870Y031647D01*
X052768Y032046D02*
X054847Y032046D01*
X055157Y032444D02*
X052840Y032444D01*
X057356Y029655D02*
X058513Y029655D01*
X058513Y030053D02*
X057800Y030053D01*
X058036Y030452D02*
X058513Y030452D01*
X058395Y030850D02*
X058156Y030850D01*
X056081Y028858D02*
X056081Y028858D01*
X056081Y028459D02*
X056081Y028459D01*
X056081Y028061D02*
X056081Y028061D01*
X056081Y027662D02*
X056081Y027662D01*
X055350Y027662D02*
X055281Y027662D01*
X054971Y028061D02*
X053725Y028061D01*
X053475Y028459D02*
X054932Y028459D01*
X055149Y028858D02*
X053076Y028858D01*
X047900Y029256D02*
X047900Y029256D01*
X047900Y029655D02*
X047900Y029655D01*
X048370Y025583D02*
X048888Y025583D01*
X048888Y023734D01*
X048832Y023757D01*
X048593Y023757D01*
X048373Y023666D01*
X048370Y023662D01*
X048370Y023799D01*
X048262Y024060D01*
X048062Y024260D01*
X048056Y024262D01*
X048087Y024293D01*
X048139Y024364D01*
X048179Y024443D01*
X048206Y024527D01*
X048220Y024614D01*
X048220Y024658D01*
X048220Y024702D01*
X048206Y024789D01*
X048179Y024873D01*
X048139Y024952D01*
X048087Y025023D01*
X048056Y025054D01*
X048062Y025056D01*
X048262Y025256D01*
X048370Y025517D01*
X048370Y025583D01*
X048268Y025271D02*
X048888Y025271D01*
X048888Y024873D02*
X048179Y024873D01*
X048220Y024658D02*
X047400Y024658D01*
X047400Y024658D01*
X048220Y024658D01*
X048189Y024474D02*
X048888Y024474D01*
X048888Y024076D02*
X048247Y024076D01*
X048370Y023677D02*
X048401Y023677D01*
X053625Y024474D02*
X056840Y024474D01*
X056442Y024076D02*
X054733Y024076D01*
X055098Y023677D02*
X056043Y023677D01*
X055645Y023279D02*
X055162Y023279D01*
X055162Y022880D02*
X055307Y022880D01*
X055263Y022482D02*
X055162Y022482D01*
X055162Y022083D02*
X055263Y022083D01*
X055263Y021685D02*
X055143Y021685D01*
X055263Y021286D02*
X054841Y021286D01*
X054610Y020888D02*
X055263Y020888D01*
X055239Y020489D02*
X054235Y020489D01*
X053662Y020091D02*
X055433Y020091D01*
X056242Y020091D02*
X057041Y020091D01*
X057400Y020091D02*
X057400Y020091D01*
X057513Y020489D02*
X056436Y020489D01*
X056412Y020888D02*
X057190Y020888D01*
X057190Y021286D02*
X056412Y021286D01*
X056412Y021685D02*
X057369Y021685D01*
X057190Y022083D02*
X056412Y022083D01*
X056474Y022482D02*
X057219Y022482D01*
X057190Y022880D02*
X056873Y022880D01*
X056840Y019692D02*
X053742Y019692D01*
X054065Y019294D02*
X056973Y019294D01*
X056690Y018895D02*
X054100Y018895D01*
X054100Y018497D02*
X056690Y018497D01*
X056956Y018098D02*
X055562Y018098D01*
X055561Y018100D02*
X055342Y018319D01*
X055055Y018438D01*
X054745Y018438D01*
X054458Y018319D01*
X054239Y018100D01*
X054120Y017813D01*
X054120Y017503D01*
X054239Y017216D01*
X054458Y016997D01*
X054745Y016878D01*
X055055Y016878D01*
X055342Y016997D01*
X055561Y017216D01*
X055680Y017503D01*
X055680Y017813D01*
X055561Y018100D01*
X055680Y017700D02*
X057150Y017700D01*
X057400Y017700D02*
X057400Y017700D01*
X057650Y017700D02*
X058013Y017700D01*
X058013Y018098D02*
X057844Y018098D01*
X057400Y017301D02*
X057400Y017301D01*
X056840Y017301D02*
X055596Y017301D01*
X055114Y016903D02*
X056864Y016903D01*
X056742Y016504D02*
X054100Y016504D01*
X054100Y016903D02*
X054686Y016903D01*
X054204Y017301D02*
X054100Y017301D01*
X054100Y017700D02*
X054120Y017700D01*
X054100Y018098D02*
X054238Y018098D01*
X054100Y016106D02*
X056690Y016106D01*
X056847Y015707D02*
X054100Y015707D01*
X054100Y015309D02*
X059055Y015309D01*
X059055Y015707D02*
X057953Y015707D01*
X058161Y016106D02*
X059055Y016106D01*
X059055Y016504D02*
X058559Y016504D01*
X058958Y016903D02*
X059055Y016903D01*
X059055Y014910D02*
X057940Y014910D01*
X057960Y014512D02*
X059055Y014512D01*
X059055Y014113D02*
X057949Y014113D01*
X058110Y013715D02*
X059055Y013715D01*
X059055Y013316D02*
X058062Y013316D01*
X057704Y012918D02*
X059055Y012918D01*
X059055Y012519D02*
X058102Y012519D01*
X058501Y012121D02*
X059055Y012121D01*
X059055Y011722D02*
X058662Y011722D01*
X058662Y011324D02*
X059055Y011324D01*
X059055Y010925D02*
X058613Y010925D01*
X058269Y010527D02*
X059055Y010527D01*
X059055Y010128D02*
X057871Y010128D01*
X057441Y009730D02*
X059055Y009730D01*
X059055Y009331D02*
X056404Y009331D01*
X056410Y009580D02*
X056410Y009823D01*
X056066Y010167D01*
X055823Y010167D01*
X055823Y009580D01*
X055823Y009580D01*
X055823Y009580D01*
X056410Y009580D01*
X056410Y009730D02*
X056984Y009730D01*
X056628Y010128D02*
X056105Y010128D01*
X055823Y010128D02*
X055823Y010128D01*
X055541Y010128D02*
X055530Y010128D01*
X055823Y009730D02*
X055823Y009730D01*
X056665Y010527D02*
X053657Y010527D01*
X053259Y010925D02*
X056100Y010925D01*
X055949Y011298D02*
X055937Y011404D01*
X055937Y011432D01*
X056864Y011432D01*
X056864Y011484D01*
X055937Y011484D01*
X055937Y011512D01*
X055949Y011618D01*
X055973Y011722D01*
X056205Y012121D02*
X054554Y012121D01*
X054600Y012519D02*
X055976Y012519D01*
X055577Y012918D02*
X054600Y012918D01*
X054900Y013028D02*
X054900Y013658D01*
X054900Y013028D01*
X054900Y013316D02*
X054900Y013316D01*
X054900Y013658D02*
X054900Y013658D01*
X054900Y013715D02*
X054900Y013715D01*
X054900Y014113D02*
X054900Y014113D01*
X055336Y014113D02*
X055508Y014113D01*
X056292Y014113D02*
X056851Y014113D01*
X056840Y014512D02*
X054297Y014512D01*
X054100Y014910D02*
X056860Y014910D01*
X057400Y014910D02*
X057400Y014910D01*
X056690Y013715D02*
X056499Y013715D01*
X054541Y010128D02*
X054056Y010128D01*
X054299Y009885D02*
X054299Y009885D01*
X056529Y008933D02*
X059055Y008933D01*
X059055Y008534D02*
X056560Y008534D01*
X056405Y008136D02*
X059055Y008136D01*
X059055Y007737D02*
X056230Y007737D01*
X056166Y007339D02*
X055831Y007339D01*
X055963Y006940D02*
X055433Y006940D01*
X055034Y006542D02*
X055953Y006542D01*
X056130Y006143D02*
X054636Y006143D01*
X054862Y005745D02*
X056073Y005745D01*
X055721Y005518D02*
X055721Y005518D01*
X055572Y005346D02*
X054820Y005346D01*
X055302Y004948D02*
X054190Y004948D01*
X053792Y004549D02*
X055156Y004549D01*
X055101Y004151D02*
X053393Y004151D01*
X052995Y003752D02*
X055158Y003752D01*
X055309Y003354D02*
X052501Y003354D01*
X049924Y003354D02*
X049409Y003354D01*
X049010Y002955D02*
X055585Y002955D01*
X055721Y002798D02*
X055721Y002798D01*
X058079Y002798D02*
X058079Y002798D01*
X058079Y002798D01*
X058215Y002955D02*
X059055Y002955D01*
X059055Y003354D02*
X058491Y003354D01*
X058414Y003185D02*
X058414Y003185D01*
X058627Y003651D02*
X058627Y003651D01*
X058642Y003752D02*
X059055Y003752D01*
X059055Y004151D02*
X058699Y004151D01*
X058644Y004549D02*
X059055Y004549D01*
X059055Y004948D02*
X058498Y004948D01*
X058627Y004665D02*
X058627Y004665D01*
X058228Y005346D02*
X059055Y005346D01*
X059055Y005745D02*
X057727Y005745D01*
X057648Y005795D02*
X057648Y005795D01*
X057650Y006143D02*
X059055Y006143D01*
X059055Y006542D02*
X057827Y006542D01*
X057843Y006744D02*
X057843Y006771D01*
X057831Y006878D01*
X057807Y006982D01*
X057772Y007083D01*
X057725Y007179D01*
X057668Y007270D01*
X057602Y007354D01*
X057526Y007429D01*
X057442Y007496D01*
X057352Y007553D01*
X057255Y007599D01*
X057154Y007635D01*
X057050Y007659D01*
X056944Y007671D01*
X056916Y007671D01*
X056916Y006744D01*
X057843Y006744D01*
X057817Y006940D02*
X059055Y006940D01*
X059055Y007339D02*
X057614Y007339D01*
X056916Y007339D02*
X056864Y007339D01*
X056864Y006940D02*
X056916Y006940D01*
X057400Y019692D02*
X057400Y019692D01*
X040324Y024734D02*
X040311Y024728D01*
X040220Y024637D01*
X040220Y024658D01*
X040220Y024702D01*
X040206Y024789D01*
X040179Y024873D01*
X040173Y024884D01*
X040324Y024734D01*
X040220Y024658D02*
X039400Y024658D01*
X039400Y024658D01*
X040220Y024658D01*
X040185Y024873D02*
X040179Y024873D01*
X039400Y024658D02*
X039400Y024658D01*
X038580Y024658D01*
X038580Y024702D01*
X038594Y024789D01*
X038621Y024873D01*
X038661Y024952D01*
X038713Y025023D01*
X038744Y025054D01*
X038738Y025056D01*
X038711Y025083D01*
X038499Y025083D01*
X038499Y025039D01*
X038475Y024981D01*
X038475Y023908D01*
X038538Y024060D01*
X038738Y024260D01*
X038744Y024262D01*
X038713Y024293D01*
X038661Y024364D01*
X038621Y024443D01*
X038594Y024527D01*
X038580Y024614D01*
X038580Y024658D01*
X039400Y024658D01*
X038621Y024873D02*
X038475Y024873D01*
X038475Y024474D02*
X038611Y024474D01*
X038553Y024076D02*
X038475Y024076D01*
X007450Y006940D02*
X007450Y006940D01*
X001350Y006940D02*
X001350Y006940D01*
X001350Y007339D02*
X001350Y007339D01*
X023970Y002955D02*
X024099Y002955D01*
X024701Y002955D02*
X025575Y002955D01*
X025400Y003354D02*
X025400Y003354D01*
X025400Y003752D02*
X025400Y003752D01*
X025400Y004151D02*
X025400Y004151D01*
X025699Y004151D02*
X026075Y004151D01*
X026075Y004549D02*
X024975Y004549D01*
X024975Y004151D02*
X025101Y004151D01*
X024975Y004948D02*
X025740Y004948D01*
X025400Y005346D02*
X025400Y005346D01*
X027787Y004549D02*
X028008Y004549D01*
X027787Y004151D02*
X028407Y004151D01*
X028805Y003752D02*
X027787Y003752D01*
X027761Y003354D02*
X029204Y003354D01*
X029602Y002955D02*
X027448Y002955D01*
D24*
X026650Y003720D03*
X026088Y003283D03*
X023650Y003470D03*
X026275Y005220D03*
X022213Y007095D03*
X018775Y008345D03*
X021275Y011533D03*
X020713Y011970D03*
X026213Y009095D03*
X028150Y009470D03*
X027088Y013283D03*
X028650Y014470D03*
X030150Y016970D03*
X032400Y016158D03*
X036900Y014658D03*
X039400Y015595D03*
X040963Y014533D03*
X044275Y013845D03*
X042650Y011408D03*
X044650Y010845D03*
X047025Y010845D03*
X051213Y011158D03*
X051713Y009845D03*
X053338Y011533D03*
X053213Y012533D03*
X055900Y013658D03*
X050650Y014845D03*
X048775Y013595D03*
X049775Y016595D03*
X048275Y017095D03*
X052525Y019095D03*
X051650Y020345D03*
X055838Y020533D03*
X053150Y024845D03*
X048713Y023158D03*
X046463Y021408D03*
X046650Y020095D03*
X043150Y019658D03*
X040088Y017408D03*
X038150Y017345D03*
X030463Y022158D03*
X028275Y022283D03*
X028900Y025595D03*
X029713Y025908D03*
X029713Y027408D03*
X025150Y030845D03*
X018650Y031908D03*
X007588Y027908D03*
X008338Y025283D03*
X007588Y023533D03*
X008338Y022783D03*
X011650Y020658D03*
X014713Y021345D03*
X015838Y022783D03*
X017025Y024345D03*
X021400Y021720D03*
X022150Y024720D03*
X016713Y017970D03*
X021588Y016033D03*
X023588Y016033D03*
X009838Y016658D03*
X001900Y018720D03*
X001213Y024908D03*
X035463Y027345D03*
X036588Y026220D03*
X037588Y027220D03*
X040088Y026158D03*
X037900Y025158D03*
X040650Y024220D03*
X037900Y023470D03*
X043713Y027533D03*
X044713Y027533D03*
X044088Y028845D03*
X041463Y027720D03*
X038088Y028720D03*
X047150Y029095D03*
X048088Y026158D03*
X037275Y010470D03*
X039338Y008658D03*
X040400Y007158D03*
X041338Y006845D03*
X040775Y004283D03*
X049213Y005095D03*
X050150Y003908D03*
X051338Y004658D03*
X052650Y005845D03*
X054275Y005595D03*
X054275Y007720D03*
X057213Y010283D03*
X032213Y004283D03*
M02*
