%
M48
M72
T01C0.01378
T02C0.03150
T03C0.03200
T04C0.03500
T05C0.03740
T06C0.03937
T07C0.04400
T08C0.06300
T09C0.09055
T10C0.11811
T11C0.12800
%
T01
X187750Y83455
X222125Y70955
X262125Y90955
X281500Y94705
X270875Y132830
X286500Y144705
X301500Y169705
X324000Y161580
X369000Y146580
X394000Y155955
X409625Y145330
X442750Y138455
X426500Y114080
X446500Y108455
X470250Y108455
X512125Y111580
X517125Y98455
X533375Y115330
X532125Y125330
X559000Y136580
X506500Y148455
X487750Y135955
X497750Y165955
X482750Y170955
X525250Y190955
X516500Y203455
X558375Y205330
X531500Y248455
X487125Y231580
X464625Y214080
X466500Y200955
X431500Y196580
X400875Y174080
X381500Y173455
X304625Y221580
X282750Y222830
X289000Y255955
X297125Y259080
X297125Y274080
X251500Y308455
X186500Y319080
X75875Y279080
X83375Y252830
X75875Y235330
X83375Y227830
X116500Y206580
X147125Y213455
X158375Y227830
X170250Y243455
X214000Y217205
X221500Y247205
X167125Y179705
X215875Y160330
X235875Y160330
X207125Y119705
X212750Y115330
X262750Y52205
X266500Y37205
X260875Y32830
X236500Y34705
X322125Y42830
X393375Y86580
X404000Y71580
X413375Y68455
X407750Y42830
X492125Y50955
X501500Y39080
X513375Y46580
X526500Y58455
X542750Y55955
X542750Y77205
X572125Y102830
X372750Y104705
X379000Y234705
X406500Y242205
X379000Y251580
X365875Y262205
X375875Y272205
X354625Y273455
X380875Y287205
X414625Y277205
X400875Y261580
X437125Y275330
X447125Y275330
X440875Y288455
X471500Y290955
X480875Y261580
X98375Y166580
X19000Y187205
X12125Y249080
T02
X560811Y283273
X572622Y264375
T03
X579000Y231580
X579000Y221580
X579000Y211580
X574000Y196580
X574000Y186580
X574000Y171580
X574000Y161580
X574000Y146580
X574000Y136580
X549000Y136580
X499000Y146580
X484000Y126480
X474000Y126480
X464000Y126480
X454000Y126480
X444000Y126480
X434000Y126480
X424000Y126480
X414000Y126480
X404000Y126480
X394000Y126480
X384000Y126480
X374000Y126480
X364000Y126480
X354000Y126480
X344000Y126480
X334000Y126480
X324000Y126480
X314000Y126480
X304000Y126480
X294000Y126480
X329000Y146580
X349000Y146580
X359000Y146580
X379000Y146580
X364000Y166580
X344000Y166580
X344000Y186480
X354000Y186480
X364000Y186480
X374000Y186480
X384000Y186480
X394000Y186480
X404000Y186480
X414000Y186480
X424000Y186480
X434000Y186480
X444000Y186480
X454000Y186480
X464000Y186480
X474000Y186480
X484000Y186480
X499000Y186580
X539000Y211580
X539000Y221580
X539000Y231580
X504000Y226580
X504000Y216580
X474000Y216580
X474000Y226580
X474000Y236580
X474000Y246580
X474000Y256580
X474000Y266580
X474000Y276580
X479000Y296580
X479000Y306580
X479000Y316580
X479000Y326580
X519000Y326580
X519000Y316580
X519000Y306580
X519000Y296580
X504000Y276580
X504000Y266580
X504000Y256580
X504000Y246580
X504000Y236580
X424000Y236580
X424000Y246580
X424000Y256580
X424000Y266580
X424000Y276580
X394000Y276580
X394000Y266580
X394000Y256580
X394000Y246580
X394000Y236580
X394000Y226580
X394000Y216580
X424000Y216580
X424000Y226580
X344000Y215580
X344000Y207580
X334000Y186480
X324000Y186480
X314000Y186480
X304000Y186480
X294000Y186480
X269000Y201580
X259000Y201580
X229000Y201580
X219000Y201580
X189000Y201580
X179000Y201580
X149000Y201580
X139000Y201580
X109000Y201580
X99000Y201580
X69000Y201580
X59000Y201580
X29000Y201580
X19000Y201580
X19000Y231580
X29000Y231580
X59000Y231580
X69000Y231580
X99000Y231580
X109000Y231580
X139000Y231580
X149000Y231580
X179000Y231580
X189000Y231580
X219000Y231580
X229000Y231580
X259000Y231580
X269000Y231580
X254000Y261580
X244000Y261580
X229000Y261580
X219000Y261580
X204000Y261580
X194000Y261580
X179000Y261580
X169000Y261580
X154000Y261580
X144000Y261580
X129000Y261580
X119000Y261580
X104000Y261580
X94000Y261580
X94000Y301580
X104000Y301580
X119000Y301580
X129000Y301580
X144000Y301580
X154000Y301580
X169000Y301580
X179000Y301580
X194000Y301580
X204000Y301580
X219000Y301580
X229000Y301580
X244000Y301580
X254000Y301580
X254000Y321580
X244000Y321580
X229000Y321580
X219000Y321580
X204000Y321580
X194000Y321580
X179000Y321580
X169000Y321580
X154000Y321580
X144000Y321580
X129000Y321580
X119000Y321580
X104000Y321580
X94000Y321580
X124000Y171580
X124000Y161580
X124000Y151580
X124000Y141580
X124000Y131580
X124000Y121580
X124000Y111580
X119000Y96580
X129000Y96580
X144000Y96580
X154000Y96580
X169000Y96580
X179000Y96580
X194000Y96580
X204000Y96580
X219000Y96580
X229000Y96580
X244000Y96580
X254000Y96580
X299000Y86580
X309000Y86580
X334000Y86580
X344000Y86580
X369000Y86580
X379000Y86580
X404000Y86580
X414000Y86580
X439000Y86580
X449000Y86580
X474000Y86580
X484000Y86580
X509000Y86580
X519000Y86580
X519000Y56580
X509000Y56580
X484000Y56580
X474000Y56580
X449000Y56580
X439000Y56580
X414000Y56580
X404000Y56580
X379000Y56580
X369000Y56580
X344000Y56580
X334000Y56580
X309000Y56580
X299000Y56580
X254000Y56580
X244000Y56580
X229000Y56580
X219000Y56580
X204000Y56580
X194000Y56580
X179000Y56580
X169000Y56580
X154000Y56580
X144000Y56580
X129000Y56580
X119000Y56580
X104000Y56580
X94000Y56580
X94000Y36580
X104000Y36580
X119000Y36580
X129000Y36580
X144000Y36580
X154000Y36580
X169000Y36580
X179000Y36580
X194000Y36580
X204000Y36580
X219000Y36580
X229000Y36580
X244000Y36580
X254000Y36580
X199000Y111580
X199000Y121580
X199000Y131580
X199000Y141580
X199000Y151580
X199000Y161580
X199000Y171580
X179000Y171580
X179000Y161580
X179000Y151580
X179000Y141580
X179000Y131580
X179000Y121580
X179000Y111580
X164000Y111580
X164000Y121580
X164000Y131580
X164000Y141580
X164000Y151580
X164000Y161580
X164000Y171580
X104000Y96580
X94000Y96580
X389000Y301580
X389000Y311580
X389000Y321580
X429000Y321580
X429000Y311580
X429000Y301580
X549000Y176580
T04
X341500Y276680
X331500Y276680
X321500Y276680
X311500Y276680
X306500Y266680
X316500Y266680
X326500Y266680
X336500Y266680
X61500Y276680
X51500Y276680
X41500Y276680
X31500Y276680
X26500Y266680
X36500Y266680
X46500Y266680
X56500Y266680
X51500Y91480
X41500Y91480
X31500Y91480
X26500Y81480
X36500Y81480
X46500Y81480
X56500Y81480
X61500Y91480
T05
X550357Y95800
X558231Y95800
X558231Y85958
X550357Y85958
T06
X549000Y264375
T07
X524000Y181580
X524000Y171580
X524000Y161580
X524000Y151580
X524000Y141580
X524000Y131580
X114000Y131580
X114000Y121580
X114000Y111580
X74000Y111580
X74000Y121580
X74000Y131580
X74000Y141580
X74000Y151580
X74000Y161580
X74000Y171580
X114000Y171580
X114000Y161580
X114000Y151580
X114000Y141580
T08
X74500Y68480
X13500Y68480
X13500Y289680
X74500Y289680
X293500Y289680
X354500Y289680
T09
X568900Y114580
X568900Y67178
T10
X569000Y41580
X564000Y311580
X29000Y161580
T11
X21500Y56480
X66500Y56480
X66500Y301680
X21500Y301680
X301500Y301680
X346500Y301680
M30
