G75*
%MOIN*%
%OFA0B0*%
%FSLAX25Y25*%
%IPPOS*%
%LPD*%
%AMOC8*
5,1,8,0,0,1.08239X$1,22.5*
%
%ADD10C,0.06000*%
%ADD11OC8,0.07100*%
%ADD12C,0.08400*%
%ADD13C,0.06000*%
%ADD14C,0.12611*%
%ADD15C,0.09400*%
%ADD16OC8,0.06000*%
%ADD17C,0.07400*%
%ADD18OC8,0.06540*%
%ADD19C,0.13855*%
%ADD20C,0.08200*%
%ADD21C,0.10250*%
%ADD22C,0.06300*%
%ADD23C,0.13600*%
%ADD24C,0.03778*%
D10*
X0344000Y0166580D03*
X0364000Y0166580D03*
X0344000Y0207580D03*
D11*
X0349000Y0146580D03*
X0359000Y0146580D03*
X0379000Y0146580D03*
X0329000Y0146580D03*
X0199000Y0141580D03*
X0199000Y0131580D03*
X0199000Y0121580D03*
X0199000Y0111580D03*
X0179000Y0111580D03*
X0179000Y0121580D03*
X0179000Y0131580D03*
X0179000Y0141580D03*
X0179000Y0151580D03*
X0179000Y0161580D03*
X0179000Y0171580D03*
X0199000Y0171580D03*
X0199000Y0161580D03*
X0199000Y0151580D03*
D12*
X0114000Y0151580D03*
X0114000Y0141580D03*
X0114000Y0131580D03*
X0114000Y0121580D03*
X0114000Y0111580D03*
X0074000Y0111580D03*
X0074000Y0121580D03*
X0074000Y0131580D03*
X0074000Y0141580D03*
X0074000Y0151580D03*
X0074000Y0161580D03*
X0074000Y0171580D03*
X0114000Y0171580D03*
X0114000Y0161580D03*
D13*
X0109000Y0196380D02*
X0109000Y0201580D01*
X0099000Y0201580D02*
X0099000Y0196380D01*
X0069000Y0196380D02*
X0069000Y0201580D01*
X0059000Y0201580D02*
X0059000Y0196380D01*
X0029000Y0196380D02*
X0029000Y0201580D01*
X0019000Y0201580D02*
X0019000Y0196380D01*
X0019000Y0231580D02*
X0019000Y0236780D01*
X0029000Y0236780D02*
X0029000Y0231580D01*
X0059000Y0231580D02*
X0059000Y0236780D01*
X0069000Y0236780D02*
X0069000Y0231580D01*
X0099000Y0231580D02*
X0099000Y0236780D01*
X0109000Y0236780D02*
X0109000Y0231580D01*
X0139000Y0231580D02*
X0139000Y0236780D01*
X0149000Y0236780D02*
X0149000Y0231580D01*
X0179000Y0231580D02*
X0179000Y0236780D01*
X0189000Y0236780D02*
X0189000Y0231580D01*
X0219000Y0231580D02*
X0219000Y0236780D01*
X0229000Y0236780D02*
X0229000Y0231580D01*
X0259000Y0231580D02*
X0259000Y0236780D01*
X0269000Y0236780D02*
X0269000Y0231580D01*
X0269000Y0201580D02*
X0269000Y0196380D01*
X0259000Y0196380D02*
X0259000Y0201580D01*
X0229000Y0201580D02*
X0229000Y0196380D01*
X0219000Y0196380D02*
X0219000Y0201580D01*
X0189000Y0201580D02*
X0189000Y0196380D01*
X0179000Y0196380D02*
X0179000Y0201580D01*
X0149000Y0201580D02*
X0149000Y0196380D01*
X0139000Y0196380D02*
X0139000Y0201580D01*
X0294000Y0189080D02*
X0294000Y0183880D01*
X0304000Y0183880D02*
X0304000Y0189080D01*
X0314000Y0189080D02*
X0314000Y0183880D01*
X0324000Y0183880D02*
X0324000Y0189080D01*
X0334000Y0189080D02*
X0334000Y0183880D01*
X0344000Y0183880D02*
X0344000Y0189080D01*
X0354000Y0189080D02*
X0354000Y0183880D01*
X0364000Y0183880D02*
X0364000Y0189080D01*
X0374000Y0189080D02*
X0374000Y0183880D01*
X0384000Y0183880D02*
X0384000Y0189080D01*
X0394000Y0189080D02*
X0394000Y0183880D01*
X0404000Y0183880D02*
X0404000Y0189080D01*
X0414000Y0189080D02*
X0414000Y0183880D01*
X0424000Y0183880D02*
X0424000Y0189080D01*
X0434000Y0189080D02*
X0434000Y0183880D01*
X0444000Y0183880D02*
X0444000Y0189080D01*
X0454000Y0189080D02*
X0454000Y0183880D01*
X0464000Y0183880D02*
X0464000Y0189080D01*
X0474000Y0189080D02*
X0474000Y0183880D01*
X0484000Y0183880D02*
X0484000Y0189080D01*
X0476600Y0216580D02*
X0471400Y0216580D01*
X0471400Y0226580D02*
X0476600Y0226580D01*
X0476600Y0236580D02*
X0471400Y0236580D01*
X0471400Y0246580D02*
X0476600Y0246580D01*
X0476600Y0256580D02*
X0471400Y0256580D01*
X0471400Y0266580D02*
X0476600Y0266580D01*
X0476600Y0276580D02*
X0471400Y0276580D01*
X0476400Y0296580D02*
X0481600Y0296580D01*
X0481600Y0306580D02*
X0476400Y0306580D01*
X0476400Y0316580D02*
X0481600Y0316580D01*
X0481600Y0326580D02*
X0476400Y0326580D01*
X0516400Y0326580D02*
X0521600Y0326580D01*
X0521600Y0316580D02*
X0516400Y0316580D01*
X0516400Y0306580D02*
X0521600Y0306580D01*
X0521600Y0296580D02*
X0516400Y0296580D01*
X0506600Y0276580D02*
X0501400Y0276580D01*
X0501400Y0266580D02*
X0506600Y0266580D01*
X0506600Y0256580D02*
X0501400Y0256580D01*
X0501400Y0246580D02*
X0506600Y0246580D01*
X0506600Y0236580D02*
X0501400Y0236580D01*
X0501400Y0226580D02*
X0506600Y0226580D01*
X0506600Y0216580D02*
X0501400Y0216580D01*
X0426600Y0216580D02*
X0421400Y0216580D01*
X0421400Y0226580D02*
X0426600Y0226580D01*
X0426600Y0236580D02*
X0421400Y0236580D01*
X0421400Y0246580D02*
X0426600Y0246580D01*
X0426600Y0256580D02*
X0421400Y0256580D01*
X0421400Y0266580D02*
X0426600Y0266580D01*
X0426600Y0276580D02*
X0421400Y0276580D01*
X0396600Y0276580D02*
X0391400Y0276580D01*
X0391400Y0266580D02*
X0396600Y0266580D01*
X0396600Y0256580D02*
X0391400Y0256580D01*
X0391400Y0246580D02*
X0396600Y0246580D01*
X0396600Y0236580D02*
X0391400Y0236580D01*
X0391400Y0226580D02*
X0396600Y0226580D01*
X0396600Y0216580D02*
X0391400Y0216580D01*
X0391600Y0301580D02*
X0386400Y0301580D01*
X0386400Y0311580D02*
X0391600Y0311580D01*
X0391600Y0321580D02*
X0386400Y0321580D01*
X0426400Y0321580D02*
X0431600Y0321580D01*
X0431600Y0311580D02*
X0426400Y0311580D01*
X0426400Y0301580D02*
X0431600Y0301580D01*
X0434000Y0129080D02*
X0434000Y0123880D01*
X0444000Y0123880D02*
X0444000Y0129080D01*
X0454000Y0129080D02*
X0454000Y0123880D01*
X0464000Y0123880D02*
X0464000Y0129080D01*
X0474000Y0129080D02*
X0474000Y0123880D01*
X0484000Y0123880D02*
X0484000Y0129080D01*
X0424000Y0129080D02*
X0424000Y0123880D01*
X0414000Y0123880D02*
X0414000Y0129080D01*
X0404000Y0129080D02*
X0404000Y0123880D01*
X0394000Y0123880D02*
X0394000Y0129080D01*
X0384000Y0129080D02*
X0384000Y0123880D01*
X0374000Y0123880D02*
X0374000Y0129080D01*
X0364000Y0129080D02*
X0364000Y0123880D01*
X0354000Y0123880D02*
X0354000Y0129080D01*
X0344000Y0129080D02*
X0344000Y0123880D01*
X0334000Y0123880D02*
X0334000Y0129080D01*
X0324000Y0129080D02*
X0324000Y0123880D01*
X0314000Y0123880D02*
X0314000Y0129080D01*
X0304000Y0129080D02*
X0304000Y0123880D01*
X0294000Y0123880D02*
X0294000Y0129080D01*
X0299000Y0091780D02*
X0299000Y0086580D01*
X0309000Y0086580D02*
X0309000Y0091780D01*
X0334000Y0091780D02*
X0334000Y0086580D01*
X0344000Y0086580D02*
X0344000Y0091780D01*
X0369000Y0091780D02*
X0369000Y0086580D01*
X0379000Y0086580D02*
X0379000Y0091780D01*
X0404000Y0091780D02*
X0404000Y0086580D01*
X0414000Y0086580D02*
X0414000Y0091780D01*
X0439000Y0091780D02*
X0439000Y0086580D01*
X0449000Y0086580D02*
X0449000Y0091780D01*
X0474000Y0091780D02*
X0474000Y0086580D01*
X0484000Y0086580D02*
X0484000Y0091780D01*
X0509000Y0091780D02*
X0509000Y0086580D01*
X0519000Y0086580D02*
X0519000Y0091780D01*
X0519000Y0056580D02*
X0519000Y0051380D01*
X0509000Y0051380D02*
X0509000Y0056580D01*
X0484000Y0056580D02*
X0484000Y0051380D01*
X0474000Y0051380D02*
X0474000Y0056580D01*
X0449000Y0056580D02*
X0449000Y0051380D01*
X0439000Y0051380D02*
X0439000Y0056580D01*
X0414000Y0056580D02*
X0414000Y0051380D01*
X0404000Y0051380D02*
X0404000Y0056580D01*
X0379000Y0056580D02*
X0379000Y0051380D01*
X0369000Y0051380D02*
X0369000Y0056580D01*
X0344000Y0056580D02*
X0344000Y0051380D01*
X0334000Y0051380D02*
X0334000Y0056580D01*
X0309000Y0056580D02*
X0309000Y0051380D01*
X0299000Y0051380D02*
X0299000Y0056580D01*
D14*
X0029000Y0161580D03*
X0564000Y0311580D03*
X0569000Y0041580D03*
D15*
X0572622Y0260075D02*
X0572622Y0268675D01*
X0565111Y0283273D02*
X0556511Y0283273D01*
X0549000Y0268675D02*
X0549000Y0260075D01*
D16*
X0539000Y0231580D03*
X0539000Y0221580D03*
X0539000Y0211580D03*
X0574000Y0196580D03*
X0574000Y0186580D03*
X0574000Y0171580D03*
X0574000Y0161580D03*
X0574000Y0146580D03*
X0574000Y0136580D03*
X0499000Y0146580D03*
X0499000Y0186580D03*
X0579000Y0211580D03*
X0579000Y0221580D03*
X0579000Y0231580D03*
X0344000Y0215580D03*
X0254000Y0261580D03*
X0244000Y0261580D03*
X0229000Y0261580D03*
X0219000Y0261580D03*
X0204000Y0261580D03*
X0194000Y0261580D03*
X0179000Y0261580D03*
X0169000Y0261580D03*
X0154000Y0261580D03*
X0144000Y0261580D03*
X0129000Y0261580D03*
X0119000Y0261580D03*
X0104000Y0261580D03*
X0094000Y0261580D03*
X0094000Y0301580D03*
X0104000Y0301580D03*
X0119000Y0301580D03*
X0129000Y0301580D03*
X0144000Y0301580D03*
X0154000Y0301580D03*
X0169000Y0301580D03*
X0179000Y0301580D03*
X0194000Y0301580D03*
X0204000Y0301580D03*
X0219000Y0301580D03*
X0229000Y0301580D03*
X0244000Y0301580D03*
X0254000Y0301580D03*
X0254000Y0321580D03*
X0244000Y0321580D03*
X0229000Y0321580D03*
X0219000Y0321580D03*
X0204000Y0321580D03*
X0194000Y0321580D03*
X0179000Y0321580D03*
X0169000Y0321580D03*
X0154000Y0321580D03*
X0144000Y0321580D03*
X0129000Y0321580D03*
X0119000Y0321580D03*
X0104000Y0321580D03*
X0094000Y0321580D03*
X0124000Y0171580D03*
X0124000Y0161580D03*
X0124000Y0151580D03*
X0124000Y0141580D03*
X0124000Y0131580D03*
X0124000Y0121580D03*
X0124000Y0111580D03*
X0119000Y0096580D03*
X0129000Y0096580D03*
X0144000Y0096580D03*
X0154000Y0096580D03*
X0169000Y0096580D03*
X0179000Y0096580D03*
X0194000Y0096580D03*
X0204000Y0096580D03*
X0219000Y0096580D03*
X0229000Y0096580D03*
X0244000Y0096580D03*
X0254000Y0096580D03*
X0254000Y0056580D03*
X0244000Y0056580D03*
X0229000Y0056580D03*
X0219000Y0056580D03*
X0204000Y0056580D03*
X0194000Y0056580D03*
X0179000Y0056580D03*
X0169000Y0056580D03*
X0154000Y0056580D03*
X0144000Y0056580D03*
X0129000Y0056580D03*
X0119000Y0056580D03*
X0104000Y0056580D03*
X0094000Y0056580D03*
X0094000Y0036580D03*
X0104000Y0036580D03*
X0119000Y0036580D03*
X0129000Y0036580D03*
X0144000Y0036580D03*
X0154000Y0036580D03*
X0169000Y0036580D03*
X0179000Y0036580D03*
X0194000Y0036580D03*
X0204000Y0036580D03*
X0219000Y0036580D03*
X0229000Y0036580D03*
X0244000Y0036580D03*
X0254000Y0036580D03*
X0164000Y0111580D03*
X0164000Y0121580D03*
X0164000Y0131580D03*
X0164000Y0141580D03*
X0164000Y0151580D03*
X0164000Y0161580D03*
X0164000Y0171580D03*
X0104000Y0096580D03*
X0094000Y0096580D03*
D17*
X0549000Y0136580D03*
X0549000Y0176580D03*
D18*
X0550357Y0095800D03*
X0558231Y0095800D03*
X0558231Y0085958D03*
X0550357Y0085958D03*
D19*
X0568900Y0067178D03*
X0568900Y0114580D03*
D20*
X0527700Y0131580D02*
X0520300Y0131580D01*
X0520300Y0141580D02*
X0527700Y0141580D01*
X0527700Y0151580D02*
X0520300Y0151580D01*
X0520300Y0161580D02*
X0527700Y0161580D01*
X0527700Y0171580D02*
X0520300Y0171580D01*
X0520300Y0181580D02*
X0527700Y0181580D01*
D21*
X0354500Y0289680D03*
X0293500Y0289680D03*
X0074500Y0289680D03*
X0013500Y0289680D03*
X0013500Y0068480D03*
X0074500Y0068480D03*
D22*
X0056500Y0081480D03*
X0046500Y0081480D03*
X0036500Y0081480D03*
X0026500Y0081480D03*
X0031500Y0091480D03*
X0041500Y0091480D03*
X0051500Y0091480D03*
X0061500Y0091480D03*
X0056500Y0266680D03*
X0046500Y0266680D03*
X0036500Y0266680D03*
X0026500Y0266680D03*
X0031500Y0276680D03*
X0041500Y0276680D03*
X0051500Y0276680D03*
X0061500Y0276680D03*
X0306500Y0266680D03*
X0316500Y0266680D03*
X0326500Y0266680D03*
X0336500Y0266680D03*
X0331500Y0276680D03*
X0341500Y0276680D03*
X0321500Y0276680D03*
X0311500Y0276680D03*
D23*
X0021500Y0056480D03*
X0066500Y0056480D03*
X0066500Y0301680D03*
X0021500Y0301680D03*
X0301500Y0301680D03*
X0346500Y0301680D03*
D24*
X0380875Y0287205D03*
X0375875Y0272205D03*
X0365875Y0262205D03*
X0354625Y0273455D03*
X0379000Y0251580D03*
X0400875Y0261580D03*
X0414625Y0277205D03*
X0437125Y0275330D03*
X0447125Y0275330D03*
X0440875Y0288455D03*
X0471500Y0290955D03*
X0480875Y0261580D03*
X0487125Y0231580D03*
X0464625Y0214080D03*
X0466500Y0200955D03*
X0431500Y0196580D03*
X0400875Y0174080D03*
X0381500Y0173455D03*
X0394000Y0155955D03*
X0409625Y0145330D03*
X0442750Y0138455D03*
X0426500Y0114080D03*
X0446500Y0108455D03*
X0470250Y0108455D03*
X0512125Y0111580D03*
X0517125Y0098455D03*
X0533375Y0115330D03*
X0532125Y0125330D03*
X0559000Y0136580D03*
X0506500Y0148455D03*
X0487750Y0135955D03*
X0497750Y0165955D03*
X0482750Y0170955D03*
X0525250Y0190955D03*
X0516500Y0203455D03*
X0558375Y0205330D03*
X0531500Y0248455D03*
X0406500Y0242205D03*
X0379000Y0234705D03*
X0304625Y0221580D03*
X0282750Y0222830D03*
X0289000Y0255955D03*
X0297125Y0259080D03*
X0297125Y0274080D03*
X0251500Y0308455D03*
X0186500Y0319080D03*
X0075875Y0279080D03*
X0083375Y0252830D03*
X0075875Y0235330D03*
X0083375Y0227830D03*
X0116500Y0206580D03*
X0147125Y0213455D03*
X0158375Y0227830D03*
X0170250Y0243455D03*
X0214000Y0217205D03*
X0221500Y0247205D03*
X0167125Y0179705D03*
X0215875Y0160330D03*
X0235875Y0160330D03*
X0270875Y0132830D03*
X0286500Y0144705D03*
X0301500Y0169705D03*
X0324000Y0161580D03*
X0369000Y0146580D03*
X0372750Y0104705D03*
X0393375Y0086580D03*
X0404000Y0071580D03*
X0413375Y0068455D03*
X0407750Y0042830D03*
X0492125Y0050955D03*
X0501500Y0039080D03*
X0513375Y0046580D03*
X0526500Y0058455D03*
X0542750Y0055955D03*
X0542750Y0077205D03*
X0572125Y0102830D03*
X0322125Y0042830D03*
X0266500Y0037205D03*
X0260875Y0032830D03*
X0236500Y0034705D03*
X0262750Y0052205D03*
X0222125Y0070955D03*
X0187750Y0083455D03*
X0212750Y0115330D03*
X0207125Y0119705D03*
X0262125Y0090955D03*
X0281500Y0094705D03*
X0098375Y0166580D03*
X0019000Y0187205D03*
X0012125Y0249080D03*
M02*
