G75*
%MOIN*%
%OFA0B0*%
%FSLAX25Y25*%
%IPPOS*%
%LPD*%
%AMOC8*
5,1,8,0,0,1.08239X$1,22.5*
%
%ADD10C,0.05200*%
%ADD11OC8,0.06300*%
%ADD12C,0.07600*%
%ADD13C,0.05200*%
%ADD14C,0.08600*%
%ADD15OC8,0.05200*%
%ADD16C,0.06600*%
%ADD17OC8,0.05740*%
%ADD18C,0.13055*%
%ADD19C,0.07400*%
%ADD20C,0.09450*%
%ADD21C,0.05500*%
%ADD22C,0.02500*%
%ADD23C,0.04000*%
%ADD24C,0.02978*%
D10*
X0344000Y0166580D03*
X0364000Y0166580D03*
X0344000Y0207580D03*
D11*
X0349000Y0146580D03*
X0359000Y0146580D03*
X0379000Y0146580D03*
X0329000Y0146580D03*
X0199000Y0141580D03*
X0199000Y0131580D03*
X0199000Y0121580D03*
X0199000Y0111580D03*
X0179000Y0111580D03*
X0179000Y0121580D03*
X0179000Y0131580D03*
X0179000Y0141580D03*
X0179000Y0151580D03*
X0179000Y0161580D03*
X0179000Y0171580D03*
X0199000Y0171580D03*
X0199000Y0161580D03*
X0199000Y0151580D03*
D12*
X0114000Y0151580D03*
X0114000Y0141580D03*
X0114000Y0131580D03*
X0114000Y0121580D03*
X0114000Y0111580D03*
X0074000Y0111580D03*
X0074000Y0121580D03*
X0074000Y0131580D03*
X0074000Y0141580D03*
X0074000Y0151580D03*
X0074000Y0161580D03*
X0074000Y0171580D03*
X0114000Y0171580D03*
X0114000Y0161580D03*
D13*
X0109000Y0196380D02*
X0109000Y0201580D01*
X0099000Y0201580D02*
X0099000Y0196380D01*
X0069000Y0196380D02*
X0069000Y0201580D01*
X0059000Y0201580D02*
X0059000Y0196380D01*
X0029000Y0196380D02*
X0029000Y0201580D01*
X0019000Y0201580D02*
X0019000Y0196380D01*
X0019000Y0231580D02*
X0019000Y0236780D01*
X0029000Y0236780D02*
X0029000Y0231580D01*
X0059000Y0231580D02*
X0059000Y0236780D01*
X0069000Y0236780D02*
X0069000Y0231580D01*
X0099000Y0231580D02*
X0099000Y0236780D01*
X0109000Y0236780D02*
X0109000Y0231580D01*
X0139000Y0231580D02*
X0139000Y0236780D01*
X0149000Y0236780D02*
X0149000Y0231580D01*
X0179000Y0231580D02*
X0179000Y0236780D01*
X0189000Y0236780D02*
X0189000Y0231580D01*
X0219000Y0231580D02*
X0219000Y0236780D01*
X0229000Y0236780D02*
X0229000Y0231580D01*
X0259000Y0231580D02*
X0259000Y0236780D01*
X0269000Y0236780D02*
X0269000Y0231580D01*
X0269000Y0201580D02*
X0269000Y0196380D01*
X0259000Y0196380D02*
X0259000Y0201580D01*
X0229000Y0201580D02*
X0229000Y0196380D01*
X0219000Y0196380D02*
X0219000Y0201580D01*
X0189000Y0201580D02*
X0189000Y0196380D01*
X0179000Y0196380D02*
X0179000Y0201580D01*
X0149000Y0201580D02*
X0149000Y0196380D01*
X0139000Y0196380D02*
X0139000Y0201580D01*
X0294000Y0189080D02*
X0294000Y0183880D01*
X0304000Y0183880D02*
X0304000Y0189080D01*
X0314000Y0189080D02*
X0314000Y0183880D01*
X0324000Y0183880D02*
X0324000Y0189080D01*
X0334000Y0189080D02*
X0334000Y0183880D01*
X0344000Y0183880D02*
X0344000Y0189080D01*
X0354000Y0189080D02*
X0354000Y0183880D01*
X0364000Y0183880D02*
X0364000Y0189080D01*
X0374000Y0189080D02*
X0374000Y0183880D01*
X0384000Y0183880D02*
X0384000Y0189080D01*
X0394000Y0189080D02*
X0394000Y0183880D01*
X0404000Y0183880D02*
X0404000Y0189080D01*
X0414000Y0189080D02*
X0414000Y0183880D01*
X0424000Y0183880D02*
X0424000Y0189080D01*
X0434000Y0189080D02*
X0434000Y0183880D01*
X0444000Y0183880D02*
X0444000Y0189080D01*
X0454000Y0189080D02*
X0454000Y0183880D01*
X0464000Y0183880D02*
X0464000Y0189080D01*
X0474000Y0189080D02*
X0474000Y0183880D01*
X0484000Y0183880D02*
X0484000Y0189080D01*
X0476600Y0216580D02*
X0471400Y0216580D01*
X0471400Y0226580D02*
X0476600Y0226580D01*
X0476600Y0236580D02*
X0471400Y0236580D01*
X0471400Y0246580D02*
X0476600Y0246580D01*
X0476600Y0256580D02*
X0471400Y0256580D01*
X0471400Y0266580D02*
X0476600Y0266580D01*
X0476600Y0276580D02*
X0471400Y0276580D01*
X0476400Y0296580D02*
X0481600Y0296580D01*
X0481600Y0306580D02*
X0476400Y0306580D01*
X0476400Y0316580D02*
X0481600Y0316580D01*
X0481600Y0326580D02*
X0476400Y0326580D01*
X0516400Y0326580D02*
X0521600Y0326580D01*
X0521600Y0316580D02*
X0516400Y0316580D01*
X0516400Y0306580D02*
X0521600Y0306580D01*
X0521600Y0296580D02*
X0516400Y0296580D01*
X0506600Y0276580D02*
X0501400Y0276580D01*
X0501400Y0266580D02*
X0506600Y0266580D01*
X0506600Y0256580D02*
X0501400Y0256580D01*
X0501400Y0246580D02*
X0506600Y0246580D01*
X0506600Y0236580D02*
X0501400Y0236580D01*
X0501400Y0226580D02*
X0506600Y0226580D01*
X0506600Y0216580D02*
X0501400Y0216580D01*
X0426600Y0216580D02*
X0421400Y0216580D01*
X0421400Y0226580D02*
X0426600Y0226580D01*
X0426600Y0236580D02*
X0421400Y0236580D01*
X0421400Y0246580D02*
X0426600Y0246580D01*
X0426600Y0256580D02*
X0421400Y0256580D01*
X0421400Y0266580D02*
X0426600Y0266580D01*
X0426600Y0276580D02*
X0421400Y0276580D01*
X0396600Y0276580D02*
X0391400Y0276580D01*
X0391400Y0266580D02*
X0396600Y0266580D01*
X0396600Y0256580D02*
X0391400Y0256580D01*
X0391400Y0246580D02*
X0396600Y0246580D01*
X0396600Y0236580D02*
X0391400Y0236580D01*
X0391400Y0226580D02*
X0396600Y0226580D01*
X0396600Y0216580D02*
X0391400Y0216580D01*
X0391600Y0301580D02*
X0386400Y0301580D01*
X0386400Y0311580D02*
X0391600Y0311580D01*
X0391600Y0321580D02*
X0386400Y0321580D01*
X0426400Y0321580D02*
X0431600Y0321580D01*
X0431600Y0311580D02*
X0426400Y0311580D01*
X0426400Y0301580D02*
X0431600Y0301580D01*
X0434000Y0129080D02*
X0434000Y0123880D01*
X0444000Y0123880D02*
X0444000Y0129080D01*
X0454000Y0129080D02*
X0454000Y0123880D01*
X0464000Y0123880D02*
X0464000Y0129080D01*
X0474000Y0129080D02*
X0474000Y0123880D01*
X0484000Y0123880D02*
X0484000Y0129080D01*
X0424000Y0129080D02*
X0424000Y0123880D01*
X0414000Y0123880D02*
X0414000Y0129080D01*
X0404000Y0129080D02*
X0404000Y0123880D01*
X0394000Y0123880D02*
X0394000Y0129080D01*
X0384000Y0129080D02*
X0384000Y0123880D01*
X0374000Y0123880D02*
X0374000Y0129080D01*
X0364000Y0129080D02*
X0364000Y0123880D01*
X0354000Y0123880D02*
X0354000Y0129080D01*
X0344000Y0129080D02*
X0344000Y0123880D01*
X0334000Y0123880D02*
X0334000Y0129080D01*
X0324000Y0129080D02*
X0324000Y0123880D01*
X0314000Y0123880D02*
X0314000Y0129080D01*
X0304000Y0129080D02*
X0304000Y0123880D01*
X0294000Y0123880D02*
X0294000Y0129080D01*
X0299000Y0091780D02*
X0299000Y0086580D01*
X0309000Y0086580D02*
X0309000Y0091780D01*
X0334000Y0091780D02*
X0334000Y0086580D01*
X0344000Y0086580D02*
X0344000Y0091780D01*
X0369000Y0091780D02*
X0369000Y0086580D01*
X0379000Y0086580D02*
X0379000Y0091780D01*
X0404000Y0091780D02*
X0404000Y0086580D01*
X0414000Y0086580D02*
X0414000Y0091780D01*
X0439000Y0091780D02*
X0439000Y0086580D01*
X0449000Y0086580D02*
X0449000Y0091780D01*
X0474000Y0091780D02*
X0474000Y0086580D01*
X0484000Y0086580D02*
X0484000Y0091780D01*
X0509000Y0091780D02*
X0509000Y0086580D01*
X0519000Y0086580D02*
X0519000Y0091780D01*
X0519000Y0056580D02*
X0519000Y0051380D01*
X0509000Y0051380D02*
X0509000Y0056580D01*
X0484000Y0056580D02*
X0484000Y0051380D01*
X0474000Y0051380D02*
X0474000Y0056580D01*
X0449000Y0056580D02*
X0449000Y0051380D01*
X0439000Y0051380D02*
X0439000Y0056580D01*
X0414000Y0056580D02*
X0414000Y0051380D01*
X0404000Y0051380D02*
X0404000Y0056580D01*
X0379000Y0056580D02*
X0379000Y0051380D01*
X0369000Y0051380D02*
X0369000Y0056580D01*
X0344000Y0056580D02*
X0344000Y0051380D01*
X0334000Y0051380D02*
X0334000Y0056580D01*
X0309000Y0056580D02*
X0309000Y0051380D01*
X0299000Y0051380D02*
X0299000Y0056580D01*
D14*
X0549000Y0260075D02*
X0549000Y0268675D01*
X0556511Y0283273D02*
X0565111Y0283273D01*
X0572622Y0268675D02*
X0572622Y0260075D01*
D15*
X0579000Y0231580D03*
X0579000Y0221580D03*
X0579000Y0211580D03*
X0574000Y0196580D03*
X0574000Y0186580D03*
X0574000Y0171580D03*
X0574000Y0161580D03*
X0574000Y0146580D03*
X0574000Y0136580D03*
X0499000Y0146580D03*
X0499000Y0186580D03*
X0539000Y0211580D03*
X0539000Y0221580D03*
X0539000Y0231580D03*
X0344000Y0215580D03*
X0254000Y0261580D03*
X0244000Y0261580D03*
X0229000Y0261580D03*
X0219000Y0261580D03*
X0204000Y0261580D03*
X0194000Y0261580D03*
X0179000Y0261580D03*
X0169000Y0261580D03*
X0154000Y0261580D03*
X0144000Y0261580D03*
X0129000Y0261580D03*
X0119000Y0261580D03*
X0104000Y0261580D03*
X0094000Y0261580D03*
X0094000Y0301580D03*
X0104000Y0301580D03*
X0119000Y0301580D03*
X0129000Y0301580D03*
X0144000Y0301580D03*
X0154000Y0301580D03*
X0169000Y0301580D03*
X0179000Y0301580D03*
X0194000Y0301580D03*
X0204000Y0301580D03*
X0219000Y0301580D03*
X0229000Y0301580D03*
X0244000Y0301580D03*
X0254000Y0301580D03*
X0254000Y0321580D03*
X0244000Y0321580D03*
X0229000Y0321580D03*
X0219000Y0321580D03*
X0204000Y0321580D03*
X0194000Y0321580D03*
X0179000Y0321580D03*
X0169000Y0321580D03*
X0154000Y0321580D03*
X0144000Y0321580D03*
X0129000Y0321580D03*
X0119000Y0321580D03*
X0104000Y0321580D03*
X0094000Y0321580D03*
X0124000Y0171580D03*
X0124000Y0161580D03*
X0124000Y0151580D03*
X0124000Y0141580D03*
X0124000Y0131580D03*
X0124000Y0121580D03*
X0124000Y0111580D03*
X0119000Y0096580D03*
X0129000Y0096580D03*
X0144000Y0096580D03*
X0154000Y0096580D03*
X0169000Y0096580D03*
X0179000Y0096580D03*
X0194000Y0096580D03*
X0204000Y0096580D03*
X0219000Y0096580D03*
X0229000Y0096580D03*
X0244000Y0096580D03*
X0254000Y0096580D03*
X0254000Y0056580D03*
X0244000Y0056580D03*
X0229000Y0056580D03*
X0219000Y0056580D03*
X0204000Y0056580D03*
X0194000Y0056580D03*
X0179000Y0056580D03*
X0169000Y0056580D03*
X0154000Y0056580D03*
X0144000Y0056580D03*
X0129000Y0056580D03*
X0119000Y0056580D03*
X0104000Y0056580D03*
X0094000Y0056580D03*
X0094000Y0036580D03*
X0104000Y0036580D03*
X0119000Y0036580D03*
X0129000Y0036580D03*
X0144000Y0036580D03*
X0154000Y0036580D03*
X0169000Y0036580D03*
X0179000Y0036580D03*
X0194000Y0036580D03*
X0204000Y0036580D03*
X0219000Y0036580D03*
X0229000Y0036580D03*
X0244000Y0036580D03*
X0254000Y0036580D03*
X0164000Y0111580D03*
X0164000Y0121580D03*
X0164000Y0131580D03*
X0164000Y0141580D03*
X0164000Y0151580D03*
X0164000Y0161580D03*
X0164000Y0171580D03*
X0104000Y0096580D03*
X0094000Y0096580D03*
D16*
X0549000Y0136580D03*
X0549000Y0176580D03*
D17*
X0550357Y0095800D03*
X0558231Y0095800D03*
X0558231Y0085958D03*
X0550357Y0085958D03*
D18*
X0568900Y0067178D03*
X0568900Y0114580D03*
D19*
X0527700Y0131580D02*
X0520300Y0131580D01*
X0520300Y0141580D02*
X0527700Y0141580D01*
X0527700Y0151580D02*
X0520300Y0151580D01*
X0520300Y0161580D02*
X0527700Y0161580D01*
X0527700Y0171580D02*
X0520300Y0171580D01*
X0520300Y0181580D02*
X0527700Y0181580D01*
D20*
X0354500Y0289680D03*
X0293500Y0289680D03*
X0074500Y0289680D03*
X0013500Y0289680D03*
X0013500Y0068480D03*
X0074500Y0068480D03*
D21*
X0056500Y0081480D03*
X0046500Y0081480D03*
X0036500Y0081480D03*
X0026500Y0081480D03*
X0031500Y0091480D03*
X0041500Y0091480D03*
X0051500Y0091480D03*
X0061500Y0091480D03*
X0056500Y0266680D03*
X0046500Y0266680D03*
X0036500Y0266680D03*
X0026500Y0266680D03*
X0031500Y0276680D03*
X0041500Y0276680D03*
X0051500Y0276680D03*
X0061500Y0276680D03*
X0306500Y0266680D03*
X0316500Y0266680D03*
X0326500Y0266680D03*
X0336500Y0266680D03*
X0331500Y0276680D03*
X0341500Y0276680D03*
X0321500Y0276680D03*
X0311500Y0276680D03*
D22*
X0321500Y0276680D02*
X0321500Y0290330D01*
X0342750Y0311580D01*
X0350250Y0311580D01*
X0367125Y0294705D01*
X0387750Y0294705D01*
X0403375Y0279080D01*
X0403375Y0264080D01*
X0400875Y0261580D01*
X0394000Y0266580D02*
X0388375Y0266580D01*
X0379000Y0257205D01*
X0379000Y0251580D01*
X0381500Y0246580D02*
X0350875Y0215955D01*
X0344000Y0215955D01*
X0344000Y0215580D01*
X0366500Y0222205D02*
X0366500Y0205955D01*
X0370250Y0202205D01*
X0374000Y0202205D01*
X0374625Y0202830D01*
X0393375Y0202830D01*
X0404000Y0192205D01*
X0404000Y0186480D01*
X0414000Y0186480D02*
X0414000Y0262205D01*
X0418375Y0266580D01*
X0424000Y0266580D01*
X0424000Y0276580D01*
X0414625Y0277205D02*
X0414625Y0279705D01*
X0423375Y0288455D01*
X0440875Y0288455D01*
X0437125Y0275330D02*
X0455875Y0256580D01*
X0474000Y0256580D01*
X0480875Y0261580D02*
X0483375Y0264080D01*
X0483375Y0279080D01*
X0471500Y0290955D01*
X0479000Y0296580D02*
X0479000Y0306580D01*
X0479000Y0316580D01*
X0479000Y0326580D01*
X0447125Y0315330D02*
X0434000Y0328455D01*
X0351500Y0328455D01*
X0297125Y0274080D01*
X0289000Y0278455D02*
X0289000Y0267205D01*
X0289625Y0266580D01*
X0255250Y0232205D01*
X0255250Y0231580D01*
X0259000Y0231580D01*
X0255250Y0231580D02*
X0238375Y0231580D01*
X0231500Y0224705D01*
X0213375Y0224705D01*
X0212750Y0225330D01*
X0212125Y0224705D01*
X0185875Y0224705D01*
X0179000Y0231580D01*
X0169625Y0222205D01*
X0148375Y0222205D01*
X0139000Y0231580D01*
X0149000Y0231580D02*
X0149000Y0247205D01*
X0162125Y0260330D01*
X0162125Y0284705D01*
X0179000Y0301580D01*
X0186500Y0319080D02*
X0197125Y0308455D01*
X0206500Y0308455D01*
X0212125Y0302830D01*
X0212125Y0256580D01*
X0221500Y0247205D01*
X0229000Y0252205D02*
X0237125Y0260330D01*
X0237125Y0279080D01*
X0254000Y0295955D01*
X0254000Y0301580D01*
X0251500Y0308455D02*
X0241500Y0308455D01*
X0235875Y0302830D01*
X0235875Y0285330D01*
X0229000Y0278455D01*
X0229000Y0261580D01*
X0229000Y0252205D02*
X0229000Y0231580D01*
X0219000Y0231580D02*
X0212750Y0225330D01*
X0214000Y0217205D02*
X0262750Y0217205D01*
X0275875Y0204080D01*
X0275875Y0185330D01*
X0299625Y0161580D01*
X0324000Y0161580D01*
X0329625Y0163455D02*
X0329625Y0159705D01*
X0325875Y0155955D01*
X0290250Y0155955D01*
X0280875Y0146580D01*
X0280875Y0127830D01*
X0291500Y0117205D01*
X0366500Y0117205D01*
X0374000Y0124705D01*
X0374000Y0126480D01*
X0377125Y0138455D02*
X0442750Y0138455D01*
X0453375Y0137830D02*
X0419625Y0171580D01*
X0403375Y0171580D01*
X0400875Y0174080D01*
X0384000Y0180955D02*
X0409625Y0155330D01*
X0409625Y0145330D01*
X0394000Y0155955D02*
X0364000Y0155955D01*
X0342750Y0177205D01*
X0291500Y0177205D01*
X0287125Y0181580D01*
X0287125Y0217205D01*
X0336500Y0266580D01*
X0336500Y0266680D01*
X0331500Y0276680D02*
X0331500Y0277205D01*
X0337750Y0283455D01*
X0344625Y0283455D01*
X0354625Y0273455D01*
X0365875Y0262205D02*
X0375875Y0272205D01*
X0380875Y0287205D02*
X0334000Y0240330D01*
X0334000Y0186480D01*
X0344000Y0186480D02*
X0344000Y0184705D01*
X0354000Y0174705D01*
X0371500Y0174705D01*
X0372750Y0173455D01*
X0381500Y0173455D01*
X0384000Y0180955D02*
X0384000Y0186480D01*
X0344000Y0166580D02*
X0344000Y0161580D01*
X0329000Y0146580D01*
X0348375Y0137830D02*
X0354000Y0132205D01*
X0354000Y0126480D01*
X0348375Y0137830D02*
X0293375Y0137830D01*
X0286500Y0144705D01*
X0270875Y0132830D02*
X0270875Y0130330D01*
X0289000Y0112205D01*
X0306500Y0112205D01*
X0327125Y0091580D01*
X0333375Y0091580D01*
X0334000Y0086580D01*
X0334000Y0090955D01*
X0341500Y0098455D01*
X0357125Y0098455D01*
X0369000Y0086580D01*
X0372125Y0079705D02*
X0331500Y0079705D01*
X0304000Y0107205D01*
X0286500Y0107205D01*
X0235875Y0157830D01*
X0235875Y0160330D01*
X0215875Y0160330D02*
X0215875Y0162830D01*
X0206500Y0172205D01*
X0206500Y0174080D01*
X0201500Y0179080D01*
X0196500Y0179080D01*
X0179000Y0161580D01*
X0170875Y0173455D02*
X0170875Y0129080D01*
X0171500Y0129080D01*
X0179000Y0121580D01*
X0186500Y0114080D02*
X0186500Y0134080D01*
X0179000Y0141580D01*
X0170875Y0129080D02*
X0170875Y0128455D01*
X0164000Y0121580D01*
X0157125Y0109080D02*
X0157125Y0164705D01*
X0164000Y0171580D01*
X0170875Y0173455D02*
X0181500Y0184080D01*
X0204000Y0184080D01*
X0211500Y0176580D01*
X0211500Y0174705D01*
X0281500Y0104705D01*
X0281500Y0094705D01*
X0272125Y0084705D02*
X0291500Y0084705D01*
X0297750Y0078455D01*
X0325250Y0078455D01*
X0329000Y0074705D01*
X0382750Y0074705D01*
X0394000Y0085955D01*
X0393375Y0086580D01*
X0393375Y0094080D01*
X0424000Y0124705D01*
X0424000Y0126480D01*
X0414000Y0126480D02*
X0414000Y0124705D01*
X0394000Y0104705D01*
X0372750Y0104705D01*
X0379000Y0086580D02*
X0372125Y0079705D01*
X0372125Y0064705D02*
X0324000Y0064705D01*
X0320250Y0068455D01*
X0286500Y0068455D01*
X0280250Y0074705D01*
X0277125Y0074705D01*
X0275875Y0073455D01*
X0224625Y0073455D01*
X0222125Y0070955D01*
X0221500Y0077830D02*
X0222125Y0078455D01*
X0273375Y0078455D01*
X0274625Y0079705D01*
X0289000Y0079705D01*
X0295250Y0073455D01*
X0322750Y0073455D01*
X0326500Y0069705D01*
X0402125Y0069705D01*
X0404000Y0071580D01*
X0406500Y0071580D01*
X0414625Y0079705D01*
X0416500Y0079705D01*
X0421500Y0084705D01*
X0421500Y0109080D01*
X0426500Y0114080D01*
X0434000Y0126480D02*
X0434000Y0095955D01*
X0426500Y0088455D01*
X0426500Y0051580D01*
X0410250Y0035330D01*
X0309625Y0035330D01*
X0305250Y0039705D01*
X0269000Y0039705D01*
X0266500Y0037205D01*
X0263375Y0032830D02*
X0260875Y0032830D01*
X0263375Y0032830D02*
X0265875Y0030330D01*
X0412750Y0030330D01*
X0439000Y0056580D01*
X0449000Y0056580D02*
X0457125Y0064705D01*
X0475875Y0064705D01*
X0484000Y0056580D01*
X0484625Y0057205D01*
X0489000Y0057205D01*
X0495250Y0063455D01*
X0489000Y0069705D01*
X0489000Y0074705D01*
X0492750Y0078455D01*
X0533375Y0078455D01*
X0550250Y0095330D01*
X0550357Y0095800D01*
X0549625Y0096580D01*
X0557750Y0104705D01*
X0564000Y0104705D01*
X0565875Y0102830D01*
X0572125Y0102830D01*
X0572125Y0125330D02*
X0532125Y0125330D01*
X0533375Y0115330D02*
X0515875Y0115330D01*
X0512125Y0111580D01*
X0505250Y0111580D02*
X0505250Y0110330D01*
X0517125Y0098455D01*
X0509000Y0086580D02*
X0493375Y0086580D01*
X0486500Y0079705D01*
X0468375Y0079705D01*
X0467750Y0080330D01*
X0467125Y0079705D01*
X0445875Y0079705D01*
X0439000Y0086580D01*
X0467750Y0080330D02*
X0474000Y0086580D01*
X0495250Y0063455D02*
X0500250Y0068455D01*
X0508375Y0068455D01*
X0519000Y0057830D01*
X0519000Y0056580D01*
X0526500Y0058455D02*
X0526500Y0049705D01*
X0502125Y0025330D01*
X0245875Y0025330D01*
X0236500Y0034705D01*
X0235875Y0049705D02*
X0229000Y0056580D01*
X0235875Y0049705D02*
X0247125Y0049705D01*
X0254000Y0056580D01*
X0262750Y0055955D02*
X0262750Y0052205D01*
X0262750Y0055955D02*
X0263375Y0056580D01*
X0254625Y0065330D01*
X0185250Y0065330D01*
X0154000Y0096580D01*
X0162125Y0104080D02*
X0157125Y0109080D01*
X0162125Y0104080D02*
X0180875Y0104080D01*
X0185875Y0099080D01*
X0185875Y0095330D01*
X0191500Y0089705D01*
X0206500Y0089705D01*
X0210875Y0094080D01*
X0210875Y0097830D01*
X0218375Y0105330D01*
X0218375Y0117205D01*
X0214625Y0120955D01*
X0210875Y0120955D01*
X0209625Y0119705D01*
X0207125Y0119705D01*
X0212750Y0115330D02*
X0201500Y0104080D01*
X0196500Y0104080D01*
X0186500Y0114080D01*
X0179000Y0096580D02*
X0179000Y0084705D01*
X0185875Y0077830D01*
X0221500Y0077830D01*
X0235875Y0089705D02*
X0229000Y0096580D01*
X0235875Y0089705D02*
X0256500Y0089705D01*
X0257750Y0090955D01*
X0262125Y0090955D01*
X0270875Y0083455D02*
X0272125Y0084705D01*
X0270875Y0083455D02*
X0187750Y0083455D01*
X0146500Y0044705D02*
X0137125Y0054080D01*
X0137125Y0057830D01*
X0104000Y0090955D01*
X0104000Y0096580D01*
X0105875Y0132205D02*
X0065250Y0091580D01*
X0061500Y0091580D01*
X0061500Y0091480D01*
X0036500Y0081480D02*
X0036500Y0080955D01*
X0035250Y0080955D01*
X0029000Y0074705D01*
X0024000Y0074705D01*
X0019625Y0079080D01*
X0019625Y0098455D01*
X0072750Y0151580D01*
X0074000Y0151580D01*
X0090250Y0166580D02*
X0075250Y0181580D01*
X0017125Y0181580D01*
X0012125Y0186580D01*
X0012125Y0239080D01*
X0027750Y0254705D01*
X0054000Y0254705D01*
X0063375Y0264080D01*
X0063375Y0274705D01*
X0061500Y0276580D01*
X0061500Y0276680D01*
X0064000Y0283455D02*
X0068375Y0279080D01*
X0075875Y0279080D01*
X0064000Y0283455D02*
X0057750Y0283455D01*
X0051500Y0277205D01*
X0051500Y0276680D01*
X0056500Y0266680D02*
X0056500Y0266580D01*
X0049625Y0259705D01*
X0025250Y0259705D01*
X0014625Y0249080D01*
X0012125Y0249080D01*
X0019000Y0231580D02*
X0025875Y0224705D01*
X0052125Y0224705D01*
X0059000Y0231580D01*
X0073375Y0217205D01*
X0087750Y0217205D01*
X0099000Y0228455D01*
X0099000Y0231580D01*
X0109000Y0231580D02*
X0137125Y0259705D01*
X0137125Y0284705D01*
X0154000Y0301580D01*
X0129000Y0301580D02*
X0122125Y0294705D01*
X0117750Y0294705D01*
X0087125Y0264080D01*
X0087125Y0259080D01*
X0089000Y0257205D01*
X0089000Y0225955D01*
X0085250Y0222205D01*
X0081500Y0222205D01*
X0072125Y0231580D01*
X0069000Y0231580D01*
X0075875Y0235330D02*
X0075875Y0261580D01*
X0110875Y0296580D01*
X0110875Y0304080D01*
X0103375Y0311580D01*
X0062750Y0311580D01*
X0031500Y0280330D01*
X0031500Y0276680D01*
X0083375Y0252830D02*
X0083375Y0227830D01*
X0102125Y0208455D02*
X0063375Y0208455D01*
X0062750Y0207830D01*
X0062125Y0208455D01*
X0056500Y0208455D01*
X0049625Y0201580D01*
X0029000Y0201580D01*
X0020875Y0189080D02*
X0019000Y0187205D01*
X0020875Y0189080D02*
X0230875Y0189080D01*
X0243375Y0201580D01*
X0259000Y0201580D01*
X0262125Y0208455D02*
X0235875Y0208455D01*
X0229000Y0201580D01*
X0219000Y0201580D02*
X0198375Y0201580D01*
X0186500Y0213455D01*
X0147125Y0213455D01*
X0155875Y0208455D02*
X0149000Y0201580D01*
X0138375Y0212205D01*
X0114625Y0212205D01*
X0106500Y0204080D01*
X0109000Y0201580D01*
X0106500Y0204080D02*
X0102125Y0208455D01*
X0116500Y0206580D02*
X0121500Y0201580D01*
X0139000Y0201580D01*
X0155875Y0208455D02*
X0182125Y0208455D01*
X0189000Y0201580D01*
X0167125Y0179705D02*
X0110875Y0179705D01*
X0105875Y0174705D01*
X0105875Y0132205D01*
X0098375Y0166580D02*
X0090250Y0166580D01*
X0069000Y0201580D02*
X0062750Y0207830D01*
X0038375Y0231580D02*
X0029000Y0231580D01*
X0038375Y0231580D02*
X0104000Y0297205D01*
X0104000Y0301580D01*
X0104000Y0321580D02*
X0109625Y0321580D01*
X0116500Y0328455D01*
X0122125Y0328455D01*
X0122750Y0327830D01*
X0123375Y0328455D01*
X0147125Y0328455D01*
X0147750Y0327830D01*
X0148375Y0328455D01*
X0172125Y0328455D01*
X0172750Y0327830D01*
X0173375Y0328455D01*
X0197125Y0328455D01*
X0197750Y0327830D01*
X0198375Y0328455D01*
X0222125Y0328455D01*
X0222750Y0327830D01*
X0223375Y0328455D01*
X0247125Y0328455D01*
X0254000Y0321580D01*
X0254625Y0320955D01*
X0254625Y0312830D01*
X0289000Y0278455D01*
X0289625Y0266580D02*
X0306500Y0266580D01*
X0306500Y0266680D01*
X0309000Y0259080D02*
X0316500Y0266580D01*
X0316500Y0266680D01*
X0309000Y0259080D02*
X0297125Y0259080D01*
X0289000Y0255955D02*
X0282750Y0249705D01*
X0282750Y0222830D01*
X0294000Y0210955D02*
X0304625Y0221580D01*
X0294000Y0210955D02*
X0294000Y0186480D01*
X0269000Y0201580D02*
X0262125Y0208455D01*
X0301500Y0169705D02*
X0323375Y0169705D01*
X0329625Y0163455D01*
X0369000Y0146580D02*
X0377125Y0138455D01*
X0446500Y0108455D02*
X0470250Y0108455D01*
X0476500Y0112205D02*
X0504625Y0112205D01*
X0505250Y0111580D01*
X0504625Y0112205D02*
X0524000Y0131580D01*
X0524000Y0141580D02*
X0519625Y0141580D01*
X0495250Y0117205D01*
X0481500Y0117205D01*
X0474000Y0124705D01*
X0474000Y0126480D01*
X0464000Y0126480D02*
X0464000Y0124705D01*
X0476500Y0112205D01*
X0484000Y0126480D02*
X0484000Y0126580D01*
X0494625Y0126580D01*
X0519625Y0151580D01*
X0524000Y0151580D01*
X0524000Y0161580D02*
X0528375Y0161580D01*
X0549000Y0140955D01*
X0549000Y0136580D01*
X0554000Y0141580D02*
X0559000Y0136580D01*
X0554000Y0141580D02*
X0554000Y0145955D01*
X0534625Y0165330D01*
X0534625Y0167830D01*
X0530875Y0171580D01*
X0524000Y0171580D01*
X0533375Y0176580D02*
X0528375Y0181580D01*
X0524000Y0181580D01*
X0519000Y0186580D01*
X0499000Y0186580D01*
X0492750Y0184080D02*
X0492750Y0179705D01*
X0484000Y0170955D01*
X0482750Y0170955D01*
X0480250Y0163455D02*
X0466500Y0177205D01*
X0461500Y0177205D01*
X0454000Y0184705D01*
X0454000Y0186480D01*
X0454625Y0187205D01*
X0454625Y0199080D01*
X0464625Y0209080D01*
X0464625Y0214080D01*
X0474000Y0216580D02*
X0474000Y0226580D01*
X0469625Y0226580D01*
X0444000Y0200955D01*
X0444000Y0186480D01*
X0444000Y0184705D01*
X0470250Y0158455D01*
X0496500Y0158455D01*
X0506500Y0148455D01*
X0487750Y0135955D02*
X0485250Y0138455D01*
X0472750Y0138455D01*
X0472125Y0137830D01*
X0453375Y0137830D01*
X0480250Y0163455D02*
X0495250Y0163455D01*
X0497750Y0165955D01*
X0492750Y0184080D02*
X0492125Y0184705D01*
X0492125Y0188455D01*
X0492750Y0189080D01*
X0492750Y0189705D01*
X0523375Y0220330D01*
X0523375Y0240330D01*
X0531500Y0248455D01*
X0539000Y0254080D02*
X0513375Y0254080D01*
X0506500Y0247205D01*
X0504625Y0247205D01*
X0504000Y0246580D01*
X0502125Y0246580D01*
X0487125Y0231580D01*
X0474000Y0236580D02*
X0471500Y0236580D01*
X0431500Y0196580D01*
X0424000Y0186480D02*
X0424000Y0216580D01*
X0424000Y0226580D01*
X0406500Y0242205D02*
X0408375Y0244080D01*
X0408375Y0302830D01*
X0427125Y0321580D01*
X0429000Y0321580D01*
X0447125Y0315330D02*
X0447125Y0275330D01*
X0479000Y0296580D02*
X0488375Y0287205D01*
X0488375Y0283455D01*
X0560250Y0283455D01*
X0560811Y0283273D01*
X0557750Y0292830D02*
X0567125Y0292830D01*
X0582125Y0277830D01*
X0582125Y0245330D01*
X0540250Y0203455D01*
X0516500Y0203455D01*
X0527750Y0193455D02*
X0525250Y0190955D01*
X0527750Y0193455D02*
X0544000Y0193455D01*
X0555875Y0205330D01*
X0558375Y0205330D01*
X0579000Y0231580D02*
X0585875Y0224705D01*
X0585875Y0148455D01*
X0574000Y0136580D01*
X0572125Y0125330D02*
X0590875Y0144080D01*
X0590875Y0309705D01*
X0571500Y0329080D01*
X0556500Y0329080D01*
X0544000Y0316580D01*
X0519000Y0316580D01*
X0519000Y0306580D02*
X0544000Y0306580D01*
X0557750Y0292830D01*
X0549000Y0264375D02*
X0549000Y0264080D01*
X0539000Y0254080D01*
X0539000Y0231580D01*
X0504000Y0236580D02*
X0502125Y0236580D01*
X0483375Y0217830D01*
X0483375Y0214080D01*
X0470250Y0200955D01*
X0466500Y0200955D01*
X0533375Y0176580D02*
X0549000Y0176580D01*
X0475875Y0246580D02*
X0488375Y0259080D01*
X0488375Y0283455D01*
X0475875Y0246580D02*
X0474000Y0246580D01*
X0394000Y0246580D02*
X0381500Y0246580D01*
X0379000Y0234705D02*
X0366500Y0222205D01*
X0229000Y0321580D02*
X0222750Y0327830D01*
X0204000Y0321580D02*
X0197750Y0327830D01*
X0179000Y0321580D02*
X0172750Y0327830D01*
X0154000Y0321580D02*
X0147750Y0327830D01*
X0129000Y0321580D02*
X0122750Y0327830D01*
X0187125Y0284705D02*
X0204000Y0301580D01*
X0187125Y0284705D02*
X0187125Y0259080D01*
X0189000Y0257205D01*
X0189000Y0231580D01*
X0170250Y0243455D02*
X0158375Y0231580D01*
X0158375Y0227830D01*
X0406500Y0064080D02*
X0410875Y0068455D01*
X0413375Y0068455D01*
X0406500Y0064080D02*
X0402750Y0064080D01*
X0402125Y0064705D01*
X0382125Y0064705D01*
X0381500Y0064080D01*
X0372750Y0064080D01*
X0372125Y0064705D01*
X0379000Y0056580D02*
X0379000Y0050955D01*
X0369000Y0040955D01*
X0369625Y0040330D01*
X0407750Y0040330D01*
X0409000Y0041580D01*
X0407750Y0042830D01*
X0409000Y0041580D02*
X0414000Y0046580D01*
X0414000Y0056580D01*
X0369000Y0040955D02*
X0368375Y0040330D01*
X0334625Y0040330D01*
X0334000Y0040955D01*
X0333375Y0040330D01*
X0324625Y0040330D01*
X0322125Y0042830D01*
X0316500Y0044705D02*
X0328375Y0056580D01*
X0334000Y0056580D01*
X0344000Y0056580D02*
X0344000Y0050955D01*
X0334000Y0040955D01*
X0316500Y0044705D02*
X0146500Y0044705D01*
X0129000Y0056580D02*
X0109000Y0036580D01*
X0104000Y0036580D01*
X0263375Y0056580D02*
X0299000Y0056580D01*
X0474000Y0056580D02*
X0474000Y0052205D01*
X0487125Y0039080D01*
X0501500Y0039080D01*
X0506500Y0044705D02*
X0511500Y0044705D01*
X0513375Y0046580D01*
X0506500Y0044705D02*
X0500250Y0050955D01*
X0492125Y0050955D01*
X0542750Y0055955D02*
X0542750Y0077205D01*
D23*
X0008000Y0063055D02*
X0008000Y0025580D01*
X0237493Y0025580D01*
X0233684Y0029389D01*
X0233108Y0029628D01*
X0231537Y0031198D01*
X0231320Y0030980D01*
X0229000Y0030980D01*
X0229000Y0036580D01*
X0229000Y0036580D01*
X0229000Y0030980D01*
X0226680Y0030980D01*
X0225061Y0032600D01*
X0221941Y0029480D01*
X0216059Y0029480D01*
X0211900Y0033639D01*
X0211900Y0038955D01*
X0209545Y0038955D01*
X0209600Y0038900D01*
X0209600Y0036580D01*
X0204000Y0036580D01*
X0204000Y0036580D01*
X0209600Y0036580D01*
X0209600Y0034260D01*
X0206320Y0030980D01*
X0204000Y0030980D01*
X0204000Y0036580D01*
X0204000Y0036580D01*
X0204000Y0030980D01*
X0201680Y0030980D01*
X0200061Y0032600D01*
X0196941Y0029480D01*
X0191059Y0029480D01*
X0186900Y0033639D01*
X0186900Y0038955D01*
X0184545Y0038955D01*
X0184600Y0038900D01*
X0184600Y0036580D01*
X0179000Y0036580D01*
X0179000Y0036580D01*
X0184600Y0036580D01*
X0184600Y0034260D01*
X0181320Y0030980D01*
X0179000Y0030980D01*
X0179000Y0036580D01*
X0179000Y0036580D01*
X0179000Y0030980D01*
X0176680Y0030980D01*
X0175061Y0032600D01*
X0171941Y0029480D01*
X0166059Y0029480D01*
X0161900Y0033639D01*
X0161900Y0038955D01*
X0159545Y0038955D01*
X0159600Y0038900D01*
X0159600Y0036580D01*
X0154000Y0036580D01*
X0154000Y0036580D01*
X0159600Y0036580D01*
X0159600Y0034260D01*
X0156320Y0030980D01*
X0154000Y0030980D01*
X0154000Y0036580D01*
X0154000Y0036580D01*
X0154000Y0030980D01*
X0151680Y0030980D01*
X0150061Y0032600D01*
X0146941Y0029480D01*
X0141059Y0029480D01*
X0136900Y0033639D01*
X0136900Y0039521D01*
X0140226Y0042847D01*
X0132250Y0050823D01*
X0131932Y0051592D01*
X0131320Y0050980D01*
X0129000Y0050980D01*
X0129000Y0056580D01*
X0129000Y0056580D01*
X0129000Y0050980D01*
X0126680Y0050980D01*
X0125061Y0052600D01*
X0121941Y0049480D01*
X0116059Y0049480D01*
X0111900Y0053639D01*
X0111900Y0059521D01*
X0116059Y0063680D01*
X0121941Y0063680D01*
X0125061Y0060560D01*
X0125662Y0061161D01*
X0099125Y0087698D01*
X0098250Y0089811D01*
X0098250Y0090789D01*
X0096941Y0089480D01*
X0091059Y0089480D01*
X0086900Y0093639D01*
X0086900Y0099521D01*
X0091059Y0103680D01*
X0096941Y0103680D01*
X0099000Y0101621D01*
X0101059Y0103680D01*
X0106941Y0103680D01*
X0111100Y0099521D01*
X0111100Y0093639D01*
X0110274Y0092813D01*
X0140233Y0062854D01*
X0141059Y0063680D01*
X0146941Y0063680D01*
X0150061Y0060560D01*
X0151680Y0062180D01*
X0154000Y0062180D01*
X0154000Y0056580D01*
X0154000Y0056580D01*
X0159600Y0056580D01*
X0159600Y0058900D01*
X0156320Y0062180D01*
X0154000Y0062180D01*
X0154000Y0056580D01*
X0154000Y0056580D01*
X0159600Y0056580D01*
X0159600Y0054260D01*
X0156320Y0050980D01*
X0154000Y0050980D01*
X0154000Y0056580D01*
X0154000Y0056580D01*
X0154000Y0050980D01*
X0151680Y0050980D01*
X0150061Y0052600D01*
X0148399Y0050938D01*
X0148882Y0050455D01*
X0165084Y0050455D01*
X0161900Y0053639D01*
X0161900Y0059521D01*
X0166059Y0063680D01*
X0171941Y0063680D01*
X0175061Y0060560D01*
X0176680Y0062180D01*
X0179000Y0062180D01*
X0179000Y0056580D01*
X0184600Y0056580D01*
X0184600Y0058900D01*
X0183788Y0059712D01*
X0184106Y0059580D01*
X0186959Y0059580D01*
X0186900Y0059521D01*
X0186900Y0053639D01*
X0190084Y0050455D01*
X0172916Y0050455D01*
X0175061Y0052600D01*
X0176680Y0050980D01*
X0179000Y0050980D01*
X0181320Y0050980D01*
X0184600Y0054260D01*
X0184600Y0056580D01*
X0179000Y0056580D01*
X0179000Y0056580D01*
X0179000Y0056580D01*
X0179000Y0050980D01*
X0179000Y0056580D01*
X0179000Y0056580D01*
X0179000Y0062180D01*
X0180268Y0062180D01*
X0152968Y0089480D01*
X0151059Y0089480D01*
X0149000Y0091539D01*
X0146941Y0089480D01*
X0141059Y0089480D01*
X0136900Y0093639D01*
X0136900Y0099521D01*
X0141059Y0103680D01*
X0146941Y0103680D01*
X0149000Y0101621D01*
X0151059Y0103680D01*
X0154393Y0103680D01*
X0153868Y0104205D01*
X0152250Y0105823D01*
X0151375Y0107936D01*
X0151375Y0165849D01*
X0152250Y0167962D01*
X0156900Y0172612D01*
X0156900Y0173955D01*
X0131100Y0173955D01*
X0131100Y0168639D01*
X0129041Y0166580D01*
X0131100Y0164521D01*
X0131100Y0158639D01*
X0129041Y0156580D01*
X0131100Y0154521D01*
X0131100Y0148639D01*
X0129041Y0146580D01*
X0131100Y0144521D01*
X0131100Y0138639D01*
X0129041Y0136580D01*
X0131100Y0134521D01*
X0131100Y0128639D01*
X0129041Y0126580D01*
X0131100Y0124521D01*
X0131100Y0118639D01*
X0129041Y0116580D01*
X0131100Y0114521D01*
X0131100Y0108639D01*
X0126941Y0104480D01*
X0121059Y0104480D01*
X0119849Y0105691D01*
X0118702Y0104544D01*
X0116617Y0103680D01*
X0121941Y0103680D01*
X0124000Y0101621D01*
X0126059Y0103680D01*
X0131941Y0103680D01*
X0136100Y0099521D01*
X0136100Y0093639D01*
X0131941Y0089480D01*
X0126059Y0089480D01*
X0124000Y0091539D01*
X0121941Y0089480D01*
X0116059Y0089480D01*
X0111900Y0093639D01*
X0111900Y0099521D01*
X0115665Y0103286D01*
X0115651Y0103280D01*
X0112349Y0103280D01*
X0109298Y0104544D01*
X0106964Y0106878D01*
X0105700Y0109929D01*
X0105700Y0113231D01*
X0106964Y0116282D01*
X0107262Y0116580D01*
X0106964Y0116878D01*
X0105700Y0119929D01*
X0105700Y0123231D01*
X0106172Y0124370D01*
X0068507Y0086705D01*
X0066394Y0085830D01*
X0066103Y0085830D01*
X0065607Y0085334D01*
X0063169Y0084324D01*
X0063750Y0082922D01*
X0063750Y0080038D01*
X0062646Y0077373D01*
X0060607Y0075334D01*
X0057942Y0074230D01*
X0055058Y0074230D01*
X0052393Y0075334D01*
X0051500Y0076227D01*
X0050607Y0075334D01*
X0047942Y0074230D01*
X0045058Y0074230D01*
X0042393Y0075334D01*
X0041500Y0076227D01*
X0040607Y0075334D01*
X0037942Y0074230D01*
X0036657Y0074230D01*
X0033875Y0071448D01*
X0032257Y0069830D01*
X0030144Y0068955D01*
X0022856Y0068955D01*
X0021135Y0069668D01*
X0021225Y0068986D01*
X0021225Y0068480D01*
X0013500Y0068480D01*
X0013500Y0068480D01*
X0013500Y0076205D01*
X0014006Y0076205D01*
X0014626Y0076123D01*
X0013875Y0077936D01*
X0013875Y0099599D01*
X0014750Y0101712D01*
X0065700Y0152662D01*
X0065700Y0153231D01*
X0066964Y0156282D01*
X0067262Y0156580D01*
X0066964Y0156878D01*
X0065700Y0159929D01*
X0065700Y0163231D01*
X0066964Y0166282D01*
X0067262Y0166580D01*
X0066964Y0166878D01*
X0065700Y0169929D01*
X0065700Y0173231D01*
X0066777Y0175830D01*
X0039781Y0175830D01*
X0040787Y0175183D01*
X0040787Y0175183D01*
X0044143Y0171312D01*
X0044143Y0171312D01*
X0046271Y0166651D01*
X0046271Y0166651D01*
X0047000Y0161580D01*
X0046271Y0156509D01*
X0046271Y0156509D01*
X0044143Y0151848D01*
X0044143Y0151848D01*
X0040787Y0147977D01*
X0040787Y0147977D01*
X0040787Y0147977D01*
X0036477Y0145207D01*
X0036477Y0145207D01*
X0031562Y0143763D01*
X0026438Y0143763D01*
X0021523Y0145207D01*
X0021523Y0145207D01*
X0017213Y0147977D01*
X0017213Y0147977D01*
X0013857Y0151848D01*
X0013857Y0151848D01*
X0011729Y0156509D01*
X0011729Y0156509D01*
X0011000Y0161580D01*
X0011000Y0161580D01*
X0011729Y0166651D01*
X0011729Y0166651D01*
X0013857Y0171312D01*
X0013857Y0171312D01*
X0017213Y0175183D01*
X0017213Y0175183D01*
X0017213Y0175183D01*
X0018219Y0175830D01*
X0015981Y0175830D01*
X0013868Y0176705D01*
X0008868Y0181705D01*
X0008000Y0182573D01*
X0008000Y0073905D01*
X0008396Y0074300D01*
X0009199Y0074917D01*
X0010076Y0075423D01*
X0011012Y0075811D01*
X0011990Y0076073D01*
X0012994Y0076205D01*
X0013500Y0076205D01*
X0013500Y0068480D01*
X0013500Y0068480D01*
X0021225Y0068480D01*
X0021225Y0067974D01*
X0021093Y0066970D01*
X0021069Y0066880D01*
X0022869Y0066880D01*
X0025514Y0066171D01*
X0027886Y0064802D01*
X0029822Y0062866D01*
X0031191Y0060494D01*
X0031900Y0057849D01*
X0031900Y0055111D01*
X0031191Y0052466D01*
X0029822Y0050094D01*
X0027886Y0048158D01*
X0025514Y0046789D01*
X0022869Y0046080D01*
X0020131Y0046080D01*
X0017486Y0046789D01*
X0015114Y0048158D01*
X0013178Y0050094D01*
X0011809Y0052466D01*
X0011100Y0055111D01*
X0011100Y0057849D01*
X0011809Y0060494D01*
X0012032Y0060882D01*
X0011990Y0060887D01*
X0011012Y0061149D01*
X0010076Y0061537D01*
X0009199Y0062043D01*
X0008396Y0062660D01*
X0008000Y0063055D01*
X0008000Y0061565D02*
X0010027Y0061565D01*
X0011100Y0057567D02*
X0008000Y0057567D01*
X0008000Y0053568D02*
X0011513Y0053568D01*
X0013703Y0049570D02*
X0008000Y0049570D01*
X0008000Y0045571D02*
X0137502Y0045571D01*
X0138952Y0041573D02*
X0131927Y0041573D01*
X0131320Y0042180D02*
X0129000Y0042180D01*
X0129000Y0036580D01*
X0134600Y0036580D01*
X0134600Y0038900D01*
X0131320Y0042180D01*
X0129000Y0042180D02*
X0126680Y0042180D01*
X0125061Y0040560D01*
X0121941Y0043680D01*
X0116059Y0043680D01*
X0111900Y0039521D01*
X0111900Y0033639D01*
X0116059Y0029480D01*
X0121941Y0029480D01*
X0125061Y0032600D01*
X0126680Y0030980D01*
X0129000Y0030980D01*
X0131320Y0030980D01*
X0134600Y0034260D01*
X0134600Y0036580D01*
X0129000Y0036580D01*
X0129000Y0036580D01*
X0129000Y0036580D01*
X0129000Y0030980D01*
X0129000Y0036580D01*
X0129000Y0036580D01*
X0129000Y0042180D01*
X0129000Y0041573D02*
X0129000Y0041573D01*
X0126073Y0041573D02*
X0124048Y0041573D01*
X0129000Y0037574D02*
X0129000Y0037574D01*
X0129000Y0033576D02*
X0129000Y0033576D01*
X0133915Y0033576D02*
X0136964Y0033576D01*
X0136900Y0037574D02*
X0134600Y0037574D01*
X0140962Y0029577D02*
X0122038Y0029577D01*
X0115962Y0029577D02*
X0097038Y0029577D01*
X0096941Y0029480D02*
X0100061Y0032600D01*
X0101680Y0030980D01*
X0104000Y0030980D01*
X0106320Y0030980D01*
X0109600Y0034260D01*
X0109600Y0036580D01*
X0109600Y0038900D01*
X0106320Y0042180D01*
X0104000Y0042180D01*
X0104000Y0036580D01*
X0109600Y0036580D01*
X0104000Y0036580D01*
X0104000Y0036580D01*
X0104000Y0036580D01*
X0104000Y0030980D01*
X0104000Y0036580D01*
X0104000Y0036580D01*
X0104000Y0042180D01*
X0101680Y0042180D01*
X0100061Y0040560D01*
X0096941Y0043680D01*
X0091059Y0043680D01*
X0086900Y0039521D01*
X0086900Y0033639D01*
X0091059Y0029480D01*
X0096941Y0029480D01*
X0090962Y0029577D02*
X0008000Y0029577D01*
X0008000Y0033576D02*
X0086964Y0033576D01*
X0086900Y0037574D02*
X0008000Y0037574D01*
X0008000Y0041573D02*
X0088952Y0041573D01*
X0091059Y0049480D02*
X0096941Y0049480D01*
X0100061Y0052600D01*
X0101680Y0050980D01*
X0104000Y0050980D01*
X0106320Y0050980D01*
X0109600Y0054260D01*
X0109600Y0056580D01*
X0109600Y0058900D01*
X0106320Y0062180D01*
X0104000Y0062180D01*
X0104000Y0056580D01*
X0104000Y0056580D01*
X0109600Y0056580D01*
X0104000Y0056580D01*
X0104000Y0056580D01*
X0104000Y0062180D01*
X0101680Y0062180D01*
X0100061Y0060560D01*
X0096941Y0063680D01*
X0091059Y0063680D01*
X0086900Y0059521D01*
X0086900Y0053639D01*
X0091059Y0049480D01*
X0090970Y0049570D02*
X0074297Y0049570D01*
X0074822Y0050094D02*
X0076191Y0052466D01*
X0076900Y0055111D01*
X0076900Y0057849D01*
X0076191Y0060494D01*
X0075968Y0060882D01*
X0076010Y0060887D01*
X0076988Y0061149D01*
X0077924Y0061537D01*
X0078801Y0062043D01*
X0079604Y0062660D01*
X0080320Y0063376D01*
X0080937Y0064179D01*
X0081443Y0065056D01*
X0081831Y0065992D01*
X0082093Y0066970D01*
X0082225Y0067974D01*
X0082225Y0068480D01*
X0082225Y0068986D01*
X0082093Y0069990D01*
X0081831Y0070968D01*
X0081443Y0071904D01*
X0080937Y0072781D01*
X0080320Y0073584D01*
X0079604Y0074300D01*
X0078801Y0074917D01*
X0077924Y0075423D01*
X0076988Y0075811D01*
X0076010Y0076073D01*
X0075006Y0076205D01*
X0074500Y0076205D01*
X0074500Y0068480D01*
X0082225Y0068480D01*
X0074500Y0068480D01*
X0074500Y0068480D01*
X0074500Y0068480D01*
X0074500Y0068480D01*
X0066775Y0068480D01*
X0066775Y0068986D01*
X0066907Y0069990D01*
X0067169Y0070968D01*
X0067557Y0071904D01*
X0068063Y0072781D01*
X0068680Y0073584D01*
X0069396Y0074300D01*
X0070199Y0074917D01*
X0071076Y0075423D01*
X0072012Y0075811D01*
X0072990Y0076073D01*
X0073994Y0076205D01*
X0074500Y0076205D01*
X0074500Y0068480D01*
X0066775Y0068480D01*
X0066775Y0067974D01*
X0066907Y0066970D01*
X0066931Y0066880D01*
X0065131Y0066880D01*
X0062486Y0066171D01*
X0060114Y0064802D01*
X0058178Y0062866D01*
X0056809Y0060494D01*
X0056100Y0057849D01*
X0056100Y0055111D01*
X0056809Y0052466D01*
X0058178Y0050094D01*
X0060114Y0048158D01*
X0062486Y0046789D01*
X0065131Y0046080D01*
X0067869Y0046080D01*
X0070514Y0046789D01*
X0072886Y0048158D01*
X0074822Y0050094D01*
X0076487Y0053568D02*
X0086971Y0053568D01*
X0097030Y0049570D02*
X0115970Y0049570D01*
X0111971Y0053568D02*
X0108908Y0053568D01*
X0104000Y0053568D02*
X0104000Y0053568D01*
X0104000Y0050980D02*
X0104000Y0056580D01*
X0104000Y0056580D01*
X0104000Y0050980D01*
X0104000Y0057567D02*
X0104000Y0057567D01*
X0104000Y0061565D02*
X0104000Y0061565D01*
X0106934Y0061565D02*
X0113944Y0061565D01*
X0111900Y0057567D02*
X0109600Y0057567D01*
X0101066Y0061565D02*
X0099056Y0061565D01*
X0088944Y0061565D02*
X0077973Y0061565D01*
X0076900Y0057567D02*
X0086900Y0057567D01*
X0081653Y0065564D02*
X0121260Y0065564D01*
X0124056Y0061565D02*
X0125258Y0061565D01*
X0117261Y0069562D02*
X0082149Y0069562D01*
X0080339Y0073561D02*
X0113263Y0073561D01*
X0109264Y0077559D02*
X0062723Y0077559D01*
X0063750Y0081558D02*
X0105266Y0081558D01*
X0101267Y0085556D02*
X0065829Y0085556D01*
X0071356Y0089555D02*
X0090984Y0089555D01*
X0086986Y0093553D02*
X0075355Y0093553D01*
X0079353Y0097552D02*
X0086900Y0097552D01*
X0088929Y0101550D02*
X0083352Y0101550D01*
X0087350Y0105549D02*
X0108293Y0105549D01*
X0109071Y0101550D02*
X0113929Y0101550D01*
X0111900Y0097552D02*
X0111100Y0097552D01*
X0111014Y0093553D02*
X0111986Y0093553D01*
X0113532Y0089555D02*
X0115984Y0089555D01*
X0122016Y0089555D02*
X0125984Y0089555D01*
X0132016Y0089555D02*
X0140984Y0089555D01*
X0136986Y0093553D02*
X0136014Y0093553D01*
X0136100Y0097552D02*
X0136900Y0097552D01*
X0138929Y0101550D02*
X0134071Y0101550D01*
X0128010Y0105549D02*
X0152525Y0105549D01*
X0151375Y0109547D02*
X0131100Y0109547D01*
X0131100Y0113546D02*
X0151375Y0113546D01*
X0151375Y0117544D02*
X0130005Y0117544D01*
X0131100Y0121543D02*
X0151375Y0121543D01*
X0151375Y0125541D02*
X0130080Y0125541D01*
X0131100Y0129540D02*
X0151375Y0129540D01*
X0151375Y0133538D02*
X0131100Y0133538D01*
X0129998Y0137537D02*
X0151375Y0137537D01*
X0151375Y0141535D02*
X0131100Y0141535D01*
X0130087Y0145534D02*
X0151375Y0145534D01*
X0151375Y0149532D02*
X0131100Y0149532D01*
X0131100Y0153531D02*
X0151375Y0153531D01*
X0151375Y0157529D02*
X0129990Y0157529D01*
X0131100Y0161528D02*
X0151375Y0161528D01*
X0151375Y0165526D02*
X0130094Y0165526D01*
X0131100Y0169525D02*
X0153813Y0169525D01*
X0156900Y0173523D02*
X0131100Y0173523D01*
X0106500Y0212212D02*
X0105382Y0213330D01*
X0103269Y0214205D01*
X0055356Y0214205D01*
X0053243Y0213330D01*
X0051625Y0211712D01*
X0047243Y0207330D01*
X0033291Y0207330D01*
X0033022Y0207599D01*
X0030412Y0208680D01*
X0027588Y0208680D01*
X0024978Y0207599D01*
X0024000Y0206621D01*
X0023022Y0207599D01*
X0020412Y0208680D01*
X0017875Y0208680D01*
X0017875Y0226088D01*
X0018559Y0225980D01*
X0019000Y0225980D01*
X0019441Y0225980D01*
X0020311Y0226118D01*
X0021150Y0226390D01*
X0021935Y0226790D01*
X0022648Y0227309D01*
X0022957Y0227617D01*
X0022981Y0227558D01*
X0024978Y0225561D01*
X0027588Y0224480D01*
X0030412Y0224480D01*
X0033022Y0225561D01*
X0033291Y0225830D01*
X0039519Y0225830D01*
X0041632Y0226705D01*
X0053788Y0238861D01*
X0053538Y0238091D01*
X0053400Y0237221D01*
X0053400Y0231580D01*
X0059000Y0231580D01*
X0059000Y0231580D01*
X0059000Y0242380D01*
X0059441Y0242380D01*
X0060311Y0242242D01*
X0061150Y0241970D01*
X0061935Y0241570D01*
X0062648Y0241051D01*
X0062957Y0240743D01*
X0062981Y0240802D01*
X0064978Y0242799D01*
X0067588Y0243880D01*
X0070125Y0243880D01*
X0070125Y0255198D01*
X0056919Y0241992D01*
X0057689Y0242242D01*
X0058559Y0242380D01*
X0059000Y0242380D01*
X0059000Y0231580D01*
X0059000Y0225980D01*
X0059441Y0225980D01*
X0060311Y0226118D01*
X0061150Y0226390D01*
X0061935Y0226790D01*
X0062648Y0227309D01*
X0062957Y0227617D01*
X0062981Y0227558D01*
X0064978Y0225561D01*
X0067588Y0224480D01*
X0070412Y0224480D01*
X0070894Y0224679D01*
X0076625Y0218948D01*
X0078243Y0217330D01*
X0080356Y0216455D01*
X0086394Y0216455D01*
X0088507Y0217330D01*
X0092257Y0221080D01*
X0093875Y0222698D01*
X0094750Y0224811D01*
X0094750Y0227910D01*
X0095352Y0227309D01*
X0096065Y0226790D01*
X0096850Y0226390D01*
X0097689Y0226118D01*
X0098559Y0225980D01*
X0099000Y0225980D01*
X0099441Y0225980D01*
X0100311Y0226118D01*
X0101150Y0226390D01*
X0101935Y0226790D01*
X0102648Y0227309D01*
X0102957Y0227617D01*
X0102981Y0227558D01*
X0104978Y0225561D01*
X0107588Y0224480D01*
X0110412Y0224480D01*
X0113022Y0225561D01*
X0115019Y0227558D01*
X0116100Y0230168D01*
X0116100Y0230548D01*
X0140382Y0254830D01*
X0140545Y0254994D01*
X0141059Y0254480D01*
X0146941Y0254480D01*
X0149000Y0256539D01*
X0149601Y0255938D01*
X0144125Y0250462D01*
X0143250Y0248349D01*
X0143250Y0241071D01*
X0142981Y0240802D01*
X0142957Y0240743D01*
X0142648Y0241051D01*
X0141935Y0241570D01*
X0141150Y0241970D01*
X0140311Y0242242D01*
X0139441Y0242380D01*
X0139000Y0242380D01*
X0139000Y0231580D01*
X0139000Y0231580D01*
X0139000Y0225980D01*
X0139441Y0225980D01*
X0140311Y0226118D01*
X0141150Y0226390D01*
X0141935Y0226790D01*
X0142648Y0227309D01*
X0142957Y0227617D01*
X0142981Y0227558D01*
X0144978Y0225561D01*
X0147588Y0224480D01*
X0150412Y0224480D01*
X0152860Y0225494D01*
X0153298Y0224438D01*
X0154983Y0222753D01*
X0157184Y0221841D01*
X0159566Y0221841D01*
X0161767Y0222753D01*
X0163452Y0224438D01*
X0164364Y0226639D01*
X0164364Y0229021D01*
X0164242Y0229315D01*
X0173066Y0238139D01*
X0173629Y0238372D01*
X0173538Y0238091D01*
X0173400Y0237221D01*
X0173400Y0231580D01*
X0179000Y0231580D01*
X0179000Y0231580D01*
X0179000Y0242380D01*
X0179441Y0242380D01*
X0180311Y0242242D01*
X0181150Y0241970D01*
X0181935Y0241570D01*
X0182648Y0241051D01*
X0182957Y0240743D01*
X0182981Y0240802D01*
X0183250Y0241071D01*
X0183250Y0254823D01*
X0182767Y0255306D01*
X0181941Y0254480D01*
X0176059Y0254480D01*
X0174000Y0256539D01*
X0171941Y0254480D01*
X0166059Y0254480D01*
X0165233Y0255306D01*
X0154750Y0244823D01*
X0154750Y0241071D01*
X0155019Y0240802D01*
X0156100Y0238192D01*
X0156100Y0237437D01*
X0164934Y0246271D01*
X0165173Y0246847D01*
X0166858Y0248532D01*
X0169059Y0249444D01*
X0171441Y0249444D01*
X0173642Y0248532D01*
X0175327Y0246847D01*
X0176239Y0244646D01*
X0176239Y0242264D01*
X0175903Y0241452D01*
X0176065Y0241570D01*
X0176850Y0241970D01*
X0177689Y0242242D01*
X0178559Y0242380D01*
X0179000Y0242380D01*
X0179000Y0231580D01*
X0179000Y0225980D01*
X0179441Y0225980D01*
X0180311Y0226118D01*
X0181150Y0226390D01*
X0181935Y0226790D01*
X0182648Y0227309D01*
X0182957Y0227617D01*
X0182981Y0227558D01*
X0184978Y0225561D01*
X0187588Y0224480D01*
X0190412Y0224480D01*
X0193022Y0225561D01*
X0195019Y0227558D01*
X0196100Y0230168D01*
X0196100Y0238192D01*
X0195019Y0240802D01*
X0194750Y0241071D01*
X0194750Y0254480D01*
X0196941Y0254480D01*
X0199000Y0256539D01*
X0201059Y0254480D01*
X0206771Y0254480D01*
X0207250Y0253323D01*
X0216184Y0244389D01*
X0216423Y0243813D01*
X0217952Y0242284D01*
X0217689Y0242242D01*
X0216850Y0241970D01*
X0216065Y0241570D01*
X0215352Y0241051D01*
X0214729Y0240428D01*
X0214210Y0239715D01*
X0213810Y0238930D01*
X0213538Y0238091D01*
X0213400Y0237221D01*
X0213400Y0231580D01*
X0219000Y0231580D01*
X0219000Y0225980D01*
X0219441Y0225980D01*
X0220311Y0226118D01*
X0221150Y0226390D01*
X0221935Y0226790D01*
X0222648Y0227309D01*
X0222957Y0227617D01*
X0222981Y0227558D01*
X0224978Y0225561D01*
X0227588Y0224480D01*
X0230412Y0224480D01*
X0233022Y0225561D01*
X0235019Y0227558D01*
X0236100Y0230168D01*
X0236100Y0238192D01*
X0235019Y0240802D01*
X0234750Y0241071D01*
X0234750Y0249823D01*
X0240233Y0255306D01*
X0241059Y0254480D01*
X0246941Y0254480D01*
X0249000Y0256539D01*
X0251059Y0254480D01*
X0256941Y0254480D01*
X0261100Y0258639D01*
X0261100Y0264521D01*
X0256941Y0268680D01*
X0251059Y0268680D01*
X0249000Y0266621D01*
X0246941Y0268680D01*
X0242875Y0268680D01*
X0242875Y0276698D01*
X0257257Y0291080D01*
X0258875Y0292698D01*
X0259750Y0294811D01*
X0259750Y0297289D01*
X0261100Y0298639D01*
X0261100Y0304521D01*
X0257489Y0308132D01*
X0257489Y0309646D01*
X0256577Y0311847D01*
X0254892Y0313532D01*
X0252691Y0314444D01*
X0250309Y0314444D01*
X0249732Y0314205D01*
X0240356Y0314205D01*
X0238243Y0313330D01*
X0232767Y0307854D01*
X0231941Y0308680D01*
X0226059Y0308680D01*
X0224000Y0306621D01*
X0221941Y0308680D01*
X0216059Y0308680D01*
X0215233Y0307854D01*
X0209757Y0313330D01*
X0207644Y0314205D01*
X0199507Y0314205D01*
X0198086Y0315625D01*
X0200061Y0317600D01*
X0201680Y0315980D01*
X0204000Y0315980D01*
X0206320Y0315980D01*
X0209600Y0319260D01*
X0209600Y0321580D01*
X0209600Y0323900D01*
X0206320Y0327180D01*
X0204000Y0327180D01*
X0204000Y0321580D01*
X0204000Y0321580D01*
X0209600Y0321580D01*
X0204000Y0321580D01*
X0204000Y0321580D01*
X0204000Y0327180D01*
X0201680Y0327180D01*
X0200061Y0325560D01*
X0196941Y0328680D01*
X0191059Y0328680D01*
X0187448Y0325069D01*
X0185309Y0325069D01*
X0183981Y0324519D01*
X0181320Y0327180D01*
X0179000Y0327180D01*
X0179000Y0321580D01*
X0179000Y0321580D01*
X0179000Y0315980D01*
X0181302Y0315980D01*
X0181423Y0315688D01*
X0183108Y0314003D01*
X0183684Y0313764D01*
X0189914Y0307535D01*
X0186900Y0304521D01*
X0186900Y0298639D01*
X0189914Y0295625D01*
X0182250Y0287962D01*
X0181375Y0285849D01*
X0181375Y0268680D01*
X0176059Y0268680D01*
X0174000Y0266621D01*
X0171941Y0268680D01*
X0167875Y0268680D01*
X0167875Y0282323D01*
X0180032Y0294480D01*
X0181941Y0294480D01*
X0186100Y0298639D01*
X0186100Y0304521D01*
X0181941Y0308680D01*
X0176059Y0308680D01*
X0174000Y0306621D01*
X0171941Y0308680D01*
X0166059Y0308680D01*
X0161900Y0304521D01*
X0161900Y0298639D01*
X0164914Y0295625D01*
X0157250Y0287962D01*
X0156375Y0285849D01*
X0156375Y0268680D01*
X0151059Y0268680D01*
X0149000Y0266621D01*
X0146941Y0268680D01*
X0142875Y0268680D01*
X0142875Y0282323D01*
X0155032Y0294480D01*
X0156941Y0294480D01*
X0161100Y0298639D01*
X0161100Y0304521D01*
X0156941Y0308680D01*
X0151059Y0308680D01*
X0149000Y0306621D01*
X0146941Y0308680D01*
X0141059Y0308680D01*
X0136900Y0304521D01*
X0136900Y0298639D01*
X0139914Y0295625D01*
X0132250Y0287962D01*
X0131375Y0285849D01*
X0131375Y0268680D01*
X0126059Y0268680D01*
X0124000Y0266621D01*
X0121941Y0268680D01*
X0116059Y0268680D01*
X0111900Y0264521D01*
X0111900Y0258639D01*
X0116059Y0254480D01*
X0121941Y0254480D01*
X0124000Y0256539D01*
X0124914Y0255625D01*
X0112361Y0243073D01*
X0110412Y0243880D01*
X0107588Y0243880D01*
X0104978Y0242799D01*
X0102981Y0240802D01*
X0102957Y0240743D01*
X0102648Y0241051D01*
X0101935Y0241570D01*
X0101150Y0241970D01*
X0100311Y0242242D01*
X0099441Y0242380D01*
X0099000Y0242380D01*
X0099000Y0231580D01*
X0099000Y0231580D01*
X0099000Y0242380D01*
X0098559Y0242380D01*
X0097689Y0242242D01*
X0096850Y0241970D01*
X0096065Y0241570D01*
X0095352Y0241051D01*
X0094750Y0240450D01*
X0094750Y0254480D01*
X0096941Y0254480D01*
X0099000Y0256539D01*
X0101059Y0254480D01*
X0106941Y0254480D01*
X0111100Y0258639D01*
X0111100Y0264521D01*
X0106941Y0268680D01*
X0101059Y0268680D01*
X0099000Y0266621D01*
X0098399Y0267222D01*
X0120132Y0288955D01*
X0123269Y0288955D01*
X0125382Y0289830D01*
X0130032Y0294480D01*
X0131941Y0294480D01*
X0136100Y0298639D01*
X0136100Y0304521D01*
X0131941Y0308680D01*
X0126059Y0308680D01*
X0124000Y0306621D01*
X0121941Y0308680D01*
X0116059Y0308680D01*
X0115233Y0307854D01*
X0108250Y0314837D01*
X0106713Y0316374D01*
X0109600Y0319260D01*
X0109600Y0321580D01*
X0109600Y0323900D01*
X0106320Y0327180D01*
X0104000Y0327180D01*
X0104000Y0321580D01*
X0104000Y0321580D01*
X0109600Y0321580D01*
X0104000Y0321580D01*
X0104000Y0321580D01*
X0104000Y0327180D01*
X0101680Y0327180D01*
X0100061Y0325560D01*
X0096941Y0328680D01*
X0091059Y0328680D01*
X0086900Y0324521D01*
X0086900Y0318639D01*
X0088209Y0317330D01*
X0061606Y0317330D01*
X0059493Y0316455D01*
X0028243Y0285205D01*
X0026625Y0283587D01*
X0025750Y0281474D01*
X0025750Y0281183D01*
X0025354Y0280787D01*
X0024250Y0278122D01*
X0024250Y0275238D01*
X0024831Y0273836D01*
X0022393Y0272826D01*
X0020354Y0270787D01*
X0019250Y0268122D01*
X0019250Y0265238D01*
X0020246Y0262833D01*
X0012482Y0255069D01*
X0010934Y0255069D01*
X0008733Y0254157D01*
X0008000Y0253425D01*
X0008000Y0284255D01*
X0008396Y0283860D01*
X0009199Y0283243D01*
X0010076Y0282737D01*
X0011012Y0282349D01*
X0011990Y0282087D01*
X0012994Y0281955D01*
X0013500Y0281955D01*
X0014006Y0281955D01*
X0015010Y0282087D01*
X0015988Y0282349D01*
X0016924Y0282737D01*
X0017801Y0283243D01*
X0018604Y0283860D01*
X0019320Y0284576D01*
X0019937Y0285379D01*
X0020443Y0286256D01*
X0020831Y0287192D01*
X0021093Y0288170D01*
X0021225Y0289174D01*
X0021225Y0289680D01*
X0021225Y0290186D01*
X0021093Y0291190D01*
X0021069Y0291280D01*
X0022869Y0291280D01*
X0025514Y0291989D01*
X0027886Y0293358D01*
X0029822Y0295294D01*
X0031191Y0297666D01*
X0031900Y0300311D01*
X0031900Y0303049D01*
X0031191Y0305694D01*
X0029822Y0308066D01*
X0027886Y0310002D01*
X0025514Y0311371D01*
X0022869Y0312080D01*
X0020131Y0312080D01*
X0017486Y0311371D01*
X0015114Y0310002D01*
X0013178Y0308066D01*
X0011809Y0305694D01*
X0011100Y0303049D01*
X0011100Y0300311D01*
X0011809Y0297666D01*
X0012032Y0297278D01*
X0011990Y0297273D01*
X0011012Y0297011D01*
X0010076Y0296623D01*
X0009199Y0296117D01*
X0008396Y0295500D01*
X0008000Y0295105D01*
X0008000Y0332541D01*
X0347454Y0332541D01*
X0294309Y0279396D01*
X0293733Y0279157D01*
X0292048Y0277472D01*
X0291136Y0275271D01*
X0291136Y0272889D01*
X0292048Y0270688D01*
X0293733Y0269003D01*
X0295934Y0268091D01*
X0298316Y0268091D01*
X0300517Y0269003D01*
X0302202Y0270688D01*
X0302441Y0271264D01*
X0304884Y0273707D01*
X0305354Y0272573D01*
X0305572Y0272355D01*
X0305154Y0272288D01*
X0304293Y0272009D01*
X0303486Y0271598D01*
X0302754Y0271066D01*
X0302114Y0270426D01*
X0301582Y0269694D01*
X0301171Y0268887D01*
X0300892Y0268026D01*
X0300750Y0267133D01*
X0300750Y0266680D01*
X0306500Y0266680D01*
X0306500Y0266680D01*
X0306500Y0264830D01*
X0306500Y0264830D01*
X0306500Y0266680D01*
X0306500Y0266680D01*
X0300750Y0266680D01*
X0300750Y0266227D01*
X0300892Y0265334D01*
X0301055Y0264830D01*
X0298893Y0264830D01*
X0298316Y0265069D01*
X0295934Y0265069D01*
X0293733Y0264157D01*
X0292048Y0262472D01*
X0291589Y0261365D01*
X0290191Y0261944D01*
X0287809Y0261944D01*
X0285608Y0261032D01*
X0283923Y0259347D01*
X0283684Y0258771D01*
X0277875Y0252962D01*
X0277000Y0250849D01*
X0277000Y0224598D01*
X0276761Y0224021D01*
X0276761Y0221639D01*
X0277673Y0219438D01*
X0279358Y0217753D01*
X0281375Y0216917D01*
X0281375Y0205827D01*
X0280750Y0207337D01*
X0267625Y0220462D01*
X0266007Y0222080D01*
X0263894Y0222955D01*
X0215768Y0222955D01*
X0215191Y0223194D01*
X0212809Y0223194D01*
X0210608Y0222282D01*
X0208923Y0220597D01*
X0208011Y0218396D01*
X0208011Y0216014D01*
X0208923Y0213813D01*
X0210608Y0212128D01*
X0212809Y0211216D01*
X0215191Y0211216D01*
X0215768Y0211455D01*
X0230743Y0211455D01*
X0227968Y0208680D01*
X0227588Y0208680D01*
X0224978Y0207599D01*
X0224000Y0206621D01*
X0223022Y0207599D01*
X0220412Y0208680D01*
X0217588Y0208680D01*
X0214978Y0207599D01*
X0214709Y0207330D01*
X0200757Y0207330D01*
X0191375Y0216712D01*
X0189757Y0218330D01*
X0187644Y0219205D01*
X0148893Y0219205D01*
X0148316Y0219444D01*
X0145934Y0219444D01*
X0143733Y0218532D01*
X0142048Y0216847D01*
X0141994Y0216718D01*
X0141632Y0217080D01*
X0139519Y0217955D01*
X0113481Y0217955D01*
X0111368Y0217080D01*
X0106500Y0212212D01*
X0107797Y0213509D02*
X0104950Y0213509D01*
X0112400Y0217507D02*
X0088684Y0217507D01*
X0092682Y0221506D02*
X0209831Y0221506D01*
X0208011Y0217507D02*
X0190580Y0217507D01*
X0194578Y0213509D02*
X0209227Y0213509D01*
X0198577Y0209510D02*
X0228798Y0209510D01*
X0225115Y0225504D02*
X0192885Y0225504D01*
X0185115Y0225504D02*
X0163894Y0225504D01*
X0164429Y0229503D02*
X0173787Y0229503D01*
X0173810Y0229430D02*
X0174210Y0228645D01*
X0174729Y0227932D01*
X0175352Y0227309D01*
X0176065Y0226790D01*
X0176850Y0226390D01*
X0177689Y0226118D01*
X0178559Y0225980D01*
X0179000Y0225980D01*
X0179000Y0231580D01*
X0179000Y0231580D01*
X0179000Y0231580D01*
X0173400Y0231580D01*
X0173400Y0231139D01*
X0173538Y0230269D01*
X0173810Y0229430D01*
X0173400Y0233501D02*
X0168428Y0233501D01*
X0172426Y0237500D02*
X0173444Y0237500D01*
X0175922Y0241498D02*
X0175967Y0241498D01*
X0179000Y0241498D02*
X0179000Y0241498D01*
X0182033Y0241498D02*
X0183250Y0241498D01*
X0183250Y0245497D02*
X0175887Y0245497D01*
X0183250Y0249495D02*
X0159422Y0249495D01*
X0155423Y0245497D02*
X0164160Y0245497D01*
X0160161Y0241498D02*
X0154750Y0241498D01*
X0156100Y0237500D02*
X0156163Y0237500D01*
X0143250Y0241498D02*
X0142033Y0241498D01*
X0139000Y0241498D02*
X0139000Y0241498D01*
X0139000Y0242380D02*
X0138559Y0242380D01*
X0137689Y0242242D01*
X0136850Y0241970D01*
X0136065Y0241570D01*
X0135352Y0241051D01*
X0134729Y0240428D01*
X0134210Y0239715D01*
X0133810Y0238930D01*
X0133538Y0238091D01*
X0133400Y0237221D01*
X0133400Y0231580D01*
X0139000Y0231580D01*
X0139000Y0231580D01*
X0139000Y0231580D01*
X0139000Y0242380D01*
X0135967Y0241498D02*
X0127050Y0241498D01*
X0131048Y0245497D02*
X0143250Y0245497D01*
X0143725Y0249495D02*
X0135047Y0249495D01*
X0139045Y0253494D02*
X0147157Y0253494D01*
X0163420Y0253494D02*
X0183250Y0253494D01*
X0194750Y0253494D02*
X0207180Y0253494D01*
X0211078Y0249495D02*
X0194750Y0249495D01*
X0194750Y0245497D02*
X0215077Y0245497D01*
X0215967Y0241498D02*
X0194750Y0241498D01*
X0196100Y0237500D02*
X0213444Y0237500D01*
X0213400Y0233501D02*
X0196100Y0233501D01*
X0195824Y0229503D02*
X0213787Y0229503D01*
X0213810Y0229430D02*
X0214210Y0228645D01*
X0214729Y0227932D01*
X0215352Y0227309D01*
X0216065Y0226790D01*
X0216850Y0226390D01*
X0217689Y0226118D01*
X0218559Y0225980D01*
X0219000Y0225980D01*
X0219000Y0231580D01*
X0219000Y0231580D01*
X0219000Y0231580D01*
X0213400Y0231580D01*
X0213400Y0231139D01*
X0213538Y0230269D01*
X0213810Y0229430D01*
X0219000Y0229503D02*
X0219000Y0229503D01*
X0232885Y0225504D02*
X0265115Y0225504D01*
X0264978Y0225561D02*
X0267588Y0224480D01*
X0270412Y0224480D01*
X0273022Y0225561D01*
X0275019Y0227558D01*
X0276100Y0230168D01*
X0276100Y0238192D01*
X0275019Y0240802D01*
X0273022Y0242799D01*
X0270412Y0243880D01*
X0267588Y0243880D01*
X0264978Y0242799D01*
X0262981Y0240802D01*
X0262957Y0240743D01*
X0262648Y0241051D01*
X0261935Y0241570D01*
X0261150Y0241970D01*
X0260311Y0242242D01*
X0259441Y0242380D01*
X0259000Y0242380D01*
X0259000Y0231580D01*
X0259000Y0231580D01*
X0259000Y0225980D01*
X0259441Y0225980D01*
X0260311Y0226118D01*
X0261150Y0226390D01*
X0261935Y0226790D01*
X0262648Y0227309D01*
X0262957Y0227617D01*
X0262981Y0227558D01*
X0264978Y0225561D01*
X0266581Y0221506D02*
X0276816Y0221506D01*
X0277000Y0225504D02*
X0272885Y0225504D01*
X0275824Y0229503D02*
X0277000Y0229503D01*
X0277000Y0233501D02*
X0276100Y0233501D01*
X0276100Y0237500D02*
X0277000Y0237500D01*
X0277000Y0241498D02*
X0274323Y0241498D01*
X0277000Y0245497D02*
X0234750Y0245497D01*
X0234750Y0249495D02*
X0277000Y0249495D01*
X0278407Y0253494D02*
X0238420Y0253494D01*
X0234750Y0241498D02*
X0255967Y0241498D01*
X0256065Y0241570D02*
X0255352Y0241051D01*
X0254729Y0240428D01*
X0254210Y0239715D01*
X0253810Y0238930D01*
X0253538Y0238091D01*
X0253400Y0237221D01*
X0253400Y0231580D01*
X0259000Y0231580D01*
X0259000Y0231580D01*
X0259000Y0231580D01*
X0259000Y0242380D01*
X0258559Y0242380D01*
X0257689Y0242242D01*
X0256850Y0241970D01*
X0256065Y0241570D01*
X0259000Y0241498D02*
X0259000Y0241498D01*
X0262033Y0241498D02*
X0263677Y0241498D01*
X0259000Y0237500D02*
X0259000Y0237500D01*
X0259000Y0233501D02*
X0259000Y0233501D01*
X0259000Y0231580D02*
X0253400Y0231580D01*
X0253400Y0231139D01*
X0253538Y0230269D01*
X0253810Y0229430D01*
X0254210Y0228645D01*
X0254729Y0227932D01*
X0255352Y0227309D01*
X0256065Y0226790D01*
X0256850Y0226390D01*
X0257689Y0226118D01*
X0258559Y0225980D01*
X0259000Y0225980D01*
X0259000Y0231580D01*
X0259000Y0229503D02*
X0259000Y0229503D01*
X0253787Y0229503D02*
X0235824Y0229503D01*
X0236100Y0233501D02*
X0253400Y0233501D01*
X0253444Y0237500D02*
X0236100Y0237500D01*
X0259953Y0257492D02*
X0282405Y0257492D01*
X0286714Y0261491D02*
X0261100Y0261491D01*
X0260132Y0265489D02*
X0300867Y0265489D01*
X0301002Y0269488D02*
X0301477Y0269488D01*
X0304663Y0273486D02*
X0304976Y0273486D01*
X0293248Y0269488D02*
X0242875Y0269488D01*
X0242875Y0273486D02*
X0291136Y0273486D01*
X0292060Y0277485D02*
X0243661Y0277485D01*
X0247660Y0281483D02*
X0296397Y0281483D01*
X0295988Y0282349D02*
X0296924Y0282737D01*
X0297801Y0283243D01*
X0298604Y0283860D01*
X0299320Y0284576D01*
X0299937Y0285379D01*
X0300443Y0286256D01*
X0300831Y0287192D01*
X0301093Y0288170D01*
X0301225Y0289174D01*
X0301225Y0289680D01*
X0301225Y0290186D01*
X0301093Y0291190D01*
X0301069Y0291280D01*
X0302869Y0291280D01*
X0305514Y0291989D01*
X0307886Y0293358D01*
X0309822Y0295294D01*
X0311191Y0297666D01*
X0311900Y0300311D01*
X0311900Y0303049D01*
X0311191Y0305694D01*
X0309822Y0308066D01*
X0307886Y0310002D01*
X0305514Y0311371D01*
X0302869Y0312080D01*
X0300131Y0312080D01*
X0297486Y0311371D01*
X0295114Y0310002D01*
X0293178Y0308066D01*
X0291809Y0305694D01*
X0291100Y0303049D01*
X0291100Y0300311D01*
X0291809Y0297666D01*
X0292032Y0297278D01*
X0291990Y0297273D01*
X0291012Y0297011D01*
X0290076Y0296623D01*
X0289199Y0296117D01*
X0288396Y0295500D01*
X0287680Y0294784D01*
X0287063Y0293981D01*
X0286557Y0293104D01*
X0286169Y0292168D01*
X0285907Y0291190D01*
X0285775Y0290186D01*
X0285775Y0289680D01*
X0293500Y0289680D01*
X0301225Y0289680D01*
X0293500Y0289680D01*
X0293500Y0289680D01*
X0293500Y0281955D01*
X0294006Y0281955D01*
X0295010Y0282087D01*
X0295988Y0282349D01*
X0293500Y0281955D02*
X0293500Y0289680D01*
X0293500Y0289680D01*
X0293500Y0289680D01*
X0285775Y0289680D01*
X0285775Y0289174D01*
X0285907Y0288170D01*
X0286169Y0287192D01*
X0286557Y0286256D01*
X0287063Y0285379D01*
X0287680Y0284576D01*
X0288396Y0283860D01*
X0289199Y0283243D01*
X0290076Y0282737D01*
X0291012Y0282349D01*
X0291990Y0282087D01*
X0292994Y0281955D01*
X0293500Y0281955D01*
X0293500Y0285482D02*
X0293500Y0285482D01*
X0293500Y0289480D02*
X0293500Y0289480D01*
X0299996Y0285482D02*
X0300395Y0285482D01*
X0301225Y0289480D02*
X0304394Y0289480D01*
X0308007Y0293479D02*
X0308392Y0293479D01*
X0311082Y0297477D02*
X0312391Y0297477D01*
X0311900Y0301476D02*
X0316389Y0301476D01*
X0320388Y0305474D02*
X0311250Y0305474D01*
X0308415Y0309473D02*
X0324386Y0309473D01*
X0328385Y0313471D02*
X0254953Y0313471D01*
X0254000Y0315980D02*
X0256320Y0315980D01*
X0259600Y0319260D01*
X0259600Y0321580D01*
X0259600Y0323900D01*
X0256320Y0327180D01*
X0254000Y0327180D01*
X0254000Y0321580D01*
X0259600Y0321580D01*
X0254000Y0321580D01*
X0254000Y0321580D01*
X0254000Y0321580D01*
X0254000Y0315980D01*
X0254000Y0321580D01*
X0254000Y0321580D01*
X0254000Y0327180D01*
X0251680Y0327180D01*
X0250061Y0325560D01*
X0246941Y0328680D01*
X0241059Y0328680D01*
X0236900Y0324521D01*
X0236900Y0318639D01*
X0241059Y0314480D01*
X0246941Y0314480D01*
X0250061Y0317600D01*
X0251680Y0315980D01*
X0254000Y0315980D01*
X0254000Y0317470D02*
X0254000Y0317470D01*
X0257809Y0317470D02*
X0332383Y0317470D01*
X0336382Y0321468D02*
X0259600Y0321468D01*
X0258033Y0325467D02*
X0340380Y0325467D01*
X0344379Y0329465D02*
X0008000Y0329465D01*
X0008000Y0325467D02*
X0087846Y0325467D01*
X0086900Y0321468D02*
X0008000Y0321468D01*
X0008000Y0317470D02*
X0088069Y0317470D01*
X0088209Y0305830D02*
X0076113Y0305830D01*
X0076191Y0305694D01*
X0076900Y0303049D01*
X0076900Y0300311D01*
X0076191Y0297666D01*
X0075968Y0297278D01*
X0076010Y0297273D01*
X0076988Y0297011D01*
X0077924Y0296623D01*
X0078801Y0296117D01*
X0079604Y0295500D01*
X0080320Y0294784D01*
X0080937Y0293981D01*
X0081443Y0293104D01*
X0081831Y0292168D01*
X0082093Y0291190D01*
X0082225Y0290186D01*
X0082225Y0289680D01*
X0074500Y0289680D01*
X0074500Y0289680D01*
X0082225Y0289680D01*
X0082225Y0289174D01*
X0082093Y0288170D01*
X0081831Y0287192D01*
X0081443Y0286256D01*
X0080937Y0285379D01*
X0080320Y0284576D01*
X0079604Y0283860D01*
X0079582Y0283843D01*
X0080952Y0282472D01*
X0081006Y0282343D01*
X0093143Y0294480D01*
X0091059Y0294480D01*
X0086900Y0298639D01*
X0086900Y0304521D01*
X0088209Y0305830D01*
X0087853Y0305474D02*
X0076250Y0305474D01*
X0076900Y0301476D02*
X0086900Y0301476D01*
X0088062Y0297477D02*
X0076082Y0297477D01*
X0081227Y0293479D02*
X0092142Y0293479D01*
X0088144Y0289480D02*
X0082225Y0289480D01*
X0080996Y0285482D02*
X0084145Y0285482D01*
X0074500Y0289680D02*
X0066775Y0289680D01*
X0074500Y0289680D01*
X0074500Y0289680D01*
X0066775Y0289680D02*
X0066775Y0289174D01*
X0066865Y0288492D01*
X0065144Y0289205D01*
X0056606Y0289205D01*
X0054493Y0288330D01*
X0050093Y0283930D01*
X0050058Y0283930D01*
X0047393Y0282826D01*
X0046500Y0281933D01*
X0045607Y0282826D01*
X0043147Y0283845D01*
X0056867Y0297565D01*
X0058178Y0295294D01*
X0060114Y0293358D01*
X0062486Y0291989D01*
X0065131Y0291280D01*
X0066931Y0291280D01*
X0066907Y0291190D01*
X0066775Y0290186D01*
X0066775Y0289680D01*
X0066775Y0289480D02*
X0048782Y0289480D01*
X0051645Y0285482D02*
X0044783Y0285482D01*
X0052780Y0293479D02*
X0059993Y0293479D01*
X0056918Y0297477D02*
X0056779Y0297477D01*
X0048513Y0305474D02*
X0031250Y0305474D01*
X0031900Y0301476D02*
X0044514Y0301476D01*
X0040516Y0297477D02*
X0031082Y0297477D01*
X0028007Y0293479D02*
X0036517Y0293479D01*
X0032519Y0289480D02*
X0021225Y0289480D01*
X0021225Y0289680D02*
X0013500Y0289680D01*
X0021225Y0289680D01*
X0019996Y0285482D02*
X0028520Y0285482D01*
X0025754Y0281483D02*
X0008000Y0281483D01*
X0008000Y0277485D02*
X0024250Y0277485D01*
X0023987Y0273486D02*
X0008000Y0273486D01*
X0008000Y0269488D02*
X0019816Y0269488D01*
X0019250Y0265489D02*
X0008000Y0265489D01*
X0008000Y0261491D02*
X0018904Y0261491D01*
X0014905Y0257492D02*
X0008000Y0257492D01*
X0008000Y0253494D02*
X0008069Y0253494D01*
X0019000Y0231580D02*
X0019000Y0231580D01*
X0019000Y0225980D01*
X0019000Y0231580D01*
X0019000Y0229503D02*
X0019000Y0229503D01*
X0017875Y0225504D02*
X0025115Y0225504D01*
X0032885Y0225504D02*
X0065115Y0225504D01*
X0059000Y0225980D02*
X0059000Y0231580D01*
X0059000Y0231580D01*
X0059000Y0231580D01*
X0053400Y0231580D01*
X0053400Y0231139D01*
X0053538Y0230269D01*
X0053810Y0229430D01*
X0054210Y0228645D01*
X0054729Y0227932D01*
X0055352Y0227309D01*
X0056065Y0226790D01*
X0056850Y0226390D01*
X0057689Y0226118D01*
X0058559Y0225980D01*
X0059000Y0225980D01*
X0059000Y0229503D02*
X0059000Y0229503D01*
X0059000Y0233501D02*
X0059000Y0233501D01*
X0059000Y0237500D02*
X0059000Y0237500D01*
X0059000Y0241498D02*
X0059000Y0241498D01*
X0062033Y0241498D02*
X0063677Y0241498D01*
X0060423Y0245497D02*
X0070125Y0245497D01*
X0070125Y0249495D02*
X0064422Y0249495D01*
X0068420Y0253494D02*
X0070125Y0253494D01*
X0053444Y0237500D02*
X0052426Y0237500D01*
X0053400Y0233501D02*
X0048428Y0233501D01*
X0044429Y0229503D02*
X0053787Y0229503D01*
X0074068Y0221506D02*
X0017875Y0221506D01*
X0017875Y0217507D02*
X0078066Y0217507D01*
X0094750Y0225504D02*
X0105115Y0225504D01*
X0099000Y0225980D02*
X0099000Y0231580D01*
X0099000Y0231580D01*
X0099000Y0225980D01*
X0099000Y0229503D02*
X0099000Y0229503D01*
X0099000Y0233501D02*
X0099000Y0233501D01*
X0099000Y0237500D02*
X0099000Y0237500D01*
X0099000Y0241498D02*
X0099000Y0241498D01*
X0102033Y0241498D02*
X0103677Y0241498D01*
X0095967Y0241498D02*
X0094750Y0241498D01*
X0094750Y0245497D02*
X0114785Y0245497D01*
X0118783Y0249495D02*
X0094750Y0249495D01*
X0094750Y0253494D02*
X0122782Y0253494D01*
X0113047Y0257492D02*
X0109953Y0257492D01*
X0111100Y0261491D02*
X0111900Y0261491D01*
X0112868Y0265489D02*
X0110132Y0265489D01*
X0104663Y0273486D02*
X0131375Y0273486D01*
X0131375Y0269488D02*
X0100664Y0269488D01*
X0108661Y0277485D02*
X0131375Y0277485D01*
X0131375Y0281483D02*
X0112660Y0281483D01*
X0116658Y0285482D02*
X0131375Y0285482D01*
X0133769Y0289480D02*
X0124537Y0289480D01*
X0129030Y0293479D02*
X0137767Y0293479D01*
X0138062Y0297477D02*
X0134938Y0297477D01*
X0136100Y0301476D02*
X0136900Y0301476D01*
X0137853Y0305474D02*
X0135147Y0305474D01*
X0141059Y0314480D02*
X0146941Y0314480D01*
X0150061Y0317600D01*
X0151680Y0315980D01*
X0154000Y0315980D01*
X0156320Y0315980D01*
X0159600Y0319260D01*
X0159600Y0321580D01*
X0159600Y0323900D01*
X0156320Y0327180D01*
X0154000Y0327180D01*
X0154000Y0321580D01*
X0159600Y0321580D01*
X0154000Y0321580D01*
X0154000Y0321580D01*
X0154000Y0321580D01*
X0154000Y0315980D01*
X0154000Y0321580D01*
X0154000Y0321580D01*
X0154000Y0327180D01*
X0151680Y0327180D01*
X0150061Y0325560D01*
X0146941Y0328680D01*
X0141059Y0328680D01*
X0136900Y0324521D01*
X0136900Y0318639D01*
X0141059Y0314480D01*
X0138069Y0317470D02*
X0132809Y0317470D01*
X0131320Y0315980D02*
X0134600Y0319260D01*
X0134600Y0321580D01*
X0134600Y0323900D01*
X0131320Y0327180D01*
X0129000Y0327180D01*
X0129000Y0321580D01*
X0134600Y0321580D01*
X0129000Y0321580D01*
X0129000Y0321580D01*
X0129000Y0321580D01*
X0129000Y0315980D01*
X0131320Y0315980D01*
X0129000Y0315980D02*
X0129000Y0321580D01*
X0129000Y0321580D01*
X0129000Y0327180D01*
X0126680Y0327180D01*
X0125061Y0325560D01*
X0121941Y0328680D01*
X0116059Y0328680D01*
X0111900Y0324521D01*
X0111900Y0318639D01*
X0116059Y0314480D01*
X0121941Y0314480D01*
X0125061Y0317600D01*
X0126680Y0315980D01*
X0129000Y0315980D01*
X0129000Y0317470D02*
X0129000Y0317470D01*
X0125191Y0317470D02*
X0124931Y0317470D01*
X0129000Y0321468D02*
X0129000Y0321468D01*
X0129000Y0325467D02*
X0129000Y0325467D01*
X0133033Y0325467D02*
X0137846Y0325467D01*
X0136900Y0321468D02*
X0134600Y0321468D01*
X0149931Y0317470D02*
X0150191Y0317470D01*
X0154000Y0317470D02*
X0154000Y0317470D01*
X0157809Y0317470D02*
X0163069Y0317470D01*
X0161900Y0318639D02*
X0166059Y0314480D01*
X0171941Y0314480D01*
X0175061Y0317600D01*
X0176680Y0315980D01*
X0179000Y0315980D01*
X0179000Y0321580D01*
X0179000Y0321580D01*
X0179000Y0327180D01*
X0176680Y0327180D01*
X0175061Y0325560D01*
X0171941Y0328680D01*
X0166059Y0328680D01*
X0161900Y0324521D01*
X0161900Y0318639D01*
X0161900Y0321468D02*
X0159600Y0321468D01*
X0158033Y0325467D02*
X0162846Y0325467D01*
X0154000Y0325467D02*
X0154000Y0325467D01*
X0154000Y0321468D02*
X0154000Y0321468D01*
X0174931Y0317470D02*
X0175191Y0317470D01*
X0179000Y0317470D02*
X0179000Y0317470D01*
X0179000Y0321468D02*
X0179000Y0321468D01*
X0179000Y0325467D02*
X0179000Y0325467D01*
X0183033Y0325467D02*
X0187846Y0325467D01*
X0199931Y0317470D02*
X0200191Y0317470D01*
X0204000Y0317470D02*
X0204000Y0317470D01*
X0204000Y0315980D02*
X0204000Y0321580D01*
X0204000Y0321580D01*
X0204000Y0315980D01*
X0207809Y0317470D02*
X0213069Y0317470D01*
X0211900Y0318639D02*
X0216059Y0314480D01*
X0221941Y0314480D01*
X0225061Y0317600D01*
X0226680Y0315980D01*
X0229000Y0315980D01*
X0231320Y0315980D01*
X0234600Y0319260D01*
X0234600Y0321580D01*
X0234600Y0323900D01*
X0231320Y0327180D01*
X0229000Y0327180D01*
X0229000Y0321580D01*
X0234600Y0321580D01*
X0229000Y0321580D01*
X0229000Y0321580D01*
X0229000Y0321580D01*
X0229000Y0315980D01*
X0229000Y0321580D01*
X0229000Y0321580D01*
X0229000Y0327180D01*
X0226680Y0327180D01*
X0225061Y0325560D01*
X0221941Y0328680D01*
X0216059Y0328680D01*
X0211900Y0324521D01*
X0211900Y0318639D01*
X0211900Y0321468D02*
X0209600Y0321468D01*
X0208033Y0325467D02*
X0212846Y0325467D01*
X0204000Y0325467D02*
X0204000Y0325467D01*
X0204000Y0321468D02*
X0204000Y0321468D01*
X0209415Y0313471D02*
X0238585Y0313471D01*
X0238069Y0317470D02*
X0232809Y0317470D01*
X0229000Y0317470D02*
X0229000Y0317470D01*
X0225191Y0317470D02*
X0224931Y0317470D01*
X0229000Y0321468D02*
X0229000Y0321468D01*
X0229000Y0325467D02*
X0229000Y0325467D01*
X0233033Y0325467D02*
X0237846Y0325467D01*
X0236900Y0321468D02*
X0234600Y0321468D01*
X0249931Y0317470D02*
X0250191Y0317470D01*
X0254000Y0321468D02*
X0254000Y0321468D01*
X0254000Y0325467D02*
X0254000Y0325467D01*
X0257489Y0309473D02*
X0294585Y0309473D01*
X0291750Y0305474D02*
X0260147Y0305474D01*
X0261100Y0301476D02*
X0291100Y0301476D01*
X0291918Y0297477D02*
X0259938Y0297477D01*
X0259198Y0293479D02*
X0286773Y0293479D01*
X0285775Y0289480D02*
X0255657Y0289480D01*
X0257257Y0291080D02*
X0257257Y0291080D01*
X0251658Y0285482D02*
X0287004Y0285482D01*
X0306500Y0265489D02*
X0306500Y0265489D01*
X0291641Y0261491D02*
X0291286Y0261491D01*
X0327250Y0282683D02*
X0327250Y0287948D01*
X0336867Y0297565D01*
X0338178Y0295294D01*
X0340114Y0293358D01*
X0342486Y0291989D01*
X0345131Y0291280D01*
X0346931Y0291280D01*
X0346907Y0291190D01*
X0346775Y0290186D01*
X0346775Y0289680D01*
X0354500Y0289680D01*
X0362225Y0289680D01*
X0362225Y0290186D01*
X0362093Y0291190D01*
X0361941Y0291757D01*
X0363868Y0289830D01*
X0365981Y0288955D01*
X0368269Y0288955D01*
X0374493Y0288955D01*
X0360488Y0274950D01*
X0359702Y0276847D01*
X0358017Y0278532D01*
X0357441Y0278771D01*
X0354257Y0281955D01*
X0354500Y0281955D01*
X0355006Y0281955D01*
X0356010Y0282087D01*
X0356988Y0282349D01*
X0357924Y0282737D01*
X0358801Y0283243D01*
X0359604Y0283860D01*
X0360320Y0284576D01*
X0360937Y0285379D01*
X0361443Y0286256D01*
X0361831Y0287192D01*
X0362093Y0288170D01*
X0362225Y0289174D01*
X0362225Y0289680D01*
X0354500Y0289680D01*
X0354500Y0289680D01*
X0354500Y0289680D01*
X0354500Y0281955D01*
X0354500Y0289680D01*
X0354500Y0289680D01*
X0346775Y0289680D01*
X0346775Y0289174D01*
X0346829Y0288766D01*
X0345769Y0289205D01*
X0336606Y0289205D01*
X0334493Y0288330D01*
X0330093Y0283930D01*
X0330058Y0283930D01*
X0327393Y0282826D01*
X0327250Y0282683D01*
X0327250Y0285482D02*
X0331645Y0285482D01*
X0328782Y0289480D02*
X0346775Y0289480D01*
X0339993Y0293479D02*
X0332780Y0293479D01*
X0336779Y0297477D02*
X0336918Y0297477D01*
X0354500Y0289480D02*
X0354500Y0289480D01*
X0354500Y0285482D02*
X0354500Y0285482D01*
X0354728Y0281483D02*
X0367022Y0281483D01*
X0371020Y0285482D02*
X0360996Y0285482D01*
X0362225Y0289480D02*
X0364713Y0289480D01*
X0369507Y0300455D02*
X0355125Y0314837D01*
X0353507Y0316455D01*
X0351394Y0317330D01*
X0348507Y0317330D01*
X0353882Y0322705D01*
X0380908Y0322705D01*
X0380800Y0322021D01*
X0380800Y0321580D01*
X0389000Y0321580D01*
X0397200Y0321580D01*
X0397200Y0322021D01*
X0397092Y0322705D01*
X0419300Y0322705D01*
X0419300Y0321887D01*
X0405118Y0307705D01*
X0403500Y0306087D01*
X0402625Y0303974D01*
X0402625Y0287962D01*
X0394046Y0296541D01*
X0394535Y0296790D01*
X0395248Y0297309D01*
X0395871Y0297932D01*
X0396390Y0298645D01*
X0396790Y0299430D01*
X0397062Y0300269D01*
X0397200Y0301139D01*
X0397200Y0301580D01*
X0397200Y0302021D01*
X0397062Y0302891D01*
X0396790Y0303730D01*
X0396390Y0304515D01*
X0395871Y0305228D01*
X0395248Y0305851D01*
X0394535Y0306370D01*
X0394122Y0306580D01*
X0394535Y0306790D01*
X0395248Y0307309D01*
X0395871Y0307932D01*
X0396390Y0308645D01*
X0396790Y0309430D01*
X0397062Y0310269D01*
X0397200Y0311139D01*
X0397200Y0311580D01*
X0397200Y0312021D01*
X0397062Y0312891D01*
X0396790Y0313730D01*
X0396390Y0314515D01*
X0395871Y0315228D01*
X0395248Y0315851D01*
X0394535Y0316370D01*
X0394122Y0316580D01*
X0394535Y0316790D01*
X0395248Y0317309D01*
X0395871Y0317932D01*
X0396390Y0318645D01*
X0396790Y0319430D01*
X0397062Y0320269D01*
X0397200Y0321139D01*
X0397200Y0321580D01*
X0389000Y0321580D01*
X0389000Y0321580D01*
X0389000Y0321580D01*
X0389000Y0317180D01*
X0389000Y0311580D01*
X0397200Y0311580D01*
X0389000Y0311580D01*
X0389000Y0311580D01*
X0389000Y0311580D01*
X0389000Y0311580D01*
X0380800Y0311580D01*
X0380800Y0312021D01*
X0380938Y0312891D01*
X0381210Y0313730D01*
X0381610Y0314515D01*
X0382129Y0315228D01*
X0382752Y0315851D01*
X0383465Y0316370D01*
X0383878Y0316580D01*
X0383465Y0316790D01*
X0382752Y0317309D01*
X0382129Y0317932D01*
X0381610Y0318645D01*
X0381210Y0319430D01*
X0380938Y0320269D01*
X0380800Y0321139D01*
X0380800Y0321580D01*
X0389000Y0321580D01*
X0389000Y0321580D01*
X0389000Y0311580D01*
X0389000Y0301580D01*
X0397200Y0301580D01*
X0389000Y0301580D01*
X0389000Y0301580D01*
X0389000Y0301580D01*
X0389000Y0301580D01*
X0380800Y0301580D01*
X0380800Y0302021D01*
X0380938Y0302891D01*
X0381210Y0303730D01*
X0381610Y0304515D01*
X0382129Y0305228D01*
X0382752Y0305851D01*
X0383465Y0306370D01*
X0383878Y0306580D01*
X0383465Y0306790D01*
X0382752Y0307309D01*
X0382129Y0307932D01*
X0381610Y0308645D01*
X0381210Y0309430D01*
X0380938Y0310269D01*
X0380800Y0311139D01*
X0380800Y0311580D01*
X0389000Y0311580D01*
X0389000Y0311580D01*
X0389000Y0305980D01*
X0389000Y0301580D01*
X0380800Y0301580D01*
X0380800Y0301139D01*
X0380908Y0300455D01*
X0369507Y0300455D01*
X0368486Y0301476D02*
X0380800Y0301476D01*
X0382375Y0305474D02*
X0364487Y0305474D01*
X0360489Y0309473D02*
X0381196Y0309473D01*
X0381126Y0313471D02*
X0356490Y0313471D01*
X0348647Y0317470D02*
X0382591Y0317470D01*
X0380800Y0321468D02*
X0352645Y0321468D01*
X0389000Y0321468D02*
X0389000Y0321468D01*
X0389000Y0317470D02*
X0389000Y0317470D01*
X0389000Y0313471D02*
X0389000Y0313471D01*
X0389000Y0309473D02*
X0389000Y0309473D01*
X0389000Y0305474D02*
X0389000Y0305474D01*
X0395625Y0305474D02*
X0403247Y0305474D01*
X0402625Y0301476D02*
X0397200Y0301476D01*
X0395417Y0297477D02*
X0402625Y0297477D01*
X0402625Y0293479D02*
X0397108Y0293479D01*
X0401106Y0289480D02*
X0402625Y0289480D01*
X0390643Y0283680D02*
X0389988Y0283680D01*
X0387378Y0282599D01*
X0385381Y0280602D01*
X0384300Y0277992D01*
X0384300Y0275168D01*
X0385381Y0272558D01*
X0386084Y0271855D01*
X0385118Y0271455D01*
X0383500Y0269837D01*
X0374125Y0260462D01*
X0373250Y0258349D01*
X0373250Y0253348D01*
X0373011Y0252771D01*
X0373011Y0250389D01*
X0373923Y0248188D01*
X0375608Y0246503D01*
X0377809Y0245591D01*
X0380191Y0245591D01*
X0382392Y0246503D01*
X0384077Y0248188D01*
X0384989Y0250389D01*
X0384989Y0252771D01*
X0384750Y0253348D01*
X0384750Y0254081D01*
X0385381Y0252558D01*
X0387378Y0250561D01*
X0387437Y0250537D01*
X0387129Y0250228D01*
X0386610Y0249515D01*
X0386210Y0248730D01*
X0385938Y0247891D01*
X0385800Y0247021D01*
X0385800Y0246580D01*
X0394000Y0246580D01*
X0402200Y0246580D01*
X0402200Y0247021D01*
X0402062Y0247891D01*
X0401790Y0248730D01*
X0401390Y0249515D01*
X0400871Y0250228D01*
X0400563Y0250537D01*
X0400622Y0250561D01*
X0402619Y0252558D01*
X0402625Y0252572D01*
X0402625Y0246800D01*
X0402200Y0246375D01*
X0402200Y0246580D01*
X0394000Y0246580D01*
X0394000Y0246580D01*
X0394000Y0246580D01*
X0385800Y0246580D01*
X0385800Y0246139D01*
X0385938Y0245269D01*
X0386210Y0244430D01*
X0386610Y0243645D01*
X0387129Y0242932D01*
X0387437Y0242623D01*
X0387378Y0242599D01*
X0385381Y0240602D01*
X0384300Y0237992D01*
X0384300Y0237560D01*
X0384077Y0238097D01*
X0382392Y0239782D01*
X0380191Y0240694D01*
X0377809Y0240694D01*
X0375608Y0239782D01*
X0373923Y0238097D01*
X0373684Y0237521D01*
X0361625Y0225462D01*
X0360750Y0223349D01*
X0360750Y0204811D01*
X0361625Y0202698D01*
X0363243Y0201080D01*
X0366993Y0197330D01*
X0369106Y0196455D01*
X0375144Y0196455D01*
X0376653Y0197080D01*
X0390993Y0197080D01*
X0392097Y0195977D01*
X0389978Y0195099D01*
X0389000Y0194121D01*
X0388022Y0195099D01*
X0385412Y0196180D01*
X0382588Y0196180D01*
X0379978Y0195099D01*
X0377981Y0193102D01*
X0377957Y0193043D01*
X0377648Y0193351D01*
X0376935Y0193870D01*
X0376150Y0194270D01*
X0375311Y0194542D01*
X0374441Y0194680D01*
X0374000Y0194680D01*
X0374000Y0186480D01*
X0374000Y0186480D01*
X0374000Y0194680D01*
X0373559Y0194680D01*
X0372689Y0194542D01*
X0371850Y0194270D01*
X0371065Y0193870D01*
X0370352Y0193351D01*
X0370043Y0193043D01*
X0370019Y0193102D01*
X0368022Y0195099D01*
X0365412Y0196180D01*
X0362588Y0196180D01*
X0359978Y0195099D01*
X0359000Y0194121D01*
X0358022Y0195099D01*
X0355412Y0196180D01*
X0352588Y0196180D01*
X0349978Y0195099D01*
X0349000Y0194121D01*
X0348022Y0195099D01*
X0345412Y0196180D01*
X0342588Y0196180D01*
X0339978Y0195099D01*
X0339750Y0194871D01*
X0339750Y0201789D01*
X0339978Y0201561D01*
X0342588Y0200480D01*
X0345412Y0200480D01*
X0348022Y0201561D01*
X0350019Y0203558D01*
X0351100Y0206168D01*
X0351100Y0208992D01*
X0350019Y0211602D01*
X0348980Y0212641D01*
X0349600Y0213260D01*
X0349600Y0215580D01*
X0349600Y0217900D01*
X0346320Y0221180D01*
X0344000Y0221180D01*
X0344000Y0215580D01*
X0344000Y0215580D01*
X0349600Y0215580D01*
X0344000Y0215580D01*
X0344000Y0215580D01*
X0344000Y0221180D01*
X0341680Y0221180D01*
X0339750Y0219250D01*
X0339750Y0237948D01*
X0360744Y0258942D01*
X0360798Y0258813D01*
X0362483Y0257128D01*
X0364684Y0256216D01*
X0367066Y0256216D01*
X0369267Y0257128D01*
X0370952Y0258813D01*
X0371191Y0259389D01*
X0378691Y0266889D01*
X0379267Y0267128D01*
X0380952Y0268813D01*
X0381864Y0271014D01*
X0381864Y0273396D01*
X0380952Y0275597D01*
X0379267Y0277282D01*
X0379138Y0277336D01*
X0383691Y0281889D01*
X0384267Y0282128D01*
X0385952Y0283813D01*
X0386864Y0286014D01*
X0386864Y0287459D01*
X0390643Y0283680D01*
X0388842Y0285482D02*
X0386644Y0285482D01*
X0386262Y0281483D02*
X0383285Y0281483D01*
X0384300Y0277485D02*
X0379286Y0277485D01*
X0381827Y0273486D02*
X0384996Y0273486D01*
X0383151Y0269488D02*
X0381232Y0269488D01*
X0379152Y0265489D02*
X0377291Y0265489D01*
X0375154Y0261491D02*
X0373292Y0261491D01*
X0373250Y0257492D02*
X0369632Y0257492D01*
X0373250Y0253494D02*
X0355295Y0253494D01*
X0351297Y0249495D02*
X0373381Y0249495D01*
X0384619Y0249495D02*
X0386600Y0249495D01*
X0385902Y0245497D02*
X0347298Y0245497D01*
X0343300Y0241498D02*
X0386277Y0241498D01*
X0373663Y0237500D02*
X0339750Y0237500D01*
X0339750Y0233501D02*
X0369664Y0233501D01*
X0365666Y0229503D02*
X0339750Y0229503D01*
X0339750Y0225504D02*
X0361667Y0225504D01*
X0360750Y0221506D02*
X0339750Y0221506D01*
X0344000Y0217507D02*
X0344000Y0217507D01*
X0349600Y0217507D02*
X0360750Y0217507D01*
X0360750Y0213509D02*
X0349600Y0213509D01*
X0350886Y0209510D02*
X0360750Y0209510D01*
X0360750Y0205512D02*
X0350828Y0205512D01*
X0347906Y0201513D02*
X0362810Y0201513D01*
X0366809Y0197514D02*
X0339750Y0197514D01*
X0339750Y0201513D02*
X0340094Y0201513D01*
X0369605Y0193516D02*
X0370578Y0193516D01*
X0374000Y0193516D02*
X0374000Y0193516D01*
X0377422Y0193516D02*
X0378395Y0193516D01*
X0374000Y0189517D02*
X0374000Y0189517D01*
X0349750Y0162073D02*
X0359093Y0152730D01*
X0359000Y0152730D01*
X0359000Y0146580D01*
X0359000Y0146580D01*
X0359000Y0146580D01*
X0349000Y0146580D01*
X0349000Y0146580D01*
X0349000Y0146580D01*
X0349000Y0152730D01*
X0351547Y0152730D01*
X0354000Y0150277D01*
X0356453Y0152730D01*
X0359000Y0152730D01*
X0359000Y0146580D01*
X0359000Y0140430D01*
X0361547Y0140430D01*
X0364114Y0142996D01*
X0365608Y0141503D01*
X0366184Y0141264D01*
X0371655Y0135794D01*
X0369978Y0135099D01*
X0369000Y0134121D01*
X0368022Y0135099D01*
X0365412Y0136180D01*
X0362588Y0136180D01*
X0359978Y0135099D01*
X0359304Y0134425D01*
X0358875Y0135462D01*
X0353250Y0141087D01*
X0352727Y0141610D01*
X0354000Y0142883D01*
X0356453Y0140430D01*
X0359000Y0140430D01*
X0359000Y0146580D01*
X0359000Y0146580D01*
X0352850Y0146580D01*
X0349000Y0146580D01*
X0349000Y0146580D01*
X0342850Y0146580D01*
X0342850Y0149127D01*
X0346453Y0152730D01*
X0349000Y0152730D01*
X0349000Y0146580D01*
X0342850Y0146580D01*
X0342850Y0144033D01*
X0343303Y0143580D01*
X0336650Y0143580D01*
X0336650Y0146098D01*
X0348875Y0158323D01*
X0349750Y0160436D01*
X0349750Y0162073D01*
X0349750Y0161528D02*
X0350295Y0161528D01*
X0348081Y0157529D02*
X0354294Y0157529D01*
X0358292Y0153531D02*
X0344083Y0153531D01*
X0343255Y0149532D02*
X0340084Y0149532D01*
X0342850Y0145534D02*
X0336650Y0145534D01*
X0349000Y0149532D02*
X0349000Y0149532D01*
X0359000Y0149532D02*
X0359000Y0149532D01*
X0359000Y0145534D02*
X0359000Y0145534D01*
X0359000Y0141535D02*
X0359000Y0141535D01*
X0362653Y0141535D02*
X0365575Y0141535D01*
X0369911Y0137537D02*
X0356800Y0137537D01*
X0355347Y0141535D02*
X0352801Y0141535D01*
X0378022Y0117861D02*
X0379000Y0118839D01*
X0379978Y0117861D01*
X0382588Y0116780D01*
X0385412Y0116780D01*
X0388022Y0117861D01*
X0390019Y0119858D01*
X0390043Y0119917D01*
X0390352Y0119609D01*
X0391065Y0119090D01*
X0391850Y0118690D01*
X0392689Y0118418D01*
X0393559Y0118280D01*
X0394000Y0118280D01*
X0394441Y0118280D01*
X0395311Y0118418D01*
X0396150Y0118690D01*
X0396935Y0119090D01*
X0397648Y0119609D01*
X0397957Y0119917D01*
X0397981Y0119858D01*
X0399501Y0118338D01*
X0391618Y0110455D01*
X0374518Y0110455D01*
X0373941Y0110694D01*
X0371559Y0110694D01*
X0369358Y0109782D01*
X0367673Y0108097D01*
X0366761Y0105896D01*
X0366761Y0103514D01*
X0367673Y0101313D01*
X0369358Y0099628D01*
X0371559Y0098716D01*
X0373941Y0098716D01*
X0374518Y0098955D01*
X0390118Y0098955D01*
X0388500Y0097337D01*
X0387625Y0095224D01*
X0387625Y0088348D01*
X0387386Y0087771D01*
X0387386Y0087473D01*
X0386100Y0086187D01*
X0386100Y0093192D01*
X0385019Y0095802D01*
X0383022Y0097799D01*
X0380412Y0098880D01*
X0377588Y0098880D01*
X0374978Y0097799D01*
X0374000Y0096821D01*
X0373022Y0097799D01*
X0370412Y0098880D01*
X0367588Y0098880D01*
X0365639Y0098073D01*
X0360382Y0103330D01*
X0358269Y0104205D01*
X0340356Y0104205D01*
X0338243Y0103330D01*
X0336625Y0101712D01*
X0333793Y0098880D01*
X0332588Y0098880D01*
X0329978Y0097799D01*
X0329509Y0097330D01*
X0329507Y0097330D01*
X0315382Y0111455D01*
X0367644Y0111455D01*
X0369757Y0112330D01*
X0371375Y0113948D01*
X0374207Y0116780D01*
X0375412Y0116780D01*
X0378022Y0117861D01*
X0377257Y0117544D02*
X0380743Y0117544D01*
X0387257Y0117544D02*
X0398708Y0117544D01*
X0394000Y0118280D02*
X0394000Y0126480D01*
X0394000Y0126480D01*
X0394000Y0118280D01*
X0394000Y0121543D02*
X0394000Y0121543D01*
X0394000Y0125541D02*
X0394000Y0125541D01*
X0394709Y0113546D02*
X0370972Y0113546D01*
X0369123Y0109547D02*
X0317289Y0109547D01*
X0321288Y0105549D02*
X0366761Y0105549D01*
X0367574Y0101550D02*
X0362161Y0101550D01*
X0373269Y0097552D02*
X0374731Y0097552D01*
X0383269Y0097552D02*
X0388715Y0097552D01*
X0387625Y0093553D02*
X0385950Y0093553D01*
X0386100Y0089555D02*
X0387625Y0089555D01*
X0336463Y0101550D02*
X0325286Y0101550D01*
X0329285Y0097552D02*
X0329731Y0097552D01*
X0254000Y0056580D02*
X0254000Y0050980D01*
X0256320Y0050980D01*
X0256761Y0051421D01*
X0256761Y0051014D01*
X0256992Y0050455D01*
X0247916Y0050455D01*
X0250061Y0052600D01*
X0251680Y0050980D01*
X0254000Y0050980D01*
X0254000Y0056580D01*
X0254000Y0056580D01*
X0254000Y0053568D02*
X0254000Y0053568D01*
X0240084Y0050455D02*
X0222916Y0050455D01*
X0225061Y0052600D01*
X0226680Y0050980D01*
X0229000Y0050980D01*
X0231320Y0050980D01*
X0234600Y0054260D01*
X0234600Y0056580D01*
X0234600Y0058900D01*
X0233920Y0059580D01*
X0236959Y0059580D01*
X0236900Y0059521D01*
X0236900Y0053639D01*
X0240084Y0050455D01*
X0236971Y0053568D02*
X0233908Y0053568D01*
X0234600Y0056580D02*
X0229000Y0056580D01*
X0234600Y0056580D01*
X0234600Y0057567D02*
X0236900Y0057567D01*
X0229000Y0056580D02*
X0229000Y0056580D01*
X0229000Y0050980D01*
X0229000Y0056580D01*
X0229000Y0056580D01*
X0229000Y0053568D02*
X0229000Y0053568D01*
X0215084Y0050455D02*
X0197916Y0050455D01*
X0200061Y0052600D01*
X0201680Y0050980D01*
X0204000Y0050980D01*
X0206320Y0050980D01*
X0209600Y0054260D01*
X0209600Y0056580D01*
X0209600Y0058900D01*
X0208920Y0059580D01*
X0211959Y0059580D01*
X0211900Y0059521D01*
X0211900Y0053639D01*
X0215084Y0050455D01*
X0211971Y0053568D02*
X0208908Y0053568D01*
X0209600Y0056580D02*
X0204000Y0056580D01*
X0209600Y0056580D01*
X0209600Y0057567D02*
X0211900Y0057567D01*
X0204000Y0056580D02*
X0204000Y0056580D01*
X0204000Y0050980D01*
X0204000Y0056580D01*
X0204000Y0056580D01*
X0204000Y0053568D02*
X0204000Y0053568D01*
X0186971Y0053568D02*
X0183908Y0053568D01*
X0179000Y0053568D02*
X0179000Y0053568D01*
X0179000Y0057567D02*
X0179000Y0057567D01*
X0179000Y0061565D02*
X0179000Y0061565D01*
X0176066Y0061565D02*
X0174056Y0061565D01*
X0176885Y0065564D02*
X0137523Y0065564D01*
X0133525Y0069562D02*
X0172886Y0069562D01*
X0168888Y0073561D02*
X0129526Y0073561D01*
X0125528Y0077559D02*
X0164889Y0077559D01*
X0160891Y0081558D02*
X0121529Y0081558D01*
X0117531Y0085556D02*
X0156892Y0085556D01*
X0150984Y0089555D02*
X0147016Y0089555D01*
X0119990Y0105549D02*
X0119707Y0105549D01*
X0105858Y0109547D02*
X0091349Y0109547D01*
X0095347Y0113546D02*
X0105830Y0113546D01*
X0106688Y0117544D02*
X0099346Y0117544D01*
X0103345Y0121543D02*
X0105700Y0121543D01*
X0098356Y0089555D02*
X0097016Y0089555D01*
X0074500Y0073561D02*
X0074500Y0073561D01*
X0074500Y0069562D02*
X0074500Y0069562D01*
X0068661Y0073561D02*
X0035987Y0073561D01*
X0031609Y0069562D02*
X0066851Y0069562D01*
X0061433Y0065564D02*
X0026567Y0065564D01*
X0030573Y0061565D02*
X0057427Y0061565D01*
X0056100Y0057567D02*
X0031900Y0057567D01*
X0031487Y0053568D02*
X0056513Y0053568D01*
X0058703Y0049570D02*
X0029297Y0049570D01*
X0021390Y0069562D02*
X0021149Y0069562D01*
X0013500Y0069562D02*
X0013500Y0069562D01*
X0013500Y0073561D02*
X0013500Y0073561D01*
X0014031Y0077559D02*
X0008000Y0077559D01*
X0008000Y0081558D02*
X0013875Y0081558D01*
X0013875Y0085556D02*
X0008000Y0085556D01*
X0008000Y0089555D02*
X0013875Y0089555D01*
X0013875Y0093553D02*
X0008000Y0093553D01*
X0008000Y0097552D02*
X0013875Y0097552D01*
X0014683Y0101550D02*
X0008000Y0101550D01*
X0008000Y0105549D02*
X0018587Y0105549D01*
X0022586Y0109547D02*
X0008000Y0109547D01*
X0008000Y0113546D02*
X0026584Y0113546D01*
X0030583Y0117544D02*
X0008000Y0117544D01*
X0008000Y0121543D02*
X0034581Y0121543D01*
X0038580Y0125541D02*
X0008000Y0125541D01*
X0008000Y0129540D02*
X0042578Y0129540D01*
X0046577Y0133538D02*
X0008000Y0133538D01*
X0008000Y0137537D02*
X0050575Y0137537D01*
X0054574Y0141535D02*
X0008000Y0141535D01*
X0008000Y0145534D02*
X0021013Y0145534D01*
X0015864Y0149532D02*
X0008000Y0149532D01*
X0008000Y0153531D02*
X0013089Y0153531D01*
X0011582Y0157529D02*
X0008000Y0157529D01*
X0008000Y0161528D02*
X0011007Y0161528D01*
X0011567Y0165526D02*
X0008000Y0165526D01*
X0008000Y0169525D02*
X0013042Y0169525D01*
X0015774Y0173523D02*
X0008000Y0173523D01*
X0008000Y0177522D02*
X0013051Y0177522D01*
X0009053Y0181520D02*
X0008000Y0181520D01*
X0042226Y0173523D02*
X0065821Y0173523D01*
X0065867Y0169525D02*
X0044958Y0169525D01*
X0046433Y0165526D02*
X0066651Y0165526D01*
X0065700Y0161528D02*
X0046992Y0161528D01*
X0046418Y0157529D02*
X0066694Y0157529D01*
X0065824Y0153531D02*
X0044911Y0153531D01*
X0042136Y0149532D02*
X0062571Y0149532D01*
X0058572Y0145534D02*
X0036987Y0145534D01*
X0049423Y0209510D02*
X0017875Y0209510D01*
X0017875Y0213509D02*
X0053675Y0213509D01*
X0112885Y0225504D02*
X0145115Y0225504D01*
X0139000Y0225980D02*
X0139000Y0231580D01*
X0133400Y0231580D01*
X0133400Y0231139D01*
X0133538Y0230269D01*
X0133810Y0229430D01*
X0134210Y0228645D01*
X0134729Y0227932D01*
X0135352Y0227309D01*
X0136065Y0226790D01*
X0136850Y0226390D01*
X0137689Y0226118D01*
X0138559Y0225980D01*
X0139000Y0225980D01*
X0139000Y0229503D02*
X0139000Y0229503D01*
X0139000Y0233501D02*
X0139000Y0233501D01*
X0139000Y0237500D02*
X0139000Y0237500D01*
X0133444Y0237500D02*
X0123051Y0237500D01*
X0119053Y0233501D02*
X0133400Y0233501D01*
X0133787Y0229503D02*
X0115824Y0229503D01*
X0140600Y0217507D02*
X0142707Y0217507D01*
X0179000Y0229503D02*
X0179000Y0229503D01*
X0179000Y0233501D02*
X0179000Y0233501D01*
X0179000Y0237500D02*
X0179000Y0237500D01*
X0181375Y0269488D02*
X0167875Y0269488D01*
X0167875Y0273486D02*
X0181375Y0273486D01*
X0181375Y0277485D02*
X0167875Y0277485D01*
X0167875Y0281483D02*
X0181375Y0281483D01*
X0181375Y0285482D02*
X0171033Y0285482D01*
X0175032Y0289480D02*
X0183769Y0289480D01*
X0187767Y0293479D02*
X0179030Y0293479D01*
X0184938Y0297477D02*
X0188062Y0297477D01*
X0186900Y0301476D02*
X0186100Y0301476D01*
X0185147Y0305474D02*
X0187853Y0305474D01*
X0187975Y0309473D02*
X0113614Y0309473D01*
X0109615Y0313471D02*
X0183977Y0313471D01*
X0162853Y0305474D02*
X0160147Y0305474D01*
X0161100Y0301476D02*
X0161900Y0301476D01*
X0163062Y0297477D02*
X0159938Y0297477D01*
X0162767Y0293479D02*
X0154030Y0293479D01*
X0150032Y0289480D02*
X0158769Y0289480D01*
X0156375Y0285482D02*
X0146033Y0285482D01*
X0142875Y0281483D02*
X0156375Y0281483D01*
X0156375Y0277485D02*
X0142875Y0277485D01*
X0142875Y0273486D02*
X0156375Y0273486D01*
X0156375Y0269488D02*
X0142875Y0269488D01*
X0213614Y0309473D02*
X0234386Y0309473D01*
X0113069Y0317470D02*
X0107809Y0317470D01*
X0109600Y0321468D02*
X0111900Y0321468D01*
X0112846Y0325467D02*
X0108033Y0325467D01*
X0104000Y0325467D02*
X0104000Y0325467D01*
X0056510Y0313471D02*
X0008000Y0313471D01*
X0008000Y0309473D02*
X0014585Y0309473D01*
X0011750Y0305474D02*
X0008000Y0305474D01*
X0008000Y0301476D02*
X0011100Y0301476D01*
X0011918Y0297477D02*
X0008000Y0297477D01*
X0013500Y0289680D02*
X0013500Y0289680D01*
X0013500Y0281955D01*
X0013500Y0289680D01*
X0013500Y0289680D01*
X0013500Y0289480D02*
X0013500Y0289480D01*
X0013500Y0285482D02*
X0013500Y0285482D01*
X0028415Y0309473D02*
X0052511Y0309473D01*
X0270580Y0217507D02*
X0279951Y0217507D01*
X0281375Y0213509D02*
X0274578Y0213509D01*
X0278577Y0209510D02*
X0281375Y0209510D01*
X0359294Y0257492D02*
X0362118Y0257492D01*
X0384750Y0253494D02*
X0384993Y0253494D01*
X0401400Y0249495D02*
X0402625Y0249495D01*
X0431641Y0251580D02*
X0432619Y0250602D01*
X0433700Y0247992D01*
X0433700Y0245168D01*
X0432619Y0242558D01*
X0431641Y0241580D01*
X0432619Y0240602D01*
X0433700Y0237992D01*
X0433700Y0235168D01*
X0432619Y0232558D01*
X0431641Y0231580D01*
X0432619Y0230602D01*
X0433700Y0227992D01*
X0433700Y0225168D01*
X0432619Y0222558D01*
X0431641Y0221580D01*
X0432619Y0220602D01*
X0433700Y0217992D01*
X0433700Y0215168D01*
X0432619Y0212558D01*
X0430622Y0210561D01*
X0429750Y0210200D01*
X0429750Y0202962D01*
X0464300Y0237512D01*
X0464300Y0237992D01*
X0465381Y0240602D01*
X0467378Y0242599D01*
X0467437Y0242623D01*
X0467129Y0242932D01*
X0466610Y0243645D01*
X0466210Y0244430D01*
X0465938Y0245269D01*
X0465800Y0246139D01*
X0465800Y0246580D01*
X0474000Y0246580D01*
X0482200Y0246580D01*
X0482200Y0247021D01*
X0482062Y0247891D01*
X0481790Y0248730D01*
X0481390Y0249515D01*
X0480871Y0250228D01*
X0480563Y0250537D01*
X0480622Y0250561D01*
X0482619Y0252558D01*
X0483700Y0255168D01*
X0483700Y0256268D01*
X0484267Y0256503D01*
X0485952Y0258188D01*
X0486191Y0258764D01*
X0488250Y0260823D01*
X0489125Y0262936D01*
X0489125Y0280224D01*
X0488250Y0282337D01*
X0486632Y0283955D01*
X0479607Y0290980D01*
X0482041Y0290980D01*
X0482911Y0291118D01*
X0483750Y0291390D01*
X0484535Y0291790D01*
X0485248Y0292309D01*
X0485871Y0292932D01*
X0486390Y0293645D01*
X0486790Y0294430D01*
X0487062Y0295269D01*
X0487200Y0296139D01*
X0487200Y0296580D01*
X0487200Y0297021D01*
X0487062Y0297891D01*
X0486790Y0298730D01*
X0486390Y0299515D01*
X0485871Y0300228D01*
X0485248Y0300851D01*
X0484535Y0301370D01*
X0484122Y0301580D01*
X0484535Y0301790D01*
X0485248Y0302309D01*
X0485871Y0302932D01*
X0486390Y0303645D01*
X0486790Y0304430D01*
X0487062Y0305269D01*
X0487200Y0306139D01*
X0487200Y0306580D01*
X0487200Y0307021D01*
X0487062Y0307891D01*
X0486790Y0308730D01*
X0486390Y0309515D01*
X0485871Y0310228D01*
X0485248Y0310851D01*
X0484535Y0311370D01*
X0484122Y0311580D01*
X0484535Y0311790D01*
X0485248Y0312309D01*
X0485871Y0312932D01*
X0486390Y0313645D01*
X0486790Y0314430D01*
X0487062Y0315269D01*
X0487200Y0316139D01*
X0487200Y0316580D01*
X0487200Y0317021D01*
X0487062Y0317891D01*
X0486790Y0318730D01*
X0486390Y0319515D01*
X0485871Y0320228D01*
X0485248Y0320851D01*
X0484535Y0321370D01*
X0484122Y0321580D01*
X0484535Y0321790D01*
X0485248Y0322309D01*
X0485871Y0322932D01*
X0486390Y0323645D01*
X0486790Y0324430D01*
X0487062Y0325269D01*
X0487200Y0326139D01*
X0487200Y0326580D01*
X0487200Y0327021D01*
X0487062Y0327891D01*
X0486790Y0328730D01*
X0486390Y0329515D01*
X0485871Y0330228D01*
X0485248Y0330851D01*
X0484535Y0331370D01*
X0483750Y0331770D01*
X0482911Y0332042D01*
X0482041Y0332180D01*
X0479000Y0332180D01*
X0479000Y0326580D01*
X0479000Y0326580D01*
X0487200Y0326580D01*
X0479000Y0326580D01*
X0479000Y0326580D01*
X0479000Y0326580D01*
X0470800Y0326580D01*
X0470800Y0327021D01*
X0470938Y0327891D01*
X0471210Y0328730D01*
X0471610Y0329515D01*
X0472129Y0330228D01*
X0472752Y0330851D01*
X0473465Y0331370D01*
X0474250Y0331770D01*
X0475089Y0332042D01*
X0475959Y0332180D01*
X0479000Y0332180D01*
X0479000Y0326580D01*
X0479000Y0316580D01*
X0487200Y0316580D01*
X0479000Y0316580D01*
X0479000Y0316580D01*
X0479000Y0316580D01*
X0479000Y0316580D01*
X0470800Y0316580D01*
X0470800Y0317021D01*
X0470938Y0317891D01*
X0471210Y0318730D01*
X0471610Y0319515D01*
X0472129Y0320228D01*
X0472752Y0320851D01*
X0473465Y0321370D01*
X0473878Y0321580D01*
X0473465Y0321790D01*
X0472752Y0322309D01*
X0472129Y0322932D01*
X0471610Y0323645D01*
X0471210Y0324430D01*
X0470938Y0325269D01*
X0470800Y0326139D01*
X0470800Y0326580D01*
X0479000Y0326580D01*
X0479000Y0326580D01*
X0479000Y0320980D01*
X0479000Y0316580D01*
X0479000Y0312180D01*
X0479000Y0306580D01*
X0487200Y0306580D01*
X0479000Y0306580D01*
X0479000Y0306580D01*
X0479000Y0306580D01*
X0479000Y0306580D01*
X0470800Y0306580D01*
X0470800Y0307021D01*
X0470938Y0307891D01*
X0471210Y0308730D01*
X0471610Y0309515D01*
X0472129Y0310228D01*
X0472752Y0310851D01*
X0473465Y0311370D01*
X0473878Y0311580D01*
X0473465Y0311790D01*
X0472752Y0312309D01*
X0472129Y0312932D01*
X0471610Y0313645D01*
X0471210Y0314430D01*
X0470938Y0315269D01*
X0470800Y0316139D01*
X0470800Y0316580D01*
X0479000Y0316580D01*
X0479000Y0316580D01*
X0479000Y0306580D01*
X0479000Y0296580D01*
X0487200Y0296580D01*
X0479000Y0296580D01*
X0479000Y0296580D01*
X0479000Y0296580D01*
X0479000Y0300980D01*
X0479000Y0306580D01*
X0479000Y0306580D01*
X0470800Y0306580D01*
X0470800Y0306139D01*
X0470938Y0305269D01*
X0471210Y0304430D01*
X0471610Y0303645D01*
X0472129Y0302932D01*
X0472752Y0302309D01*
X0473465Y0301790D01*
X0473878Y0301580D01*
X0473465Y0301370D01*
X0472752Y0300851D01*
X0472129Y0300228D01*
X0471610Y0299515D01*
X0471210Y0298730D01*
X0470938Y0297891D01*
X0470800Y0297021D01*
X0470800Y0296944D01*
X0470309Y0296944D01*
X0468108Y0296032D01*
X0466423Y0294347D01*
X0465511Y0292146D01*
X0465511Y0289764D01*
X0466423Y0287563D01*
X0468108Y0285878D01*
X0468684Y0285639D01*
X0470643Y0283680D01*
X0469988Y0283680D01*
X0467378Y0282599D01*
X0465381Y0280602D01*
X0464300Y0277992D01*
X0464300Y0275168D01*
X0465381Y0272558D01*
X0466359Y0271580D01*
X0465381Y0270602D01*
X0464300Y0267992D01*
X0464300Y0265168D01*
X0465381Y0262558D01*
X0465609Y0262330D01*
X0458257Y0262330D01*
X0450388Y0270199D01*
X0450517Y0270253D01*
X0452202Y0271938D01*
X0453114Y0274139D01*
X0453114Y0276521D01*
X0452875Y0277098D01*
X0452875Y0316474D01*
X0452000Y0318587D01*
X0438875Y0331712D01*
X0438046Y0332541D01*
X0512320Y0332541D01*
X0510381Y0330602D01*
X0509300Y0327992D01*
X0509300Y0325168D01*
X0510381Y0322558D01*
X0511359Y0321580D01*
X0510381Y0320602D01*
X0509300Y0317992D01*
X0509300Y0315168D01*
X0510381Y0312558D01*
X0511359Y0311580D01*
X0510381Y0310602D01*
X0509300Y0307992D01*
X0509300Y0305168D01*
X0510381Y0302558D01*
X0511359Y0301580D01*
X0510381Y0300602D01*
X0509300Y0297992D01*
X0509300Y0295168D01*
X0510381Y0292558D01*
X0512378Y0290561D01*
X0514988Y0289480D01*
X0523012Y0289480D01*
X0525622Y0290561D01*
X0527619Y0292558D01*
X0528700Y0295168D01*
X0528700Y0297992D01*
X0527619Y0300602D01*
X0527391Y0300830D01*
X0541618Y0300830D01*
X0552856Y0289592D01*
X0552447Y0289356D01*
X0551687Y0288773D01*
X0551011Y0288096D01*
X0550428Y0287337D01*
X0549950Y0286509D01*
X0549584Y0285624D01*
X0549336Y0284700D01*
X0549211Y0283751D01*
X0549211Y0283273D01*
X0560811Y0283273D01*
X0560811Y0283273D01*
X0549211Y0283273D01*
X0549211Y0282794D01*
X0549336Y0281846D01*
X0549584Y0280921D01*
X0549950Y0280037D01*
X0550428Y0279209D01*
X0551011Y0278449D01*
X0551687Y0277773D01*
X0552447Y0277190D01*
X0553275Y0276712D01*
X0554159Y0276345D01*
X0555084Y0276098D01*
X0556033Y0275973D01*
X0560811Y0275973D01*
X0560811Y0283273D01*
X0560811Y0275973D01*
X0565589Y0275973D01*
X0566538Y0276098D01*
X0567463Y0276345D01*
X0568347Y0276712D01*
X0569175Y0277190D01*
X0569935Y0277773D01*
X0570611Y0278449D01*
X0571194Y0279209D01*
X0571672Y0280037D01*
X0571706Y0280118D01*
X0576375Y0275448D01*
X0576375Y0274938D01*
X0575858Y0275236D01*
X0574974Y0275603D01*
X0574049Y0275850D01*
X0573101Y0275975D01*
X0572622Y0275975D01*
X0572144Y0275975D01*
X0571195Y0275850D01*
X0570270Y0275603D01*
X0569386Y0275236D01*
X0568558Y0274758D01*
X0567798Y0274175D01*
X0567122Y0273499D01*
X0566539Y0272740D01*
X0566061Y0271911D01*
X0565695Y0271027D01*
X0565447Y0270102D01*
X0565322Y0269154D01*
X0565322Y0264375D01*
X0565322Y0259597D01*
X0565447Y0258648D01*
X0565695Y0257724D01*
X0566061Y0256840D01*
X0566539Y0256011D01*
X0567122Y0255252D01*
X0567798Y0254575D01*
X0568558Y0253993D01*
X0569386Y0253514D01*
X0570270Y0253148D01*
X0571195Y0252900D01*
X0572144Y0252775D01*
X0572622Y0252775D01*
X0572622Y0264375D01*
X0572622Y0264375D01*
X0572622Y0252775D01*
X0573101Y0252775D01*
X0574049Y0252900D01*
X0574974Y0253148D01*
X0575858Y0253514D01*
X0576375Y0253813D01*
X0576375Y0247712D01*
X0544642Y0215979D01*
X0544041Y0216580D01*
X0546100Y0218639D01*
X0546100Y0224521D01*
X0544041Y0226580D01*
X0546100Y0228639D01*
X0546100Y0234521D01*
X0544750Y0235871D01*
X0544750Y0251698D01*
X0545183Y0252131D01*
X0547250Y0251275D01*
X0550750Y0251275D01*
X0553985Y0252615D01*
X0556460Y0255090D01*
X0557800Y0258325D01*
X0557800Y0270426D01*
X0556460Y0273660D01*
X0553985Y0276136D01*
X0550750Y0277475D01*
X0547250Y0277475D01*
X0544015Y0276136D01*
X0541540Y0273660D01*
X0540200Y0270426D01*
X0540200Y0263412D01*
X0536618Y0259830D01*
X0512939Y0259830D01*
X0512619Y0260602D01*
X0511641Y0261580D01*
X0512619Y0262558D01*
X0513700Y0265168D01*
X0513700Y0267992D01*
X0512619Y0270602D01*
X0511641Y0271580D01*
X0512619Y0272558D01*
X0513700Y0275168D01*
X0513700Y0277992D01*
X0512619Y0280602D01*
X0510622Y0282599D01*
X0508012Y0283680D01*
X0499988Y0283680D01*
X0497378Y0282599D01*
X0495381Y0280602D01*
X0494300Y0277992D01*
X0494300Y0275168D01*
X0495381Y0272558D01*
X0496359Y0271580D01*
X0495381Y0270602D01*
X0494300Y0267992D01*
X0494300Y0265168D01*
X0495381Y0262558D01*
X0496359Y0261580D01*
X0495381Y0260602D01*
X0494300Y0257992D01*
X0494300Y0255168D01*
X0495381Y0252558D01*
X0496359Y0251580D01*
X0495381Y0250602D01*
X0494300Y0247992D01*
X0494300Y0246887D01*
X0484309Y0236896D01*
X0483733Y0236657D01*
X0483700Y0236625D01*
X0483700Y0237992D01*
X0482619Y0240602D01*
X0480622Y0242599D01*
X0480563Y0242623D01*
X0480871Y0242932D01*
X0481390Y0243645D01*
X0481790Y0244430D01*
X0482062Y0245269D01*
X0482200Y0246139D01*
X0482200Y0246580D01*
X0474000Y0246580D01*
X0474000Y0246580D01*
X0474000Y0246580D01*
X0465800Y0246580D01*
X0465800Y0247021D01*
X0465938Y0247891D01*
X0466210Y0248730D01*
X0466610Y0249515D01*
X0467129Y0250228D01*
X0467437Y0250537D01*
X0467378Y0250561D01*
X0467109Y0250830D01*
X0457019Y0250830D01*
X0454731Y0250830D01*
X0452618Y0251705D01*
X0434309Y0270014D01*
X0433733Y0270253D01*
X0432048Y0271938D01*
X0432033Y0271972D01*
X0431641Y0271580D01*
X0432619Y0270602D01*
X0433700Y0267992D01*
X0433700Y0265168D01*
X0432619Y0262558D01*
X0431641Y0261580D01*
X0432619Y0260602D01*
X0433700Y0257992D01*
X0433700Y0255168D01*
X0432619Y0252558D01*
X0431641Y0251580D01*
X0433007Y0253494D02*
X0450830Y0253494D01*
X0446831Y0257492D02*
X0433700Y0257492D01*
X0431730Y0261491D02*
X0442833Y0261491D01*
X0438834Y0265489D02*
X0433700Y0265489D01*
X0433081Y0269488D02*
X0434836Y0269488D01*
X0451099Y0269488D02*
X0464919Y0269488D01*
X0464996Y0273486D02*
X0452844Y0273486D01*
X0452875Y0277485D02*
X0464300Y0277485D01*
X0466262Y0281483D02*
X0452875Y0281483D01*
X0452875Y0285482D02*
X0468842Y0285482D01*
X0465628Y0289480D02*
X0452875Y0289480D01*
X0452875Y0293479D02*
X0466063Y0293479D01*
X0470872Y0297477D02*
X0452875Y0297477D01*
X0452875Y0301476D02*
X0473673Y0301476D01*
X0470905Y0305474D02*
X0452875Y0305474D01*
X0452875Y0309473D02*
X0471589Y0309473D01*
X0471737Y0313471D02*
X0452875Y0313471D01*
X0452462Y0317470D02*
X0470871Y0317470D01*
X0473659Y0321468D02*
X0449118Y0321468D01*
X0445120Y0325467D02*
X0470906Y0325467D01*
X0471585Y0329465D02*
X0441121Y0329465D01*
X0418882Y0321468D02*
X0397200Y0321468D01*
X0395409Y0317470D02*
X0414883Y0317470D01*
X0410885Y0313471D02*
X0396874Y0313471D01*
X0396804Y0309473D02*
X0406886Y0309473D01*
X0363023Y0277485D02*
X0359065Y0277485D01*
X0433077Y0249495D02*
X0466600Y0249495D01*
X0465902Y0245497D02*
X0433700Y0245497D01*
X0431723Y0241498D02*
X0466277Y0241498D01*
X0464288Y0237500D02*
X0433700Y0237500D01*
X0433010Y0233501D02*
X0460289Y0233501D01*
X0456291Y0229503D02*
X0433074Y0229503D01*
X0433700Y0225504D02*
X0452292Y0225504D01*
X0448294Y0221506D02*
X0431715Y0221506D01*
X0433700Y0217507D02*
X0444295Y0217507D01*
X0440297Y0213509D02*
X0433013Y0213509D01*
X0429750Y0209510D02*
X0436298Y0209510D01*
X0432300Y0205512D02*
X0429750Y0205512D01*
X0483700Y0237500D02*
X0484913Y0237500D01*
X0481723Y0241498D02*
X0488911Y0241498D01*
X0492910Y0245497D02*
X0482098Y0245497D01*
X0481400Y0249495D02*
X0494923Y0249495D01*
X0494993Y0253494D02*
X0483007Y0253494D01*
X0485257Y0257492D02*
X0494300Y0257492D01*
X0496270Y0261491D02*
X0488526Y0261491D01*
X0489125Y0265489D02*
X0494300Y0265489D01*
X0494919Y0269488D02*
X0489125Y0269488D01*
X0489125Y0273486D02*
X0494996Y0273486D01*
X0494300Y0277485D02*
X0489125Y0277485D01*
X0488603Y0281483D02*
X0496262Y0281483D01*
X0485105Y0285482D02*
X0549545Y0285482D01*
X0549433Y0281483D02*
X0511738Y0281483D01*
X0513700Y0277485D02*
X0552063Y0277485D01*
X0556532Y0273486D02*
X0567112Y0273486D01*
X0565366Y0269488D02*
X0557800Y0269488D01*
X0557800Y0265489D02*
X0565322Y0265489D01*
X0565322Y0264375D02*
X0572622Y0264375D01*
X0565322Y0264375D01*
X0565322Y0261491D02*
X0557800Y0261491D01*
X0557455Y0257492D02*
X0565791Y0257492D01*
X0569436Y0253494D02*
X0554863Y0253494D01*
X0544750Y0249495D02*
X0576375Y0249495D01*
X0576375Y0253494D02*
X0575808Y0253494D01*
X0572622Y0253494D02*
X0572622Y0253494D01*
X0572622Y0257492D02*
X0572622Y0257492D01*
X0572622Y0261491D02*
X0572622Y0261491D01*
X0572622Y0264375D02*
X0572622Y0264375D01*
X0572622Y0275975D01*
X0572622Y0264375D01*
X0572622Y0264375D01*
X0572622Y0265489D02*
X0572622Y0265489D01*
X0572622Y0269488D02*
X0572622Y0269488D01*
X0572622Y0273486D02*
X0572622Y0273486D01*
X0574339Y0277485D02*
X0569559Y0277485D01*
X0560811Y0277485D02*
X0560811Y0277485D01*
X0560811Y0281483D02*
X0560811Y0281483D01*
X0560811Y0283273D02*
X0560811Y0283273D01*
X0552662Y0289480D02*
X0523013Y0289480D01*
X0528000Y0293479D02*
X0548969Y0293479D01*
X0544971Y0297477D02*
X0528700Y0297477D01*
X0514987Y0289480D02*
X0481106Y0289480D01*
X0486269Y0293479D02*
X0510000Y0293479D01*
X0509300Y0297477D02*
X0487128Y0297477D01*
X0484327Y0301476D02*
X0511255Y0301476D01*
X0509300Y0305474D02*
X0487095Y0305474D01*
X0486411Y0309473D02*
X0509913Y0309473D01*
X0510003Y0313471D02*
X0486263Y0313471D01*
X0487129Y0317470D02*
X0509300Y0317470D01*
X0511247Y0321468D02*
X0484341Y0321468D01*
X0487093Y0325467D02*
X0509300Y0325467D01*
X0509910Y0329465D02*
X0486415Y0329465D01*
X0479000Y0329465D02*
X0479000Y0329465D01*
X0479000Y0325467D02*
X0479000Y0325467D01*
X0479000Y0321468D02*
X0479000Y0321468D01*
X0479000Y0317470D02*
X0479000Y0317470D01*
X0479000Y0313471D02*
X0479000Y0313471D01*
X0479000Y0309473D02*
X0479000Y0309473D01*
X0479000Y0305474D02*
X0479000Y0305474D01*
X0479000Y0301476D02*
X0479000Y0301476D01*
X0479000Y0297477D02*
X0479000Y0297477D01*
X0513003Y0273486D02*
X0541468Y0273486D01*
X0540200Y0269488D02*
X0513081Y0269488D01*
X0513700Y0265489D02*
X0540200Y0265489D01*
X0538279Y0261491D02*
X0511730Y0261491D01*
X0544750Y0245497D02*
X0574160Y0245497D01*
X0570161Y0241498D02*
X0544750Y0241498D01*
X0544750Y0237500D02*
X0566163Y0237500D01*
X0562164Y0233501D02*
X0546100Y0233501D01*
X0546100Y0229503D02*
X0558166Y0229503D01*
X0554167Y0225504D02*
X0545117Y0225504D01*
X0546100Y0221506D02*
X0550169Y0221506D01*
X0546170Y0217507D02*
X0544968Y0217507D01*
X0556007Y0211080D02*
X0572733Y0227806D01*
X0573959Y0226580D01*
X0571900Y0224521D01*
X0571900Y0218639D01*
X0573959Y0216580D01*
X0571900Y0214521D01*
X0571900Y0208639D01*
X0576059Y0204480D01*
X0580125Y0204480D01*
X0580125Y0190496D01*
X0577980Y0192641D01*
X0579600Y0194260D01*
X0579600Y0196580D01*
X0579600Y0198900D01*
X0576320Y0202180D01*
X0574000Y0202180D01*
X0574000Y0196580D01*
X0579600Y0196580D01*
X0574000Y0196580D01*
X0574000Y0196580D01*
X0574000Y0196580D01*
X0574000Y0196580D01*
X0568400Y0196580D01*
X0568400Y0198900D01*
X0571680Y0202180D01*
X0574000Y0202180D01*
X0574000Y0196580D01*
X0568400Y0196580D01*
X0568400Y0194260D01*
X0570020Y0192641D01*
X0566900Y0189521D01*
X0566900Y0183639D01*
X0571059Y0179480D01*
X0576941Y0179480D01*
X0580125Y0182664D01*
X0580125Y0165496D01*
X0577980Y0167641D01*
X0579600Y0169260D01*
X0579600Y0171580D01*
X0579600Y0173900D01*
X0576320Y0177180D01*
X0574000Y0177180D01*
X0574000Y0171580D01*
X0574000Y0171580D01*
X0579600Y0171580D01*
X0574000Y0171580D01*
X0574000Y0171580D01*
X0574000Y0171580D01*
X0568400Y0171580D01*
X0568400Y0173900D01*
X0571680Y0177180D01*
X0574000Y0177180D01*
X0574000Y0171580D01*
X0568400Y0171580D01*
X0568400Y0169260D01*
X0570020Y0167641D01*
X0566900Y0164521D01*
X0566900Y0158639D01*
X0571059Y0154480D01*
X0576941Y0154480D01*
X0580125Y0157664D01*
X0580125Y0150837D01*
X0578894Y0149606D01*
X0576320Y0152180D01*
X0574000Y0152180D01*
X0574000Y0146580D01*
X0574000Y0146580D01*
X0574000Y0146580D01*
X0568400Y0146580D01*
X0568400Y0148900D01*
X0571680Y0152180D01*
X0574000Y0152180D01*
X0574000Y0146580D01*
X0568400Y0146580D01*
X0568400Y0144260D01*
X0570020Y0142641D01*
X0566900Y0139521D01*
X0566900Y0133639D01*
X0569459Y0131080D01*
X0561372Y0131080D01*
X0562392Y0131503D01*
X0564077Y0133188D01*
X0564989Y0135389D01*
X0564989Y0137771D01*
X0564077Y0139972D01*
X0562392Y0141657D01*
X0561816Y0141896D01*
X0559750Y0143962D01*
X0559750Y0147099D01*
X0558875Y0149212D01*
X0557257Y0150830D01*
X0540375Y0167712D01*
X0540375Y0168974D01*
X0539606Y0170830D01*
X0543719Y0170830D01*
X0544582Y0169967D01*
X0547448Y0168780D01*
X0550552Y0168780D01*
X0553418Y0169967D01*
X0555613Y0172162D01*
X0556800Y0175028D01*
X0556800Y0178132D01*
X0555613Y0180998D01*
X0553418Y0183193D01*
X0550552Y0184380D01*
X0547448Y0184380D01*
X0544582Y0183193D01*
X0543719Y0182330D01*
X0535900Y0182330D01*
X0535900Y0183211D01*
X0534652Y0186225D01*
X0533172Y0187705D01*
X0545144Y0187705D01*
X0547257Y0188580D01*
X0548875Y0190198D01*
X0558018Y0199341D01*
X0559566Y0199341D01*
X0561767Y0200253D01*
X0563452Y0201938D01*
X0564364Y0204139D01*
X0564364Y0206521D01*
X0563452Y0208722D01*
X0561767Y0210407D01*
X0559566Y0211319D01*
X0557184Y0211319D01*
X0556607Y0211080D01*
X0556007Y0211080D01*
X0558435Y0213509D02*
X0571900Y0213509D01*
X0571900Y0209510D02*
X0562665Y0209510D01*
X0564364Y0205512D02*
X0575028Y0205512D01*
X0574000Y0201513D02*
X0574000Y0201513D01*
X0576987Y0201513D02*
X0580125Y0201513D01*
X0580125Y0197514D02*
X0579600Y0197514D01*
X0580125Y0193516D02*
X0578856Y0193516D01*
X0574000Y0197514D02*
X0574000Y0197514D01*
X0571013Y0201513D02*
X0563028Y0201513D01*
X0568400Y0197514D02*
X0556191Y0197514D01*
X0552193Y0193516D02*
X0569144Y0193516D01*
X0566900Y0189517D02*
X0548194Y0189517D01*
X0555090Y0181520D02*
X0569019Y0181520D01*
X0566900Y0185519D02*
X0534944Y0185519D01*
X0513703Y0176580D02*
X0513348Y0176225D01*
X0512100Y0173211D01*
X0512100Y0169949D01*
X0513348Y0166935D01*
X0514828Y0165455D01*
X0514717Y0165310D01*
X0514278Y0164550D01*
X0513942Y0163738D01*
X0513715Y0162890D01*
X0513600Y0162019D01*
X0513600Y0161580D01*
X0524000Y0161580D01*
X0530243Y0161580D01*
X0530243Y0161580D01*
X0524000Y0161580D01*
X0524000Y0161580D01*
X0524000Y0161580D01*
X0513600Y0161580D01*
X0513600Y0161141D01*
X0513715Y0160270D01*
X0513942Y0159422D01*
X0514278Y0158610D01*
X0514717Y0157850D01*
X0514828Y0157705D01*
X0513348Y0156225D01*
X0512100Y0153211D01*
X0512100Y0152187D01*
X0511631Y0151718D01*
X0511577Y0151847D01*
X0509892Y0153532D01*
X0509316Y0153771D01*
X0501676Y0161411D01*
X0502827Y0162563D01*
X0503739Y0164764D01*
X0503739Y0167146D01*
X0502827Y0169347D01*
X0501142Y0171032D01*
X0498941Y0171944D01*
X0496559Y0171944D01*
X0494358Y0171032D01*
X0492673Y0169347D01*
X0492614Y0169205D01*
X0490382Y0169205D01*
X0497625Y0176448D01*
X0498500Y0178561D01*
X0498500Y0179480D01*
X0501941Y0179480D01*
X0503291Y0180830D01*
X0512100Y0180830D01*
X0512100Y0179949D01*
X0513348Y0176935D01*
X0513703Y0176580D01*
X0513105Y0177522D02*
X0498069Y0177522D01*
X0494700Y0173523D02*
X0512229Y0173523D01*
X0512276Y0169525D02*
X0502650Y0169525D01*
X0503739Y0165526D02*
X0514757Y0165526D01*
X0513600Y0161528D02*
X0501793Y0161528D01*
X0505557Y0157529D02*
X0514653Y0157529D01*
X0512232Y0153531D02*
X0509894Y0153531D01*
X0533172Y0157705D02*
X0534652Y0156225D01*
X0535900Y0153211D01*
X0535900Y0149949D01*
X0534652Y0146935D01*
X0534297Y0146580D01*
X0534652Y0146225D01*
X0535900Y0143211D01*
X0535900Y0139949D01*
X0534652Y0136935D01*
X0534297Y0136580D01*
X0534652Y0136225D01*
X0535900Y0133211D01*
X0535900Y0131080D01*
X0545917Y0131080D01*
X0545698Y0131192D01*
X0544896Y0131775D01*
X0544195Y0132476D01*
X0543612Y0133278D01*
X0543162Y0134162D01*
X0542855Y0135105D01*
X0542700Y0136084D01*
X0542700Y0136580D01*
X0549000Y0136580D01*
X0549000Y0136580D01*
X0542700Y0136580D01*
X0542700Y0137076D01*
X0542855Y0138055D01*
X0543162Y0138998D01*
X0543612Y0139882D01*
X0544195Y0140684D01*
X0544896Y0141385D01*
X0545698Y0141968D01*
X0546582Y0142418D01*
X0547525Y0142725D01*
X0548250Y0142840D01*
X0548250Y0143573D01*
X0533536Y0158288D01*
X0533283Y0157850D01*
X0533172Y0157705D01*
X0533347Y0157529D02*
X0534294Y0157529D01*
X0535768Y0153531D02*
X0538292Y0153531D01*
X0535727Y0149532D02*
X0542291Y0149532D01*
X0546289Y0145534D02*
X0534938Y0145534D01*
X0535900Y0141535D02*
X0545102Y0141535D01*
X0542773Y0137537D02*
X0534901Y0137537D01*
X0535764Y0133538D02*
X0543479Y0133538D01*
X0559750Y0145534D02*
X0568400Y0145534D01*
X0568914Y0141535D02*
X0562514Y0141535D01*
X0564989Y0137537D02*
X0566900Y0137537D01*
X0567001Y0133538D02*
X0564223Y0133538D01*
X0575940Y0121014D02*
X0577000Y0122073D01*
X0590551Y0135624D01*
X0590551Y0025580D01*
X0577058Y0025580D01*
X0580787Y0027977D01*
X0584143Y0031848D01*
X0584143Y0031848D01*
X0586271Y0036509D01*
X0587000Y0041580D01*
X0586271Y0046651D01*
X0586271Y0046651D01*
X0584143Y0051312D01*
X0580787Y0055183D01*
X0576477Y0057953D01*
X0573511Y0058824D01*
X0573516Y0058827D01*
X0574422Y0059396D01*
X0575259Y0060063D01*
X0576015Y0060820D01*
X0576683Y0061656D01*
X0577252Y0062562D01*
X0577716Y0063527D01*
X0578070Y0064537D01*
X0578308Y0065580D01*
X0578428Y0066643D01*
X0578428Y0066915D01*
X0569164Y0066915D01*
X0569164Y0067442D01*
X0578428Y0067442D01*
X0578428Y0067713D01*
X0578308Y0068777D01*
X0578070Y0069820D01*
X0577716Y0070830D01*
X0577252Y0071794D01*
X0576683Y0072700D01*
X0576015Y0073537D01*
X0575259Y0074294D01*
X0574422Y0074961D01*
X0573516Y0075530D01*
X0572552Y0075995D01*
X0571542Y0076348D01*
X0570498Y0076586D01*
X0569435Y0076706D01*
X0569164Y0076706D01*
X0569164Y0067442D01*
X0568636Y0067442D01*
X0568636Y0066915D01*
X0559372Y0066915D01*
X0559372Y0066643D01*
X0559492Y0065580D01*
X0559730Y0064537D01*
X0560084Y0063527D01*
X0560548Y0062562D01*
X0561117Y0061656D01*
X0561785Y0060820D01*
X0562541Y0060063D01*
X0563378Y0059396D01*
X0564284Y0058827D01*
X0564364Y0058788D01*
X0561523Y0057953D01*
X0557213Y0055183D01*
X0553857Y0051312D01*
X0551729Y0046651D01*
X0551000Y0041580D01*
X0551000Y0041580D01*
X0551729Y0036509D01*
X0551729Y0036509D01*
X0553857Y0031848D01*
X0557213Y0027977D01*
X0560942Y0025580D01*
X0510507Y0025580D01*
X0531375Y0046448D01*
X0532250Y0048561D01*
X0532250Y0056687D01*
X0532489Y0057264D01*
X0532489Y0059646D01*
X0531577Y0061847D01*
X0529892Y0063532D01*
X0527691Y0064444D01*
X0525309Y0064444D01*
X0523108Y0063532D01*
X0522423Y0062847D01*
X0521897Y0063065D01*
X0513250Y0071712D01*
X0512257Y0072705D01*
X0534519Y0072705D01*
X0536632Y0073580D01*
X0537000Y0073948D01*
X0537000Y0057723D01*
X0536761Y0057146D01*
X0536761Y0054764D01*
X0537673Y0052563D01*
X0539358Y0050878D01*
X0541559Y0049966D01*
X0543941Y0049966D01*
X0546142Y0050878D01*
X0547827Y0052563D01*
X0548739Y0054764D01*
X0548739Y0057146D01*
X0548500Y0057723D01*
X0548500Y0075437D01*
X0548739Y0076014D01*
X0548739Y0078396D01*
X0548660Y0078588D01*
X0553409Y0078588D01*
X0554294Y0079472D01*
X0555178Y0078588D01*
X0561283Y0078588D01*
X0565601Y0082905D01*
X0565601Y0089011D01*
X0562672Y0091940D01*
X0564101Y0093369D01*
X0564101Y0095800D01*
X0558231Y0095800D01*
X0558231Y0095801D01*
X0564101Y0095801D01*
X0564101Y0097341D01*
X0564731Y0097080D01*
X0570357Y0097080D01*
X0570934Y0096841D01*
X0573316Y0096841D01*
X0575517Y0097753D01*
X0577202Y0099438D01*
X0578114Y0101639D01*
X0578114Y0104021D01*
X0577202Y0106222D01*
X0575609Y0107815D01*
X0576015Y0108221D01*
X0576683Y0109058D01*
X0577252Y0109964D01*
X0577716Y0110928D01*
X0578070Y0111938D01*
X0578308Y0112982D01*
X0578428Y0114045D01*
X0578428Y0114316D01*
X0569164Y0114316D01*
X0569164Y0114844D01*
X0578428Y0114844D01*
X0578428Y0115115D01*
X0578308Y0116178D01*
X0578070Y0117222D01*
X0577716Y0118232D01*
X0577252Y0119196D01*
X0576683Y0120102D01*
X0576015Y0120939D01*
X0575940Y0121014D01*
X0576470Y0121543D02*
X0590551Y0121543D01*
X0590551Y0117544D02*
X0577957Y0117544D01*
X0578371Y0113546D02*
X0590551Y0113546D01*
X0590551Y0109547D02*
X0576990Y0109547D01*
X0577481Y0105549D02*
X0590551Y0105549D01*
X0590551Y0101550D02*
X0578077Y0101550D01*
X0575032Y0097552D02*
X0590551Y0097552D01*
X0590551Y0093553D02*
X0564101Y0093553D01*
X0565057Y0089555D02*
X0590551Y0089555D01*
X0590551Y0085556D02*
X0565601Y0085556D01*
X0564253Y0081558D02*
X0590551Y0081558D01*
X0590551Y0077559D02*
X0548739Y0077559D01*
X0548500Y0073561D02*
X0561808Y0073561D01*
X0561785Y0073537D02*
X0561117Y0072700D01*
X0560548Y0071794D01*
X0560084Y0070830D01*
X0559730Y0069820D01*
X0559492Y0068777D01*
X0559372Y0067713D01*
X0559372Y0067442D01*
X0568636Y0067442D01*
X0568636Y0076706D01*
X0568365Y0076706D01*
X0567302Y0076586D01*
X0566258Y0076348D01*
X0565248Y0075995D01*
X0564284Y0075530D01*
X0563378Y0074961D01*
X0562541Y0074294D01*
X0561785Y0073537D01*
X0559671Y0069562D02*
X0548500Y0069562D01*
X0548500Y0065564D02*
X0559496Y0065564D01*
X0561190Y0061565D02*
X0548500Y0061565D01*
X0548565Y0057567D02*
X0560921Y0057567D01*
X0557213Y0055183D02*
X0557213Y0055183D01*
X0555813Y0053568D02*
X0548244Y0053568D01*
X0553062Y0049570D02*
X0532250Y0049570D01*
X0532250Y0053568D02*
X0537256Y0053568D01*
X0536935Y0057567D02*
X0532489Y0057567D01*
X0531694Y0061565D02*
X0537000Y0061565D01*
X0537000Y0065564D02*
X0519398Y0065564D01*
X0515400Y0069562D02*
X0537000Y0069562D01*
X0537000Y0073561D02*
X0536584Y0073561D01*
X0530993Y0084205D02*
X0525701Y0084205D01*
X0526100Y0085168D01*
X0526100Y0093192D01*
X0525019Y0095802D01*
X0523114Y0097707D01*
X0523114Y0099646D01*
X0522202Y0101847D01*
X0520517Y0103532D01*
X0519941Y0103771D01*
X0516363Y0107349D01*
X0517202Y0108188D01*
X0517441Y0108764D01*
X0518257Y0109580D01*
X0531607Y0109580D01*
X0532184Y0109341D01*
X0534566Y0109341D01*
X0536767Y0110253D01*
X0538452Y0111938D01*
X0539364Y0114139D01*
X0539364Y0116521D01*
X0538452Y0118722D01*
X0537595Y0119580D01*
X0560789Y0119580D01*
X0560548Y0119196D01*
X0560084Y0118232D01*
X0559730Y0117222D01*
X0559492Y0116178D01*
X0559372Y0115115D01*
X0559372Y0114844D01*
X0568636Y0114844D01*
X0568636Y0114316D01*
X0559372Y0114316D01*
X0559372Y0114045D01*
X0559492Y0112982D01*
X0559730Y0111938D01*
X0560084Y0110928D01*
X0560312Y0110455D01*
X0556606Y0110455D01*
X0554493Y0109580D01*
X0548084Y0103171D01*
X0547304Y0103171D01*
X0542987Y0098853D01*
X0542987Y0096198D01*
X0530993Y0084205D01*
X0532344Y0085556D02*
X0526100Y0085556D01*
X0526100Y0089555D02*
X0536343Y0089555D01*
X0540341Y0093553D02*
X0525950Y0093553D01*
X0523269Y0097552D02*
X0542987Y0097552D01*
X0545684Y0101550D02*
X0522325Y0101550D01*
X0518163Y0105549D02*
X0550462Y0105549D01*
X0554461Y0109547D02*
X0535064Y0109547D01*
X0531686Y0109547D02*
X0518224Y0109547D01*
X0539118Y0113546D02*
X0559429Y0113546D01*
X0559843Y0117544D02*
X0538940Y0117544D01*
X0580468Y0125541D02*
X0590551Y0125541D01*
X0590551Y0129540D02*
X0584467Y0129540D01*
X0588465Y0133538D02*
X0590551Y0133538D01*
X0574000Y0149532D02*
X0574000Y0149532D01*
X0569033Y0149532D02*
X0558554Y0149532D01*
X0554556Y0153531D02*
X0580125Y0153531D01*
X0580125Y0157529D02*
X0579990Y0157529D01*
X0568010Y0157529D02*
X0550557Y0157529D01*
X0546559Y0161528D02*
X0566900Y0161528D01*
X0567906Y0165526D02*
X0542560Y0165526D01*
X0540147Y0169525D02*
X0545650Y0169525D01*
X0552350Y0169525D02*
X0568400Y0169525D01*
X0568400Y0173523D02*
X0556177Y0173523D01*
X0556800Y0177522D02*
X0580125Y0177522D01*
X0580125Y0181520D02*
X0578981Y0181520D01*
X0579600Y0173523D02*
X0580125Y0173523D01*
X0580125Y0169525D02*
X0579600Y0169525D01*
X0580094Y0165526D02*
X0580125Y0165526D01*
X0574000Y0173523D02*
X0574000Y0173523D01*
X0573032Y0217507D02*
X0562434Y0217507D01*
X0566432Y0221506D02*
X0571900Y0221506D01*
X0572883Y0225504D02*
X0570431Y0225504D01*
X0492850Y0169525D02*
X0490702Y0169525D01*
X0464300Y0265489D02*
X0455098Y0265489D01*
X0568636Y0073561D02*
X0569164Y0073561D01*
X0569164Y0069562D02*
X0568636Y0069562D01*
X0575992Y0073561D02*
X0590551Y0073561D01*
X0590551Y0069562D02*
X0578129Y0069562D01*
X0578304Y0065564D02*
X0590551Y0065564D01*
X0590551Y0061565D02*
X0576610Y0061565D01*
X0576477Y0057953D02*
X0576477Y0057953D01*
X0577079Y0057567D02*
X0590551Y0057567D01*
X0580787Y0055183D02*
X0580787Y0055183D01*
X0582187Y0053568D02*
X0590551Y0053568D01*
X0590551Y0049570D02*
X0584938Y0049570D01*
X0584143Y0051312D02*
X0584143Y0051312D01*
X0586426Y0045571D02*
X0590551Y0045571D01*
X0590551Y0041573D02*
X0586999Y0041573D01*
X0586424Y0037574D02*
X0590551Y0037574D01*
X0590551Y0033576D02*
X0584931Y0033576D01*
X0586271Y0036509D02*
X0586271Y0036509D01*
X0582174Y0029577D02*
X0590551Y0029577D01*
X0580787Y0027977D02*
X0580787Y0027977D01*
X0580787Y0027977D01*
X0557213Y0027977D02*
X0557213Y0027977D01*
X0555826Y0029577D02*
X0514504Y0029577D01*
X0518502Y0033576D02*
X0553069Y0033576D01*
X0553857Y0031848D02*
X0553857Y0031848D01*
X0551576Y0037574D02*
X0522501Y0037574D01*
X0526499Y0041573D02*
X0551001Y0041573D01*
X0551574Y0045571D02*
X0530498Y0045571D01*
X0551729Y0046651D02*
X0551729Y0046651D01*
X0233230Y0029577D02*
X0222038Y0029577D01*
X0215962Y0029577D02*
X0197038Y0029577D01*
X0190962Y0029577D02*
X0172038Y0029577D01*
X0165962Y0029577D02*
X0147038Y0029577D01*
X0154000Y0033576D02*
X0154000Y0033576D01*
X0158915Y0033576D02*
X0161964Y0033576D01*
X0161900Y0037574D02*
X0159600Y0037574D01*
X0179000Y0033576D02*
X0179000Y0033576D01*
X0183915Y0033576D02*
X0186964Y0033576D01*
X0186900Y0037574D02*
X0184600Y0037574D01*
X0204000Y0033576D02*
X0204000Y0033576D01*
X0208915Y0033576D02*
X0211964Y0033576D01*
X0211900Y0037574D02*
X0209600Y0037574D01*
X0229000Y0033576D02*
X0229000Y0033576D01*
X0186900Y0057567D02*
X0184600Y0057567D01*
X0163944Y0061565D02*
X0156934Y0061565D01*
X0154000Y0061565D02*
X0154000Y0061565D01*
X0151066Y0061565D02*
X0149056Y0061565D01*
X0154000Y0057567D02*
X0154000Y0057567D01*
X0159600Y0057567D02*
X0161900Y0057567D01*
X0161971Y0053568D02*
X0158908Y0053568D01*
X0154000Y0053568D02*
X0154000Y0053568D01*
X0133504Y0049570D02*
X0122030Y0049570D01*
X0129000Y0053568D02*
X0129000Y0053568D01*
X0113952Y0041573D02*
X0106927Y0041573D01*
X0104000Y0041573D02*
X0104000Y0041573D01*
X0101073Y0041573D02*
X0099048Y0041573D01*
X0104000Y0037574D02*
X0104000Y0037574D01*
X0104000Y0033576D02*
X0104000Y0033576D01*
X0108915Y0033576D02*
X0111964Y0033576D01*
X0111900Y0037574D02*
X0109600Y0037574D01*
D24*
X0187750Y0083455D03*
X0222125Y0070955D03*
X0262125Y0090955D03*
X0281500Y0094705D03*
X0270875Y0132830D03*
X0286500Y0144705D03*
X0301500Y0169705D03*
X0324000Y0161580D03*
X0369000Y0146580D03*
X0394000Y0155955D03*
X0409625Y0145330D03*
X0442750Y0138455D03*
X0426500Y0114080D03*
X0446500Y0108455D03*
X0470250Y0108455D03*
X0512125Y0111580D03*
X0517125Y0098455D03*
X0533375Y0115330D03*
X0532125Y0125330D03*
X0559000Y0136580D03*
X0506500Y0148455D03*
X0487750Y0135955D03*
X0497750Y0165955D03*
X0482750Y0170955D03*
X0525250Y0190955D03*
X0516500Y0203455D03*
X0558375Y0205330D03*
X0531500Y0248455D03*
X0487125Y0231580D03*
X0464625Y0214080D03*
X0466500Y0200955D03*
X0431500Y0196580D03*
X0400875Y0174080D03*
X0381500Y0173455D03*
X0304625Y0221580D03*
X0282750Y0222830D03*
X0289000Y0255955D03*
X0297125Y0259080D03*
X0297125Y0274080D03*
X0251500Y0308455D03*
X0186500Y0319080D03*
X0075875Y0279080D03*
X0083375Y0252830D03*
X0075875Y0235330D03*
X0083375Y0227830D03*
X0116500Y0206580D03*
X0147125Y0213455D03*
X0158375Y0227830D03*
X0170250Y0243455D03*
X0214000Y0217205D03*
X0221500Y0247205D03*
X0167125Y0179705D03*
X0215875Y0160330D03*
X0235875Y0160330D03*
X0207125Y0119705D03*
X0212750Y0115330D03*
X0262750Y0052205D03*
X0266500Y0037205D03*
X0260875Y0032830D03*
X0236500Y0034705D03*
X0322125Y0042830D03*
X0393375Y0086580D03*
X0404000Y0071580D03*
X0413375Y0068455D03*
X0407750Y0042830D03*
X0492125Y0050955D03*
X0501500Y0039080D03*
X0513375Y0046580D03*
X0526500Y0058455D03*
X0542750Y0055955D03*
X0542750Y0077205D03*
X0572125Y0102830D03*
X0372750Y0104705D03*
X0379000Y0234705D03*
X0406500Y0242205D03*
X0379000Y0251580D03*
X0365875Y0262205D03*
X0375875Y0272205D03*
X0354625Y0273455D03*
X0380875Y0287205D03*
X0414625Y0277205D03*
X0400875Y0261580D03*
X0437125Y0275330D03*
X0447125Y0275330D03*
X0440875Y0288455D03*
X0471500Y0290955D03*
X0480875Y0261580D03*
X0098375Y0166580D03*
X0019000Y0187205D03*
X0012125Y0249080D03*
M02*
